<?xml version="1.0" encoding="UTF-8"?>
<svg version="1.1" xmlns="http://www.w3.org/2000/svg" width="300" height="300">
<path d="M0 0 C99 0 198 0 300 0 C300 99 300 198 300 300 C201 300 102 300 0 300 C0 201 0 102 0 0 Z " fill="#FEFEFE" transform="translate(0,0)"/>
<path d="M0 0 C19.14 0 38.28 0 58 0 C70 21 70 21 70 22 C56.8 22 43.6 22 30 22 C30 27.61 30 33.22 30 39 C41.88 39 53.76 39 66 39 C66 45.93 66 52.86 66 60 C54.45 60 42.9 60 31 60 C31 65.28 31 70.56 31 76 C47.17 76 63.34 76 80 76 C80 83.59 80 91.18 80 99 C53.6 99 27.2 99 0 99 C0 66.33 0 33.66 0 0 Z " fill="#30303A" transform="translate(53,152)"/>
<path d="M0 0 C10.89 0 21.78 0 33 0 C34.8975 3.465 36.795 6.93 38.75 10.5 C39.34006836 11.57572266 39.93013672 12.65144531 40.53808594 13.75976562 C43.46937179 19.12356351 46.30824829 24.51196252 49 30 C51.47347109 26.90191967 53.29562186 23.7010687 55.1015625 20.17578125 C55.96007812 18.50999023 55.96007812 18.50999023 56.8359375 16.81054688 C57.42632812 15.65619141 58.01671875 14.50183594 58.625 13.3125 C59.80304101 11.0160817 60.98264225 8.72046289 62.1640625 6.42578125 C62.68436035 5.40911377 63.2046582 4.39244629 63.74072266 3.3449707 C65 1 65 1 66 0 C68.3756852 -0.0883967 70.72208674 -0.11530305 73.09765625 -0.09765625 C74.16094398 -0.09553383 74.16094398 -0.09553383 75.24571228 -0.09336853 C77.51801712 -0.08775443 79.79022475 -0.07519963 82.0625 -0.0625 C83.59960796 -0.05748681 85.13671745 -0.05292359 86.67382812 -0.04882812 C90.44925642 -0.03778042 94.22461171 -0.02050641 98 0 C96.82795254 3.03326536 95.58743747 5.91793527 94.00390625 8.7578125 C93.61589844 9.45592041 93.22789062 10.15402832 92.828125 10.87329102 C92.41046875 11.61635498 91.9928125 12.35941895 91.5625 13.125 C91.12292969 13.91124756 90.68335938 14.69749512 90.23046875 15.50756836 C86.22600576 22.64617408 82.1451512 29.74039993 78.03125 36.81640625 C77.36778564 37.99046021 77.36778564 37.99046021 76.69091797 39.18823242 C75.35140043 41.41566867 73.9579994 43.50902109 72.46923828 45.6340332 C64.72251069 57.08389632 63.58833573 66.44718276 63.875 80.0625 C63.87694815 81.91211018 63.87436723 83.76173085 63.8671875 85.61132812 C63.85119795 90.07840911 63.92717843 94.53004063 64 99 C54.1 99 44.2 99 34 99 C34.04382813 96.23753906 34.08765625 93.47507812 34.1328125 90.62890625 C34.14124337 87.89133404 34.13242826 85.15430653 34.12207031 82.41674805 C34.1239923 80.54424791 34.14326217 78.67166833 34.18164062 76.79956055 C34.44716618 63.04754934 32.18383395 54.22860574 24.31677246 42.93875122 C22.2811962 39.94166853 20.53188434 36.79941978 18.76953125 33.63671875 C18.10584102 32.47012036 17.44113783 31.30409763 16.77539062 30.13867188 C16.12763672 28.99978516 15.47988281 27.86089844 14.8125 26.6875 C13.48647041 24.35762026 12.15951841 22.02826829 10.83203125 19.69921875 C9.88384521 18.03511963 9.88384521 18.03511963 8.91650391 16.33740234 C6.39787252 11.95145444 3.83257082 7.59399608 1.2565918 3.24145508 C0 1 0 1 0 0 Z " fill="#2F2F39" transform="translate(120,152)"/>
<path d="M0 0 C0 12.21 0 24.42 0 37 C-24.1198939 41.48935552 -48.24286076 45.92999909 -72.4375 50 C-88.70518905 52.7385366 -104.9531658 55.56997947 -121.1875 58.5 C-122.21835724 58.68568542 -123.24921448 58.87137085 -124.31130981 59.06268311 C-134.75279161 60.94427696 -145.19068164 62.8434413 -155.62013245 64.79071045 C-159.72781463 65.55726971 -163.836505 66.31834971 -167.94522095 67.0793457 C-170.81391343 67.61362298 -173.68073618 68.15722089 -176.54760742 68.70117188 C-178.27904918 69.02259331 -180.01057131 69.34358216 -181.7421875 69.6640625 C-182.91656624 69.89139572 -182.91656624 69.89139572 -184.1146698 70.12332153 C-187.76274849 70.78872017 -190.45405542 71.06227222 -194 70 C-192.41251953 69.41605469 -192.41251953 69.41605469 -190.79296875 68.8203125 C-189.25779465 68.25525683 -187.72264026 67.69014761 -186.1875 67.125 C-185.35234863 66.81763916 -184.51719727 66.51027832 -183.65673828 66.19360352 C-178.54297845 64.31004919 -173.43217075 62.41878268 -168.32421875 60.51953125 C-158.02707535 56.69248693 -147.73401548 52.86850733 -137.35888672 49.25756836 C-131.20289823 47.10139084 -125.10268093 44.80207555 -119 42.5 C-111.47983997 39.66375169 -103.94791306 36.88359662 -96.36010742 34.23388672 C-87.82052965 31.24896203 -79.3286803 28.1327912 -70.83056641 25.03222656 C-66.22159591 23.35146692 -61.61072002 21.67595296 -57 20 C-55.16665716 19.33335948 -53.33332383 18.66669279 -51.5 18 C-47.83333333 16.66666667 -44.16666667 15.33333333 -40.5 14 C-39.59088867 13.66935547 -38.68177734 13.33871094 -37.74511719 12.99804688 C-35.92821217 12.33747166 -34.111157 11.67730925 -32.29394531 11.01757812 C-27.45789004 9.2612258 -22.62532663 7.49590936 -17.796875 5.71875 C-16.78496094 5.3475 -15.77304688 4.97625 -14.73046875 4.59375 C-12.77898803 3.87761029 -10.82842794 3.15895565 -8.87890625 2.4375 C-8.00621094 2.1178125 -7.13351563 1.798125 -6.234375 1.46875 C-5.46319336 1.18451172 -4.69201172 0.90027344 -3.89746094 0.60742188 C-2 0 -2 0 0 0 Z " fill="#FFE604" transform="translate(249,50)"/>
<path d="M0 0 C0.33 0.66 0.66 1.32 1 2 C-0.58086048 2.36504603 -2.16483907 2.71660506 -3.75 3.0625 C-4.63171875 3.25972656 -5.5134375 3.45695312 -6.421875 3.66015625 C-8.98679028 3.99825872 -10.57091639 3.81158635 -13 3 C-11.40084119 2.30093058 -9.79544955 1.61610532 -8.1875 0.9375 C-7.29417969 0.55464844 -6.40085937 0.17179687 -5.48046875 -0.22265625 C-3 -1 -3 -1 0 0 Z " fill="#FFEA2D" transform="translate(68,117)"/>
</svg>
