<?xml version="1.0" encoding="UTF-8"?>
<svg version="1.1" xmlns="http://www.w3.org/2000/svg" width="225" height="225">
<path d="M0 0 C74.25 0 148.5 0 225 0 C225 74.25 225 148.5 225 225 C150.75 225 76.5 225 0 225 C0 150.75 0 76.5 0 0 Z " fill="#023973" transform="translate(0,0)"/>
<path d="M0 0 C2.97 0 5.94 0 9 0 C9.32865096 8.97226703 9.57521019 17.94237587 9.72537041 26.91941071 C9.79755353 31.0910574 9.89488737 35.25850547 10.05615234 39.42773438 C10.94320607 62.96160271 9.13782964 76.34380491 -5 96 C5.89 96 16.78 96 28 96 C25.70804688 92.8134375 23.41609375 89.626875 21.0546875 86.34375 C11.22799589 70.76962077 12.35019635 54.77556898 13.03869629 36.97558594 C13.18454237 32.79205197 13.24639697 28.60724302 13.31640625 24.421875 C13.46447679 16.27787474 13.7018389 8.1398849 14 0 C16.97 0 19.94 0 23 0 C22.99254257 0.86871231 22.98508514 1.73742462 22.97740173 2.63246155 C22.91466505 10.88390078 22.89599092 19.13407359 22.92484188 27.38572025 C22.93816822 31.62655225 22.93540741 35.86601243 22.89379883 40.10668945 C22.85414756 44.21174524 22.85947281 48.31465848 22.89392281 52.41973686 C22.89945304 53.97316265 22.88970502 55.52673263 22.86323357 57.0799427 C22.66773773 69.47847759 25.93373105 76.92624879 33 87 C34.18270898 88.91414748 35.35392369 90.83554542 36.50390625 92.76953125 C38.05714369 95.3309077 39.610965 97.89174763 41.17382812 100.44726562 C41.67462891 101.27548828 42.17542969 102.10371094 42.69140625 102.95703125 C43.13685791 103.68897705 43.58230957 104.42092285 44.04125977 105.17504883 C45 107 45 107 45 109 C22.56 109 0.12 109 -23 109 C-18.37182036 100.90068563 -14.73848054 94.62195594 -9.3866272 87.49769592 C1.79436474 71.77049997 0.86479789 55.52553026 0.42486572 37.04425049 C0.34065774 32.85333131 0.33834037 28.66233993 0.328125 24.47070312 C0.2966739 16.31167336 0.17792007 8.15714781 0 0 Z " fill="#F6F8FA" transform="translate(101,99)"/>
<path d="M0 0 C6.93 0 13.86 0 21 0 C20.67 0.66 20.34 1.32 20 2 C21.29099609 1.95697754 22.58199219 1.91395508 23.91210938 1.86962891 C28.72812227 1.72788471 33.54144786 1.67938748 38.359375 1.65820312 C40.43922148 1.6362147 42.51896589 1.58934262 44.59765625 1.51660156 C61.50092882 0.94992097 61.50092882 0.94992097 65.75634766 4.4407959 C68.82869288 8.2284362 70.53187587 12.38557524 72 17 C70.16223999 16.99045288 70.16223999 16.99045288 68.28735352 16.98071289 C63.70776134 16.96619777 59.12941136 16.99777335 54.55004883 17.04272461 C52.57450606 17.05580126 50.59884074 17.05665673 48.62329102 17.04467773 C35.89824811 16.38654936 35.89824811 16.38654936 24.85546875 21.51171875 C24.22697021 22.14198975 23.59847168 22.77226074 22.95092773 23.42163086 C19.12022624 26.52080307 14.45852924 25.92864339 9.75 25.75 C8.78320312 25.7603125 7.81640625 25.770625 6.8203125 25.78125 C2.11817335 25.70352869 -0.21758662 25.64852446 -3.921875 22.578125 C-4.60765625 21.72734375 -5.2934375 20.8765625 -6 20 C-8.80478446 18.28490508 -10.95089282 17.74165013 -14.21777344 17.68115234 C-15.03832214 17.66128265 -15.85887085 17.64141296 -16.70428467 17.62094116 C-17.58046448 17.60938995 -18.45664429 17.59783875 -19.359375 17.5859375 C-20.26375305 17.56657135 -21.1681311 17.5472052 -22.09991455 17.5272522 C-24.98318099 17.46756169 -27.86648758 17.42111314 -30.75 17.375 C-32.70704848 17.33681053 -34.66408033 17.29775823 -36.62109375 17.2578125 C-41.41392711 17.16186875 -46.20683915 17.07779873 -51 17 C-50.04600922 15.20601733 -49.08665974 13.41488345 -48.125 11.625 C-47.59132812 10.62726563 -47.05765625 9.62953125 -46.5078125 8.6015625 C-45 6 -45 6 -43 4 C-41.02229309 3.72584534 -41.02229309 3.72584534 -38.56958008 3.69360352 C-37.65134964 3.67761612 -36.7331192 3.66162872 -35.7870636 3.64515686 C-34.79127792 3.63979416 -33.79549225 3.63443146 -32.76953125 3.62890625 C-31.74574875 3.61987778 -30.72196625 3.6108493 -29.66716003 3.60154724 C-27.4958286 3.58701669 -25.3244531 3.57815107 -23.15307617 3.57446289 C-19.8428255 3.5626086 -16.53446396 3.51348493 -13.22460938 3.46289062 C-11.11459243 3.45342175 -9.00456402 3.44618894 -6.89453125 3.44140625 C-5.41603447 3.41210777 -5.41603447 3.41210777 -3.90766907 3.38221741 C2.70824405 3.42526891 5.99971995 4.62762383 11 9 C13.31 7.02 15.62 5.04 18 3 C16.86820312 2.95101562 15.73640625 2.90203125 14.5703125 2.8515625 C13.08851661 2.77653486 11.606747 2.70098703 10.125 2.625 C9.37863281 2.5940625 8.63226563 2.563125 7.86328125 2.53125 C2.2265625 2.2265625 2.2265625 2.2265625 0 0 Z " fill="#F8FAFB" transform="translate(102,71)"/>
<path d="M0 0 C7.31158658 4.4369457 11.76269716 10.29382916 14.28515625 18.38671875 C14.28515625 22.67671875 14.28515625 26.96671875 14.28515625 31.38671875 C-3.86484375 31.38671875 -22.01484375 31.38671875 -40.71484375 31.38671875 C-40.71484375 12.49718387 -40.71484375 12.49718387 -33.52734375 4.57421875 C-24.13962682 -3.96006937 -11.51737867 -5.33732182 0 0 Z " fill="#FDFDFE" transform="translate(125.71484375,19.61328125)"/>
<path d="M0 0 C3.63 0 7.26 0 11 0 C11.09312106 8.80643336 11.16397667 17.61269443 11.20724869 26.41951466 C11.22802841 30.50991656 11.25616732 34.59997896 11.30175781 38.69018555 C11.34556259 42.64542107 11.3692092 46.60033227 11.37950897 50.55579185 C11.38683881 52.05672999 11.40115047 53.55765254 11.42292023 55.0584507 C11.64594029 71.08647848 7.20132655 82.45679536 -3.421875 94.421875 C-6.08386428 97.08386428 -8.76949936 99.04950905 -12 101 C-16.39158329 99.5361389 -16.87947433 97.02168662 -19 93 C-13.25 88 -13.25 88 -11 88 C-10.731875 87.43023437 -10.46375 86.86046875 -10.1875 86.2734375 C-8.5425908 83.12430213 -6.48546898 80.31193861 -4.4375 77.4140625 C-1.4498149 72.39670002 -0.74466896 67.76487577 -0.68115234 61.98486328 C-0.67110672 61.31099075 -0.6610611 60.63711823 -0.65071106 59.94282532 C-0.62004156 57.73532902 -0.60288977 55.52795307 -0.5859375 53.3203125 C-0.56721273 51.78188045 -0.54763835 50.24345853 -0.5272522 48.70504761 C-0.4760631 44.67083728 -0.43636696 40.63659371 -0.39910889 36.60223389 C-0.358986 32.4795315 -0.30793158 28.35696584 -0.2578125 24.234375 C-0.16120992 16.15634363 -0.07675541 8.07824422 0 0 Z " fill="#F5F7F9" transform="translate(159,92)"/>
<path d="M0 0 C3.63 0 7.26 0 11 0 C10.99920441 0.85031799 10.99840881 1.70063599 10.99758911 2.57672119 C10.99537022 10.63773417 11.02206981 18.69804206 11.0802784 26.75885391 C11.10920224 30.90188696 11.12741326 35.04435986 11.12011719 39.1875 C11.1134712 43.19502076 11.13630328 47.20143981 11.17855453 51.2087326 C11.18959306 52.72829001 11.19047056 54.24796043 11.18042374 55.76752472 C11.11442827 67.22975126 13.33640453 76.12018099 20.4375 85.4375 C23.42423175 88.42423175 26.4880279 90.65868526 30 93 C28.35 95.64 26.7 98.28 25 101 C16.17022466 98.79255616 10.29923259 90.64025989 5.5703125 83.26171875 C0.55585935 72.84612576 -0.55929936 63.3640471 -0.390625 51.953125 C-0.38314451 50.44570678 -0.37746016 48.93827868 -0.37347412 47.43084717 C-0.35835956 43.50488401 -0.31920487 39.57953335 -0.2746582 35.65380859 C-0.2333951 31.63126913 -0.21539755 27.60862858 -0.1953125 23.5859375 C-0.15269285 15.7236804 -0.08461927 7.86191685 0 0 Z " fill="#F4F7F9" transform="translate(55,92)"/>
<path d="M0 0 C3.3 0 6.6 0 10 0 C10.00364563 0.79656006 10.00729126 1.59312012 10.01104736 2.41381836 C10.04902359 9.94626242 10.10598443 17.47821714 10.18390274 25.01034546 C10.22329528 28.88207616 10.25552363 32.75358224 10.27099609 36.62548828 C10.28621752 40.36700741 10.32075837 44.10790865 10.36830902 47.84915161 C10.38306672 49.27152108 10.39103778 50.69397879 10.39188385 52.11642456 C10.4024799 61.00385156 10.5172134 68.05382422 16.73828125 74.91796875 C17.51751953 75.54638672 17.51751953 75.54638672 18.3125 76.1875 C21 79 21 79 21.0625 81.625 C19.96958274 84.06799152 18.73284131 85.96579498 17 88 C8.94087213 84.59036898 4.59729803 78.4335842 0.94680786 70.79670715 C-0.18623756 67.44988637 -0.24016066 64.72329752 -0.22705078 61.19018555 C-0.22748886 60.19422615 -0.22748886 60.19422615 -0.22793579 59.17814636 C-0.2265496 56.99753457 -0.21102239 54.81727038 -0.1953125 52.63671875 C-0.19157983 51.11929003 -0.18873406 49.60185888 -0.18673706 48.08442688 C-0.17912055 44.10103641 -0.15948923 40.11779302 -0.1373291 36.13446045 C-0.11682786 32.065572 -0.10772621 27.99665965 -0.09765625 23.92773438 C-0.07624134 15.9517556 -0.04212949 7.97589613 0 0 Z " fill="#FBFCFD" transform="translate(71,92)"/>
<path d="M0 0 C3.3 0 6.6 0 10 0 C10.06971632 8.46713383 10.12292046 16.93414637 10.15543652 25.40149689 C10.17104788 29.33384895 10.19220249 33.26600367 10.22631836 37.19824219 C10.25907462 40.99783754 10.27688703 44.79724387 10.28463173 48.5969696 C10.29014622 50.04175285 10.30091432 51.48652654 10.31719017 52.93122864 C10.45401957 65.58773503 8.33273385 75.22446821 -0.6171875 84.71484375 C-2.1875 86.125 -2.1875 86.125 -5 88 C-9.02550319 86.6581656 -9.88285636 84.5772427 -12 81 C-12 80.34 -12 79.68 -12 79 C-10.37796342 77.56932728 -8.66056672 76.30888053 -6.921875 75.0234375 C0.01929219 67.71546067 -0.39628961 59.523546 -0.390625 50 C-0.37562316 48.55409918 -0.35889183 47.10821538 -0.34051514 45.66235352 C-0.29705338 41.88127806 -0.2768901 38.10043368 -0.26177979 34.31915283 C-0.24213164 30.45091203 -0.20017068 26.582918 -0.16015625 22.71484375 C-0.08508406 15.14329586 -0.03465422 7.5718523 0 0 Z " fill="#F9FAFC" transform="translate(144,92)"/>
<path d="M0 0 C14.19 0 28.38 0 43 0 C40.44831331 5.10337339 40.44831331 5.10337339 37 7 C32.44783195 7.57711572 27.88487887 7.51511335 23.30102539 7.50097656 C21.07241552 7.50000433 18.84725344 7.54163613 16.61914062 7.5859375 C15.19531964 7.59114529 13.77148675 7.59383268 12.34765625 7.59375 C11.05867432 7.60083984 9.76969238 7.60792969 8.44165039 7.61523438 C4.1554116 6.84902016 2.66088223 5.3742495 0 2 C0 1.34 0 0.68 0 0 Z " fill="#8B9FB8" transform="translate(91,62)"/>
<path d="M0 0 C17.49 0 34.98 0 53 0 C52.67 0.99 52.34 1.98 52 3 C34.84 3 17.68 3 0 3 C0 2.01 0 1.02 0 0 Z " fill="#F6FBFC" transform="translate(86,53)"/>
<path d="M0 0 C16.17 0 32.34 0 49 0 C48.67 0.99 48.34 1.98 48 3 C32.49 3 16.98 3 1 3 C0.67 2.01 0.34 1.02 0 0 Z " fill="#F0F5F7" transform="translate(88,58)"/>
<path d="M0 0 C14.19 0 28.38 0 43 0 C42.67 0.99 42.34 1.98 42 3 C28.47 3 14.94 3 1 3 C0.67 2.01 0.34 1.02 0 0 Z " fill="#D4DEE3" transform="translate(91,62)"/>
<path d="M0 0 C4.29 0 8.58 0 13 0 C13.33 0.66 13.66 1.32 14 2 C13.071875 2.598125 12.14375 3.19625 11.1875 3.8125 C8.76924982 5.47208346 6.98753675 6.91696599 5 9 C4.16094435 7.87926138 3.32892169 6.75325453 2.5 5.625 C2.0359375 4.99851562 1.571875 4.37203125 1.09375 3.7265625 C0 2 0 2 0 0 Z " fill="#184378" transform="translate(107,73)"/>
</svg>
