<?xml version="1.0" encoding="UTF-8"?>
<svg version="1.1" xmlns="http://www.w3.org/2000/svg" width="200" height="200">
<path d="M0 0 C66 0 132 0 200 0 C200 66 200 132 200 200 C134 200 68 200 0 200 C0 134 0 68 0 0 Z " fill="#FEFEFE" transform="translate(0,0)"/>
<path d="M0 0 C4.95 0 9.9 0 15 0 C16.43958261 3.81172502 17.87672241 7.62434185 19.3125 11.4375 C19.91868164 13.04141602 19.91868164 13.04141602 20.53710938 14.67773438 C22.55381959 20.03923227 24.51696761 25.40374814 26.29614258 30.84887695 C27.04680335 33.14304 27.82402225 35.42708802 28.60546875 37.7109375 C29.1328125 39.265625 29.66015625 40.8203125 30.1875 42.375 C30.46013672 43.16777344 30.73277344 43.96054688 31.01367188 44.77734375 C31.27083984 45.53917969 31.52800781 46.30101562 31.79296875 47.0859375 C32.0252417 47.7670459 32.25751465 48.4481543 32.49682617 49.14990234 C33 51 33 51 33 54 C29.37 54 25.74 54 22 54 C19.43515269 48.52055347 18.36369909 44.13664591 17 38 C10.73 38 4.46 38 -2 38 C-2.66 40.97 -3.32 43.94 -4 47 C-4.94280904 49.3570226 -5.92378945 51.70082291 -7 54 C-10.63 54 -14.26 54 -18 54 C-17.43443303 48.35177202 -15.89844009 43.67170647 -13.75 38.4375 C-13.11052319 36.83651829 -12.47251581 35.23494891 -11.8359375 33.6328125 C-11.52237305 32.84680664 -11.20880859 32.06080078 -10.88574219 31.25097656 C-6.84654541 20.98598366 -3.45744328 10.47111395 0 0 Z " fill="#175E93" transform="translate(152,75)"/>
<path d="M0 0 C4.9820457 3.02258002 7.76350635 5.59680949 9.8671875 11.1328125 C10.0546875 14.5078125 10.0546875 14.5078125 9.8671875 17.1328125 C6.2371875 17.1328125 2.6071875 17.1328125 -1.1328125 17.1328125 C-1.3596875 15.8540625 -1.5865625 14.5753125 -1.8203125 13.2578125 C-2.30297796 11.06215463 -2.30297796 11.06215463 -3.1328125 9.1328125 C-5.53414024 7.58792933 -5.53414024 7.58792933 -8.1328125 7.1328125 C-8.7928125 6.8028125 -9.4528125 6.4728125 -10.1328125 6.1328125 C-15.14635161 5.75443219 -18.13763365 6.00145611 -22.1328125 9.1328125 C-27.5310399 15.13084294 -27.55978569 20.51677945 -27.4140625 28.3125 C-27.05030585 33.25352782 -26.03158293 37.09152994 -23.1328125 41.1328125 C-19.76079185 43.97240884 -16.52598374 44.95708565 -12.1328125 45.1328125 C-8.43347944 44.17608843 -5.98279969 43.39906908 -3.80078125 40.1484375 C-2.81700627 38.18784001 -1.96466616 36.16253544 -1.1328125 34.1328125 C2.4971875 34.1328125 6.1271875 34.1328125 9.8671875 34.1328125 C9.60010199 40.54286474 7.43194846 44.60740292 2.8671875 49.1328125 C-4.17906833 53.92206451 -11.76952971 54.86689375 -20.1328125 54.1328125 C-27.62688759 51.63478747 -33.29506493 48.14662703 -37.1328125 41.1328125 C-40.81661892 33.32251048 -41.50688554 24.71449902 -39.44140625 16.32421875 C-36.67093375 8.70831736 -32.60872729 3.27919013 -25.5703125 -0.8046875 C-17.22043665 -4.602372 -8.09607657 -4.24080201 0 0 Z " fill="#216192" transform="translate(74.1328125,76.8671875)"/>
<path d="M0 0 C3.63 0 7.26 0 11 0 C11 15.18 11 30.36 11 46 C20.24 46 29.48 46 39 46 C39 48.64 39 51.28 39 54 C26.13 54 13.26 54 0 54 C0 36.18 0 18.36 0 0 Z " fill="#145C93" transform="translate(93,75)"/>
<path d="M0 0 C3.3 0 6.6 0 10 0 C10 17.82 10 35.64 10 54 C6.7 54 3.4 54 0 54 C0 36.18 0 18.36 0 0 Z " fill="#155B92" transform="translate(16,75)"/>
<path d="M0 0 C2 1 2 1 3.2890625 4.4921875 C3.74233968 5.95067349 4.18730138 7.41176334 4.625 8.875 C4.96917969 9.97521484 4.96917969 9.97521484 5.3203125 11.09765625 C6.25673494 14.157751 7 16.78239228 7 20 C2.71 20 -1.58 20 -6 20 C-6 20.66 -6 21.32 -6 22 C-5.01 22.33 -4.02 22.66 -3 23 C-3 24.32 -3 25.64 -3 27 C0.96 27 4.92 27 9 27 C9 27.33 9 27.66 9 28 C3.06 28 -2.88 28 -9 28 C-9.268125 29.340625 -9.53625 30.68125 -9.8125 32.0625 C-10.7527106 36.33741436 -12.14738011 40.04213024 -14 44 C-17.63 44 -21.26 44 -25 44 C-24.43288752 38.22924731 -22.8106034 33.41361576 -20.625 28.0625 C-20.01257344 26.53273112 -19.40059106 25.00278433 -18.7890625 23.47265625 C-18.49161133 22.73418457 -18.19416016 21.99571289 -17.88769531 21.23486328 C-16.54006986 17.84207907 -15.26941143 14.42273819 -14 11 C-13.01 12.485 -13.01 12.485 -12 14 C-12.33 14.33 -12.66 14.66 -13 15 C-12.34 15.33 -11.68 15.66 -11 16 C-11 16.99 -11 17.98 -11 19 C-9.35 19 -7.7 19 -6 19 C-5.81824219 18.29875 -5.63648438 17.5975 -5.44921875 16.875 C-3.92000933 11.10321471 -2.19945637 5.55100893 0 0 Z " fill="#1F6193" transform="translate(159,85)"/>
<path d="M0 0 C0.33 0 0.66 0 1 0 C1 15.18 1 30.36 1 46 C9.51142445 46.28929375 9.51142445 46.28929375 18.02319336 46.56811523 C19.07643799 46.60622314 20.12968262 46.64433105 21.21484375 46.68359375 C22.84087524 46.73858032 22.84087524 46.73858032 24.49975586 46.79467773 C27 47 27 47 28 48 C28 49.65 28 51.3 28 53 C16.12 53 4.24 53 -8 53 C-7.67 47.72 -7.34 42.44 -7 37 C-6.67 37 -6.34 37 -6 37 C-5.87625 38.134375 -5.7525 39.26875 -5.625 40.4375 C-5.41875 41.613125 -5.2125 42.78875 -5 44 C-4.34 44.33 -3.68 44.66 -3 45 C-3 42.36 -3 39.72 -3 37 C-2.34 37 -1.68 37 -1 37 C-0.67 24.79 -0.34 12.58 0 0 Z " fill="#1F669B" transform="translate(103,75)"/>
<path d="M0 0 C1.7634375 -0.01160156 1.7634375 -0.01160156 3.5625 -0.0234375 C7.29690722 0.40941425 9.7629657 1.50975768 13 3.375 C9.94736336 4.35620464 8.05263664 4.35620464 5 3.375 C5 2.715 5 2.055 5 1.375 C3.02 1.705 1.04 2.035 -1 2.375 C0.65 3.035 2.3 3.695 4 4.375 C3.67 5.365 3.34 6.355 3 7.375 C2.20335938 7.43816406 1.40671875 7.50132813 0.5859375 7.56640625 C-6.87713479 8.33911215 -6.87713479 8.33911215 -12.625 12.75 C-14.37810954 15.16185373 -15.71064644 17.6898325 -17 20.375 C-17.66 19.715 -18.32 19.055 -19 18.375 C-18.625 15.75 -18.625 15.75 -18 13.375 C-18.66 13.375 -19.32 13.375 -20 13.375 C-19.875 10.625 -19.875 10.625 -19 7.375 C-16.3125 5.1875 -16.3125 5.1875 -13 3.375 C-12.08605469 2.85035156 -11.17210937 2.32570313 -10.23046875 1.78515625 C-6.57116684 0.18780681 -3.97682924 -0.02616335 0 0 Z " fill="#175C91" transform="translate(63,74.625)"/>
<path d="M0 0 C0.33 0 0.66 0 1 0 C1 17.82 1 35.64 1 54 C4.3 54 7.6 54 11 54 C11 36.18 11 18.36 11 0 C11.33 0 11.66 0 12 0 C12.76252659 3.38660192 13.12267782 6.50510571 13.11352539 9.97387695 C13.11344986 10.93449539 13.11337433 11.89511383 13.11329651 12.88484192 C13.10813522 13.9089769 13.10297394 14.93311188 13.09765625 15.98828125 C13.0962413 17.04661667 13.09482635 18.10495209 13.09336853 19.19535828 C13.08778159 22.56776789 13.07523144 25.94011054 13.0625 29.3125 C13.05748331 31.60221258 13.0529207 33.89192621 13.04882812 36.18164062 C13.03781643 41.78778317 13.02109126 47.3938868 13 53 C13.66 53.33 14.32 53.66 15 54 C11.60750652 56.26166232 10.34798499 56.24515545 6.375 56.1875 C5.39273437 56.18105469 4.41046875 56.17460937 3.3984375 56.16796875 C1 56 1 56 0 55 C-0.0935919 53.28134591 -0.11744611 51.55884256 -0.11352539 49.83764648 C-0.11344986 48.73658066 -0.11337433 47.63551483 -0.11329651 46.50108337 C-0.10813522 45.3031868 -0.10297394 44.10529022 -0.09765625 42.87109375 C-0.0962413 41.65172623 -0.09482635 40.4323587 -0.09336853 39.17604065 C-0.08774967 35.2631693 -0.07519396 31.35035419 -0.0625 27.4375 C-0.05748743 24.79231853 -0.0529241 22.14713617 -0.04882812 19.50195312 C-0.03777411 13.00128274 -0.02101764 6.50064539 0 0 Z " fill="#B6CCDD" transform="translate(15,75)"/>
<path d="M0 0 C3.3 0 6.6 0 10 0 C10 14.85 10 29.7 10 45 C9.67 45 9.34 45 9 45 C9 30.48 9 15.96 9 1 C6.69 1.66 4.38 2.32 2 3 C1.67 19.5 1.34 36 1 53 C13.21 53 25.42 53 38 53 C37.67 51.35 37.34 49.7 37 48 C31.06 47.67 25.12 47.34 19 47 C19 46.67 19 46.34 19 46 C25.6 46 32.2 46 39 46 C39 48.64 39 51.28 39 54 C26.13 54 13.26 54 0 54 C0 36.18 0 18.36 0 0 Z " fill="#215882" transform="translate(93,75)"/>
<path d="M0 0 C0.99 0.66 1.98 1.32 3 2 C3 2.66 3 3.32 3 4 C3.66 4 4.32 4 5 4 C5.05459773 5.56210161 5.09306101 7.12477089 5.125 8.6875 C5.14820313 9.55761719 5.17140625 10.42773438 5.1953125 11.32421875 C5 14 5 14 3 19 C-0.63 19 -4.26 19 -8 19 C-7.25 12.375 -7.25 12.375 -5 9 C-4.34 9 -3.68 9 -3 9 C-3 8.34 -3 7.68 -3 7 C-2.01 6.34 -1.02 5.68 0 5 C0.25030977 2.41619823 0.25030977 2.41619823 0 0 Z " fill="#125B91" transform="translate(142,110)"/>
<path d="M0 0 C2 1 2 1 3.2890625 4.4921875 C3.74233968 5.95067349 4.18730138 7.41176334 4.625 8.875 C4.85445312 9.60847656 5.08390625 10.34195313 5.3203125 11.09765625 C6.25673494 14.157751 7 16.78239228 7 20 C2.71 20 -1.58 20 -6 20 C-2.28571429 2.28571429 -2.28571429 2.28571429 0 0 Z " fill="#CCE4EC" transform="translate(159,85)"/>
<path d="M0 0 C9.57 0 19.14 0 29 0 C29.495 4.455 29.495 4.455 30 9 C33.63 9 37.26 9 41 9 C41 9.66 41 10.32 41 11 C23.84 11 6.68 11 -11 11 C-11 10.34 -11 9.68 -11 9 C1.87 9 14.74 9 28 9 C28 6.36 28 3.72 28 1 C18.76 1 9.52 1 0 1 C0 0.67 0 0.34 0 0 Z " fill="#AFCFE1" transform="translate(104,120)"/>
<path d="M0 0 C4.95 0 9.9 0 15 0 C20 12.625 20 12.625 20 16 C19.34 16 18.68 16 18 16 C17.87625 15.195625 17.7525 14.39125 17.625 13.5625 C17.41875 12.716875 17.2125 11.87125 17 11 C16.34 10.67 15.68 10.34 15 10 C14.67 10.66 14.34 11.32 14 12 C14 9.66666667 14 7.33333333 14 5 C14.0810206 7.10353495 14.13919907 9.20795952 14.1875 11.3125 C14.22230469 12.48425781 14.25710937 13.65601562 14.29296875 14.86328125 C14 18 14 18 11 21 C10.01 17.7 9.02 14.4 8 11 C7.34 11 6.68 11 6 11 C5.67 9.68 5.34 8.36 5 7 C5.66 7 6.32 7 7 7 C7 7.66 7 8.32 7 9 C8.32 8.34 9.64 7.68 11 7 C11 5.02 11 3.04 11 1 C8.69 1.33 6.38 1.66 4 2 C3.67 2.99 3.34 3.98 3 5 C2.34 5 1.68 5 1 5 C0.67 6.65 0.34 8.3 0 10 C-0.99 10.33 -1.98 10.66 -3 11 C-2.01 7.37 -1.02 3.74 0 0 Z " fill="#286492" transform="translate(152,75)"/>
<path d="M0 0 C0.66 0 1.32 0 2 0 C1.979375 0.763125 1.95875 1.52625 1.9375 2.3125 C1.87057159 5.10185786 1.87057159 5.10185786 3 8 C3.66 8 4.32 8 5 8 C5.22197585 10.10277123 5.42713637 12.20732302 5.625 14.3125 C5.74101563 15.48425781 5.85703125 16.65601563 5.9765625 17.86328125 C6 21 6 21 4 24 C4 23.01 4 22.02 4 21 C2.68 21 1.36 21 0 21 C-0.66 21.66 -1.32 22.32 -2 23 C-4.15251883 16.5424435 -3.46315409 8.5841934 -2 2 C-1.34 2 -0.68 2 0 2 C0 1.34 0 0.68 0 0 Z " fill="#115C95" transform="translate(39,88)"/>
<path d="M0 0 C0.70253906 0.00515625 1.40507813 0.0103125 2.12890625 0.015625 C5.50353006 0.06665901 8.6484506 0.2134919 11.875 1.25 C11.875 1.91 11.875 2.57 11.875 3.25 C9.895 3.58 7.915 3.91 5.875 4.25 C6.205 5.24 6.535 6.23 6.875 7.25 C5.43859829 7.44573608 4.00080496 7.63127816 2.5625 7.8125 C1.76199219 7.91691406 0.96148437 8.02132812 0.13671875 8.12890625 C-2.125 8.25 -2.125 8.25 -5.125 7.25 C-5.125 6.59 -5.125 5.93 -5.125 5.25 C-7.765 5.58 -10.405 5.91 -13.125 6.25 C-13.455 5.26 -13.785 4.27 -14.125 3.25 C-9.35514947 0.40902319 -5.44073873 -0.16150616 0 0 Z " fill="#155A90" transform="translate(60.125,121.75)"/>
<path d="M0 0 C0.66 0 1.32 0 2 0 C2 18.15 2 36.3 2 55 C1.34 55 0.68 55 0 55 C-0.16813088 47.64948343 -0.328039 40.29882126 -0.48217773 32.94799805 C-0.53561207 30.44632904 -0.59094252 27.94469981 -0.64819336 25.44311523 C-0.73006397 21.85148697 -0.80515863 18.25977183 -0.87890625 14.66796875 C-0.90594131 13.54601608 -0.93297638 12.42406342 -0.96083069 11.26811218 C-0.98092697 10.22725967 -1.00102325 9.18640717 -1.02172852 8.11401367 C-1.04171402 7.19690109 -1.06169952 6.27978851 -1.08229065 5.33488464 C-1 3 -1 3 0 0 Z " fill="#D4EBF8" transform="translate(91,75)"/>
<path d="M0 0 C6.27 0 12.54 0 19 0 C21.475 7.425 21.475 7.425 24 15 C29.445 15.495 29.445 15.495 35 16 C34.505 13.525 34.505 13.525 34 11 C34.66 11.33 35.32 11.66 36 12 C36 13.65 36 15.3 36 17 C33.87506859 17.02693575 31.75004088 17.04636628 29.625 17.0625 C27.84996094 17.07990234 27.84996094 17.07990234 26.0390625 17.09765625 C23 17 23 17 21 16 C18.63213724 11.54284657 18.44302021 6.94705905 18 2 C10.08 2.495 10.08 2.495 2 3 C-0.475 8.94 -0.475 8.94 -3 15 C-3.66 15 -4.32 15 -5 15 C-4.54464901 13.43662827 -4.08557224 11.87434151 -3.625 10.3125 C-3.36976563 9.44238281 -3.11453125 8.57226562 -2.8515625 7.67578125 C-2.02382686 5.07486881 -1.01369191 2.53422977 0 0 Z " fill="#D2E9F3" transform="translate(150,113)"/>
<path d="M0 0 C2.31005869 2.31005869 2.72174103 3.83083657 3.625 6.9375 C3.88539063 7.81277344 4.14578125 8.68804687 4.4140625 9.58984375 C5 12 5 12 5 15 C1.37 15 -2.26 15 -6 15 C-6.99 12.03 -7.98 9.06 -9 6 C-6.69 6.33 -4.38 6.66 -2 7 C-1.34 4.69 -0.68 2.38 0 0 Z " fill="#1C5D8F" transform="translate(180,114)"/>
<path d="M0 0 C2.31 0 4.62 0 7 0 C7.625 2.8125 7.625 2.8125 8 6 C7.01 7.485 7.01 7.485 6 9 C5.01 8.67 4.02 8.34 3 8 C3 7.34 3 6.68 3 6 C2.34 6 1.68 6 1 6 C1.33 7.98 1.66 9.96 2 12 C0.68 12 -0.64 12 -2 12 C-2 13.32 -2 14.64 -2 16 C-2.66 16 -3.32 16 -4 16 C-4.02712066 14.56260487 -4.04645067 13.12506137 -4.0625 11.6875 C-4.07410156 10.88699219 -4.08570313 10.08648437 -4.09765625 9.26171875 C-4 7 -4 7 -3 4 C-2.34 4 -1.68 4 -1 4 C-0.67 2.68 -0.34 1.36 0 0 Z " fill="#115C98" transform="translate(156,76)"/>
<path d="M0 0 C1.125 3.75 1.125 3.75 0 6 C0.66 6.33 1.32 6.66 2 7 C1.67 8.65 1.34 10.3 1 12 C-7.8346607 15.15792127 -16.07004957 16.75997913 -25 13 C-22 11 -22 11 -18 11 C-18 11.66 -18 12.32 -18 13 C-12.42169984 13.12469099 -12.42169984 13.12469099 -7 12 C-7 11.34 -7 10.68 -7 10 C-5.02 9.67 -3.04 9.34 -1 9 C-1 8.34 -1 7.68 -1 7 C-4.3 7 -7.6 7 -11 7 C-8.80982632 5.53988421 -6.66442255 4.21860241 -4.375 2.9375 C-1.25421565 1.34128067 -1.25421565 1.34128067 0 0 Z " fill="#246593" transform="translate(73,116)"/>
<path d="M0 0 C0.66 0 1.32 0 2 0 C1.54965877 1.62723299 1.08944646 3.25173664 0.625 4.875 C0.24214844 6.23238281 0.24214844 6.23238281 -0.1484375 7.6171875 C-1 10 -1 10 -3 12 C-3 9.69 -3 7.38 -3 5 C-9.93 5 -16.86 5 -24 5 C-23.67 4.34 -23.34 3.68 -23 3 C-15.41 3 -7.82 3 0 3 C0 2.01 0 1.02 0 0 Z " fill="#F0FCFD" transform="translate(136,115)"/>
<path d="M0 0 C0.33 0 0.66 0 1 0 C1 5.94 1 11.88 1 18 C2.65 18.33 4.3 18.66 6 19 C5.1654738 21.50357861 4.20628008 23.66785852 3 26 C2.01 25.67 1.02 25.34 0 25 C-1.85726598 20.79019711 -2.27175468 17.06848182 -2.25 12.5 C-2.25515625 11.4171875 -2.2603125 10.334375 -2.265625 9.21875 C-1.98879794 5.86425744 -1.19052385 3.13693587 0 0 Z " fill="#376D95" transform="translate(36,90)"/>
<path d="M0 0 C1.98 0 3.96 0 6 0 C7.49821059 3.37097383 8 5.20442119 8 9 C9.32 9.66 10.64 10.32 12 11 C8.7 11 5.4 11 2 11 C2 8.36 2 5.72 2 3 C1.01 2.67 0.02 2.34 -1 2 C-0.67 1.34 -0.34 0.68 0 0 Z " fill="#125C96" transform="translate(72,82)"/>
<path d="M0 0 C0 0.66 0 1.32 0 2 C0.66 2.33 1.32 2.66 2 3 C-2.95 3 -7.9 3 -13 3 C-13.28875 4.4025 -13.5775 5.805 -13.875 7.25 C-14.53723627 10.46657616 -15.42445965 13.11371599 -17 16 C-17.24921564 11.76333406 -17.39430816 8.09014608 -15.9375 4.0625 C-11.694437 -0.454309 -5.84419626 -0.23853862 0 0 Z " fill="#E0F2F9" transform="translate(165,72)"/>
<path d="M0 0 C2.5489287 1.27446435 2.80641644 2.46363493 4 5 C4.99 6.485 4.99 6.485 6 8 C6 8.99 6 9.98 6 11 C3.69 11 1.38 11 -1 11 C-2.38550197 8.22899606 -2.1877467 6.0665294 -2 3 C-1.34 2.01 -0.68 1.02 0 0 Z " fill="#F7FBFA" transform="translate(159,93)"/>
<path d="M0 0 C0.99 0.33 1.98 0.66 3 1 C3.99 0.67 4.98 0.34 6 0 C6 0.99 6 1.98 6 3 C6.66 3.33 7.32 3.66 8 4 C8.40729228 6.32156597 8.74438677 8.6568787 9 11 C11.97 11.33 14.94 11.66 18 12 C18 12.33 18 12.66 18 13 C14.37 13 10.74 13 7 13 C6.6596875 11.081875 6.6596875 11.081875 6.3125 9.125 C5.8306008 6.92647455 5.8306008 6.92647455 5 5 C2.58500543 3.53335352 2.58500543 3.53335352 0 3 C-0.66 2.34 -1.32 1.68 -2 1 C-1.34 0.67 -0.68 0.34 0 0 Z " fill="#487699" transform="translate(66,81)"/>
<path d="M0 0 C0.66 0 1.32 0 2 0 C2.33 0.99 2.66 1.98 3 3 C1.5625 5.6875 1.5625 5.6875 0 8 C2.31 8 4.62 8 7 8 C7.33 6.02 7.66 4.04 8 2 C8.99 2 9.98 2 11 2 C10.34 4.31 9.68 6.62 9 9 C5.37 9 1.74 9 -2 9 C-1.125 2.25 -1.125 2.25 0 0 Z " fill="#245F8B" transform="translate(136,120)"/>
<path d="M0 0 C1.32 0.33 2.64 0.66 4 1 C4.39253254 5.44870215 3.15305957 8.14243493 1 12 C0.01 12 -0.98 12 -2 12 C-2 7.56486311 -1.13764351 4.26616316 0 0 Z " fill="#135E99" transform="translate(75,112)"/>
<path d="M0 0 C5.73401535 5.43222506 5.73401535 5.43222506 7 9 C7 10.32 7 11.64 7 13 C5.02 13 3.04 13 1 13 C1.66 12.67 2.32 12.34 3 12 C3 10.68 3 9.36 3 8 C2.34 7.67 1.68 7.34 1 7 C0.59270772 4.67843403 0.25561323 2.3431213 0 0 Z " fill="#2D6B95" transform="translate(77,79)"/>
<path d="M0 0 C0 0.33 0 0.66 0 1 C-0.72445312 1.03738281 -1.44890625 1.07476562 -2.1953125 1.11328125 C-8.80149857 1.5625019 -14.11007397 2.11007397 -19 7 C-20.98821313 7.39764263 -22.98944339 7.73775349 -25 8 C-17.45834248 -0.45579782 -10.78903798 -0.43805117 0 0 Z " fill="#4A7BA0" transform="translate(67,74)"/>
<path d="M0 0 C0.33 0 0.66 0 1 0 C1.33 2.97 1.66 5.94 2 9 C4.31 9 6.62 9 9 9 C9.33 8.34 9.66 7.68 10 7 C10 7.99 10 8.98 10 10 C5.71 10 1.42 10 -3 10 C-1.125 1.125 -1.125 1.125 0 0 Z " fill="#B7D5E6" transform="translate(156,95)"/>
<path d="M0 0 C0 0.66 0 1.32 0 2 C-1.98 2.33 -3.96 2.66 -6 3 C-5.67 3.99 -5.34 4.98 -5 6 C-7.3125 6.25 -7.3125 6.25 -10 6 C-11.8125 4 -11.8125 4 -13 2 C-4.57142857 -0.28571429 -4.57142857 -0.28571429 0 0 Z " fill="#115F9C" transform="translate(72,123)"/>
<path d="M0 0 C-0.99 0.495 -0.99 0.495 -2 1 C-2 3.31 -2 5.62 -2 8 C-2.99 8.495 -2.99 8.495 -4 9 C-3.67 6.69 -3.34 4.38 -3 2 C-6.63 2 -10.26 2 -14 2 C-8.95585048 -1.36276635 -5.96798004 -1.03291962 0 0 Z " fill="#E0F4FB" transform="translate(87,109)"/>
<path d="M0 0 C-0.61488281 0.39832031 -1.22976562 0.79664062 -1.86328125 1.20703125 C-2.67152344 1.73683594 -3.47976562 2.26664062 -4.3125 2.8125 C-5.11300781 3.33457031 -5.91351563 3.85664062 -6.73828125 4.39453125 C-8.7237402 5.80389849 -10.3491852 7.22096657 -12 9 C-12.66 7.35 -13.32 5.7 -14 4 C-12.23494565 3.13395466 -10.46271926 2.28251358 -8.6875 1.4375 C-7.70136719 0.96183594 -6.71523438 0.48617187 -5.69921875 -0.00390625 C-3 -1 -3 -1 0 0 Z " fill="#E1F2F7" transform="translate(51,76)"/>
<path d="M0 0 C1.32 0.66 2.64 1.32 4 2 C3.67 2.99 3.34 3.98 3 5 C2.34 5 1.68 5 1 5 C0.67 6.65 0.34 8.3 0 10 C-0.99 10.33 -1.98 10.66 -3 11 C-2.01 7.37 -1.02 3.74 0 0 Z " fill="#356D94" transform="translate(152,75)"/>
<path d="M0 0 C0.33 0.66 0.66 1.32 1 2 C1.66 2 2.32 2 3 2 C2.67 3.32 2.34 4.64 2 6 C1.01 5.67 0.02 5.34 -1 5 C-1 5.66 -1 6.32 -1 7 C-1.99 7.33 -2.98 7.66 -4 8 C-3.6875 5.125 -3.6875 5.125 -3 2 C-2.01 1.34 -1.02 0.68 0 0 Z " fill="#105E9A" transform="translate(47,80)"/>
<path d="M0 0 C0 0.66 0 1.32 0 2 C2.97 2.33 5.94 2.66 9 3 C9 3.33 9 3.66 9 4 C3.26157749 4.20413361 -1.60539047 4.27141454 -7 2 C-4 0 -4 0 0 0 Z " fill="#487B9E" transform="translate(55,127)"/>
<path d="M0 0 C4.26086957 6.39130435 4.26086957 6.39130435 3.625 10.3125 C3.41875 10.869375 3.2125 11.42625 3 12 C0.9375 10.5 0.9375 10.5 -1 8 C-1.05928384 5.17593353 -0.55954815 2.79774073 0 0 Z " fill="#35709B" transform="translate(172,91)"/>
<path d="M0 0 C2.61020066 2.61020066 2.63751674 4.37516738 3 8 C2.5625 10.375 2.5625 10.375 2 12 C1.34 12 0.68 12 0 12 C-0.92844389 7.66726186 -0.92844389 4.33273814 0 0 Z " fill="#21679D" transform="translate(180,114)"/>
<path d="M0 0 C2.64 0.99 5.28 1.98 8 3 C5.82749655 3.54312586 3.64492395 4.06062274 1.4375 4.4375 C-1.238632 4.90385426 -1.238632 4.90385426 -4 7 C-4.99 7 -5.98 7 -7 7 C-4.375 3.125 -4.375 3.125 -1 2 C-0.67 1.34 -0.34 0.68 0 0 Z " fill="#3A729F" transform="translate(51,119)"/>
<path d="M0 0 C1.32 0.66 2.64 1.32 4 2 C3.01 2.495 3.01 2.495 2 3 C1.27840576 4.64363134 0.60648579 6.31050386 0 8 C-0.66 7.34 -1.32 6.68 -2 6 C-2.99 6.33 -3.98 6.66 -5 7 C-3.70700306 4.11562221 -2.34058637 2.12780579 0 0 Z " fill="#E4EFF3" transform="translate(54,83)"/>
<path d="M0 0 C3.63 0 7.26 0 11 0 C11.33 0.66 11.66 1.32 12 2 C5.565 2.495 5.565 2.495 -1 3 C-0.67 2.01 -0.34 1.02 0 0 Z " fill="#1C5A87" transform="translate(153,105)"/>
<path d="M0 0 C2.97 0 5.94 0 9 0 C9 0.66 9 1.32 9 2 C10.32 2.33 11.64 2.66 13 3 C11.68 3 10.36 3 9 3 C9 3.66 9 4.32 9 5 C5.818202 3.93940067 2.9826906 2.52448631 0 1 C0 0.67 0 0.34 0 0 Z " fill="#115F98" transform="translate(59,76)"/>
<path d="M0 0 C1.485 0.99 1.485 0.99 3 2 C3 2.66 3 3.32 3 4 C3.66 4.33 4.32 4.66 5 5 C4.67 5.66 4.34 6.32 4 7 C3.01 7 2.02 7 1 7 C0.67 4.69 0.34 2.38 0 0 Z M-1 6 C-0.34 6.33 0.32 6.66 1 7 C0.67 7.99 0.34 8.98 0 10 C-0.66 10 -1.32 10 -2 10 C-1.67 8.68 -1.34 7.36 -1 6 Z " fill="#13609C" transform="translate(142,110)"/>
<path d="M0 0 C5.28 0.66 10.56 1.32 16 2 C16 2.33 16 2.66 16 3 C14.08496326 3.22281874 12.16783494 3.42771076 10.25 3.625 C9.18265625 3.74101562 8.1153125 3.85703125 7.015625 3.9765625 C3.96207601 4.00029475 2.53837579 3.61420985 0 2 C0 1.34 0 0.68 0 0 Z " fill="#E8FAFC" transform="translate(48,129)"/>
<path d="M0 0 C0.66 0.33 1.32 0.66 2 1 C0.55746343 4.36591866 -1.33264727 6.51047079 -4 9 C-3.47731534 6.23723823 -2.89130413 3.6739124 -2 1 C-1.34 0.67 -0.68 0.34 0 0 Z " fill="#2E6995" transform="translate(52,81)"/>
<path d="M0 0 C3.63 0.33 7.26 0.66 11 1 C11 1.33 11 1.66 11 2 C8.03 2 5.06 2 2 2 C2 2.99 2 3.98 2 5 C1.34 5 0.68 5 0 5 C0 3.35 0 1.7 0 0 Z " fill="#0B5992" transform="translate(156,107)"/>
<path d="M0 0 C1.33617352 0.97528737 2.6688751 1.95533319 4 2.9375 C4.7425 3.48277344 5.485 4.02804688 6.25 4.58984375 C6.8275 5.05519531 7.405 5.52054687 8 6 C8 6.33 8 6.66 8 7 C6.02 7 4.04 7 2 7 C1.34 4.69 0.68 2.38 0 0 Z " fill="#DAEBEF" transform="translate(39,121)"/>
<path d="M0 0 C0.33 0.66 0.66 1.32 1 2 C1.66 2 2.32 2 3 2 C3 2.66 3 3.32 3 4 C3.66 4 4.32 4 5 4 C5.33 5.32 5.66 6.64 6 8 C2.17053157 6.54744301 0.87949705 4.57104439 -1 1 C-0.67 0.67 -0.34 0.34 0 0 Z " fill="#DDEEF7" transform="translate(49,113)"/>
<path d="M0 0 C0.99 0.33 1.98 0.66 3 1 C3.99 0.67 4.98 0.34 6 0 C5.67 1.65 5.34 3.3 5 5 C2.08482708 3.92598892 0.22189824 3.22189824 -2 1 C-1.34 0.67 -0.68 0.34 0 0 Z " fill="#37739F" transform="translate(66,81)"/>
<path d="M0 0 C0.66 0.99 1.32 1.98 2 3 C1.67 3.33 1.34 3.66 1 4 C1.40929986 6.05396726 1.40929986 6.05396726 2 8 C1.01 8 0.02 8 -1 8 C-1.93065133 5.39417629 -2.14917407 4.35801776 -1.0625 1.75 C-0.711875 1.1725 -0.36125 0.595 0 0 Z " fill="#38739B" transform="translate(145,96)"/>
<path d="M0 0 C2.35171131 0.59861742 4.6859378 1.26924352 7 2 C7.33 2.66 7.66 3.32 8 4 C5.36 3.67 2.72 3.34 0 3 C0 2.01 0 1.02 0 0 Z " fill="#30688D" transform="translate(68,75)"/>
<path d="M0 0 C0.99 0 1.98 0 3 0 C3.625 2.875 3.625 2.875 4 6 C3.34 6.66 2.68 7.32 2 8 C1.34 5.36 0.68 2.72 0 0 Z " fill="#3E7297" transform="translate(171,120)"/>
<path d="M0 0 C0.66 0 1.32 0 2 0 C2.33 0.99 2.66 1.98 3 3 C1.35 4.32 -0.3 5.64 -2 7 C-1.34 4.69 -0.68 2.38 0 0 Z " fill="#38739D" transform="translate(136,120)"/>
<path d="M0 0 C1.0326802 2.78823655 1.04509293 3.8677274 0.0625 6.75 C-0.288125 7.4925 -0.63875 8.235 -1 9 C-1.33 9 -1.66 9 -2 9 C-2.125 5.625 -2.125 5.625 -2 2 C-1.34 1.34 -0.68 0.68 0 0 Z " fill="#396B92" transform="translate(83,111)"/>
<path d="M0 0 C0.66 0.33 1.32 0.66 2 1 C1.01 3.97 0.02 6.94 -1 10 C-2.06546953 6.8035914 -2.07427838 4.34252724 -2 1 C-1.34 0.67 -0.68 0.34 0 0 Z " fill="#DFF1F7" transform="translate(143,96)"/>
<path d="M0 0 C1.32 0 2.64 0 4 0 C3.34 2.64 2.68 5.28 2 8 C1.67 8 1.34 8 1 8 C0.67 5.36 0.34 2.72 0 0 Z " fill="#24608A" transform="translate(154,88)"/>
</svg>
