<?xml version="1.0" encoding="UTF-8"?>
<svg version="1.1" xmlns="http://www.w3.org/2000/svg" width="200" height="200">
<path d="M0 0 C66 0 132 0 200 0 C200 66 200 132 200 200 C134 200 68 200 0 200 C0 134 0 68 0 0 Z " fill="#CC0101" transform="translate(0,0)"/>
<path d="M0 0 C0.84973389 0.12600586 1.69946777 0.25201172 2.57495117 0.38183594 C8.72448345 1.37808377 8.72448345 1.37808377 10.73464966 2.61734009 C14.19179712 4.07471178 17.67586206 4.09314609 21.375 4.25 C22.12007813 4.28867188 22.86515625 4.32734375 23.6328125 4.3671875 C25.4631524 4.46105108 27.29404143 4.54409718 29.125 4.625 C29.17145256 14.00483555 29.20693466 23.38463117 29.22862434 32.76455688 C29.23903716 37.12058593 29.25315043 41.47653595 29.27587891 45.83251953 C29.29769681 50.04058605 29.30958742 54.24857681 29.31475449 58.45669556 C29.31843423 60.05776155 29.32561969 61.65882366 29.33646011 63.25985718 C29.35109425 65.51186914 29.35297302 67.76357273 29.35205078 70.015625 C29.356492 71.29469727 29.36093323 72.57376953 29.36550903 73.89160156 C28.58791844 85.96206499 23.25271057 96.56832087 14.40234375 104.7265625 C2.53511033 114.61931626 -11.70524917 117.5221358 -26.875 116.625 C-40.89889211 114.31196844 -52.74199016 106.94787779 -61.1875 95.5 C-68.23535056 83.63442624 -69.60324945 72.07049302 -69.36328125 58.62890625 C-69.35392417 57.0585189 -69.34682181 55.48811668 -69.34184265 53.91770935 C-69.32299969 49.83875267 -69.27410444 45.76072524 -69.21832275 41.68212891 C-69.16663131 37.49850018 -69.14422356 33.31471726 -69.11914062 29.13085938 C-69.06595531 20.96177129 -68.97821519 12.79360924 -68.875 4.625 C-62.605 4.625 -56.335 4.625 -49.875 4.625 C-49.875 3.965 -49.875 3.305 -49.875 2.625 C-47.6881784 2.14274669 -45.50050745 1.66434417 -43.3125 1.1875 C-41.48525391 0.78724609 -41.48525391 0.78724609 -39.62109375 0.37890625 C-26.35775141 -2.29035868 -13.32732513 -1.98634856 0 0 Z " fill="#FDF5F5" transform="translate(82.875,67.375)"/>
<path d="M0 0 C0.84973389 0.12600586 1.69946777 0.25201172 2.57495117 0.38183594 C8.72448345 1.37808377 8.72448345 1.37808377 10.73464966 2.61734009 C14.19179712 4.07471178 17.67586206 4.09314609 21.375 4.25 C22.12007813 4.28867188 22.86515625 4.32734375 23.6328125 4.3671875 C25.4631524 4.46105108 27.29404143 4.54409718 29.125 4.625 C29.17145256 14.00483555 29.20693466 23.38463117 29.22862434 32.76455688 C29.23903716 37.12058593 29.25315043 41.47653595 29.27587891 45.83251953 C29.29769681 50.04058605 29.30958742 54.24857681 29.31475449 58.45669556 C29.31843423 60.05776155 29.32561969 61.65882366 29.33646011 63.25985718 C29.35109425 65.51186914 29.35297302 67.76357273 29.35205078 70.015625 C29.356492 71.29469727 29.36093323 72.57376953 29.36550903 73.89160156 C28.58791844 85.96206499 23.25271057 96.56832087 14.40234375 104.7265625 C2.54246402 114.61318608 -11.71126529 117.53612569 -26.875 116.625 C-33.74106301 115.4399942 -39.84646247 113.0858271 -45.875 109.625 C-46.37 108.635 -46.37 108.635 -46.875 107.625 C-45.39 107.13 -45.39 107.13 -43.875 106.625 C-42.27423164 105.06963527 -42.27423164 105.06963527 -40.7109375 103.125 C-36.77758454 98.49022324 -32.66542303 94.05124142 -28.5 89.625 C-27.77683594 88.85027344 -27.05367187 88.07554687 -26.30859375 87.27734375 C-25.62152344 86.54644531 -24.93445312 85.81554687 -24.2265625 85.0625 C-23.60604004 84.40121094 -22.98551758 83.73992187 -22.34619141 83.05859375 C-20.875 81.625 -20.875 81.625 -19.875 81.625 C-18.80770127 93.83964097 -18.80770127 93.83964097 -21.15234375 97.76171875 C-22.875 99.375 -22.875 99.375 -24.78515625 100.89453125 C-27.35922584 103.0259571 -29.25524847 105.43317853 -31.3125 108.0625 C-31.99183594 108.92746094 -32.67117187 109.79242188 -33.37109375 110.68359375 C-33.86738281 111.32425781 -34.36367188 111.96492188 -34.875 112.625 C-16.69612939 115.65481177 -2.08017699 112.92452035 13.25 102.5 C22.38778453 94.40580646 26.60177884 82.14460831 27.33032227 70.28173828 C27.36697998 69.09821777 27.4036377 67.91469727 27.44140625 66.6953125 C27.48330078 65.40625 27.52519531 64.1171875 27.56835938 62.7890625 C27.60816028 61.44271091 27.64787273 60.09635671 27.6875 58.75 C27.73075183 57.38019667 27.77436812 56.01040479 27.81835938 54.640625 C27.92415522 51.30217843 28.02624372 47.963661 28.125 44.625 C24.67824322 47.9850257 24.67824322 47.9850257 21.5625 51.64453125 C18.85550142 55.0209235 17.17798235 56.48460235 12.78515625 57.0703125 C9.5367732 57.06325847 6.35803497 56.93128752 3.125 56.625 C6.17625475 53.05279932 9.23310964 49.48549324 12.3125 45.9375 C12.88613281 45.26589844 13.45976563 44.59429687 14.05078125 43.90234375 C16.125 41.625 16.125 41.625 18.98046875 38.94140625 C24.60214385 33.55154344 27.76043428 30.03238893 28.3125 21.875 C28.30122164 19.79075989 28.25731194 17.70506672 28.125 15.625 C27.465 15.625 26.805 15.625 26.125 15.625 C25.80595703 16.43710938 25.80595703 16.43710938 25.48046875 17.265625 C23.63482555 20.47821432 21.08540854 22.83056643 18.4375 25.375 C14.28032615 29.44265193 10.28513292 33.55766716 6.52734375 38.00390625 C5.125 39.625 5.125 39.625 3.55566406 40.81152344 C1.39444434 43.55103539 1.78692956 45.81895652 1.83203125 49.26171875 C1.84169922 50.56044922 1.85136719 51.85917969 1.86132812 53.19726562 C1.88639415 54.56901639 1.91178899 55.94076118 1.9375 57.3125 C1.9525498 58.69594924 1.9662377 60.07941401 1.97851562 61.46289062 C2.01392777 64.85065207 2.06331946 68.23763139 2.125 71.625 C2.785 71.955 3.445 72.285 4.125 72.625 C4.785 70.975 5.445 69.325 6.125 67.625 C7.775 67.625 9.425 67.625 11.125 67.625 C10.135 69.605 10.135 69.605 9.125 71.625 C8.465 71.625 7.805 71.625 7.125 71.625 C7.125 72.945 7.125 74.265 7.125 75.625 C2.67 76.12 2.67 76.12 -1.875 76.625 C-1.875 75.965 -1.875 75.305 -1.875 74.625 C-1.215 74.625 -0.555 74.625 0.125 74.625 C0.125 64.395 0.125 54.165 0.125 43.625 C-1.525 43.625 -3.175 43.625 -4.875 43.625 C-7.6875 41.625 -7.6875 41.625 -9.875 39.625 C-8.864375 38.8 -7.85375 37.975 -6.8125 37.125 C-4.19781227 34.88574793 -1.88190018 32.58599173 0.34765625 29.96484375 C4.27426682 25.41879322 8.37049469 21.04895726 12.5 16.6875 C13.22316406 15.92115234 13.94632812 15.15480469 14.69140625 14.36523438 C19.87996032 8.87003968 19.87996032 8.87003968 21.125 7.625 C13.11575106 6.61789273 13.11575106 6.61789273 5.7265625 9.125 C3.68515914 11.19060972 1.89773723 13.32555149 0.125 15.625 C-1.05537159 16.98538469 -2.24272305 18.33974941 -3.4375 19.6875 C-4.00339844 20.34492187 -4.56929688 21.00234375 -5.15234375 21.6796875 C-7.91916234 24.8041221 -10.89357316 27.70730913 -13.875 30.625 C-14.85540065 31.60293113 -15.83471147 32.58195713 -16.8125 33.5625 C-17.493125 34.243125 -18.17375 34.92375 -18.875 35.625 C-19.75305211 30.20221523 -20.65969528 24.57923707 -17.71337891 19.70214844 C-14.48531937 15.61818831 -10.73799849 12.10003595 -6.875 8.625 C-6.545 8.295 -6.215 7.965 -5.875 7.625 C-35.575 7.13 -35.575 7.13 -65.875 6.625 C-65.545 24.445 -65.215 42.265 -64.875 60.625 C-63.555 59.965 -62.235 59.305 -60.875 58.625 C-60.545 60.275 -60.215 61.925 -59.875 63.625 C-61.525 63.625 -63.175 63.625 -64.875 63.625 C-64.875 65.935 -64.875 68.245 -64.875 70.625 C-63.78838539 69.56585598 -62.70588548 68.50249011 -61.625 67.4375 C-61.02171875 66.84582031 -60.4184375 66.25414062 -59.796875 65.64453125 C-57.75731106 63.61710298 -57.75731106 63.61710298 -56.0625 60.90625 C-53.875 58.625 -53.875 58.625 -50.640625 58.13671875 C-48.90039062 58.22373047 -48.90039062 58.22373047 -47.125 58.3125 C-45.95453125 58.35761719 -44.7840625 58.40273437 -43.578125 58.44921875 C-42.24007812 58.53623047 -42.24007812 58.53623047 -40.875 58.625 C-42.79872193 62.06276234 -44.77255699 64.72767914 -47.625 67.4375 C-52.68427221 72.36680926 -57.2678931 77.61987562 -61.6875 83.125 C-62.409375 83.95 -63.13125 84.775 -63.875 85.625 C-64.535 85.625 -65.195 85.625 -65.875 85.625 C-69.38650826 76.88824336 -69.2651568 68.35232567 -69.16796875 59.1171875 C-69.16236233 57.53964647 -69.15809719 55.96210016 -69.15510559 54.384552 C-69.14373898 50.26470104 -69.11434404 46.14517548 -69.08099365 42.02545166 C-69.05011461 37.80867919 -69.03656243 33.59185333 -69.02148438 29.375 C-68.98946494 21.1248352 -68.93676569 12.87499577 -68.875 4.625 C-62.605 4.625 -56.335 4.625 -49.875 4.625 C-49.875 3.965 -49.875 3.305 -49.875 2.625 C-47.6881784 2.14274669 -45.50050745 1.66434417 -43.3125 1.1875 C-41.48525391 0.78724609 -41.48525391 0.78724609 -39.62109375 0.37890625 C-26.35775141 -2.29035868 -13.32732513 -1.98634856 0 0 Z " fill="#FDF7F7" transform="translate(82.875,67.375)"/>
<path d="M0 0 C20.13 0 40.26 0 61 0 C55 7 55 7 52.8828125 8.9765625 C49.6704817 11.98901494 48.13758385 13.94072613 47.55859375 18.3984375 C47.56209721 21.62862507 47.6912983 24.78558226 48 28 C48.62003906 27.319375 49.24007812 26.63875 49.87890625 25.9375 C51.26052262 24.42516301 52.6431771 22.91366392 54.04174805 21.41699219 C57.00147479 18.24016043 59.83407086 15.00630953 62.578125 11.640625 C72.46884854 -0.16048072 72.46884854 -0.16048072 78.0703125 -1.015625 C81.53152032 -1.00164032 84.6260087 -0.74862057 88 0 C83.29274522 5.56311928 78.41533398 10.91964861 73.39550781 16.20117188 C70.55326996 19.2056957 67.78214585 22.20540076 65.21875 25.453125 C59.3032485 32.75390217 59.3032485 32.75390217 55.62109375 33.44921875 C53.1875 33.1875 53.1875 33.1875 50.7265625 32.61328125 C47.44761545 31.87575305 44.42008063 31.85638813 41.0625 31.875 C39.98097656 31.87242188 38.89945313 31.86984375 37.78515625 31.8671875 C34.91442421 31.87814669 34.91442421 31.87814669 32 33 C32.33 33.66 32.66 34.32 33 35 C33.495 34.67 33.99 34.34 34.5 34 C38.12805155 32.54877938 41.10101287 32.80824653 45 33 C46 34 46 34 46.11352539 36.77563477 C46.10828857 37.98533936 46.10305176 39.19504395 46.09765625 40.44140625 C46.09443359 41.74658203 46.09121094 43.05175781 46.08789062 44.39648438 C46.07953401 45.7851569 46.07106905 47.17382877 46.0625 48.5625 C46.05748666 49.95507656 46.05292347 51.34765481 46.04882812 52.74023438 C46.03699434 56.1601987 46.0205088 59.58007844 46 63 C45.39526855 62.97679687 44.79053711 62.95359375 44.16748047 62.9296875 C43.36713379 62.91164062 42.56678711 62.89359375 41.7421875 62.875 C40.95183105 62.85179687 40.16147461 62.82859375 39.34716797 62.8046875 C35.54892047 63.1207472 33.17697009 64.96673914 30 67 C29.01 67 28.02 67 27 67 C26.505 53.14 26.505 53.14 26 39 C24.68 38.34 23.36 37.68 22 37 C22.33 36.34 22.66 35.68 23 35 C23.04022391 32.6670134 23.04320247 30.33293334 23 28 C23.66 28 24.32 28 25 28 C25 29.32 25 30.64 25 32 C25.66 32 26.32 32 27 32 C27.93065133 29.39417629 28.14917407 28.35801776 27.0625 25.75 C26.711875 25.1725 26.36125 24.595 26 24 C28 24 30 24 32 24 C32.33 23.34 32.66 22.68 33 22 C33.66 22 34.32 22 35 22 C35.99 21.67 36.98 21.34 38 21 C37.34 20.01 36.68 19.02 36 18 C36.66 16.68 37.32 15.36 38 14 C37.01 13.67 36.02 13.34 35 13 C35.66 12.34 36.32 11.68 37 11 C37.33 10.01 37.66 9.02 38 8 C36.21858253 7.13641377 36.21858253 7.13641377 34 7 C31.85410577 8.89586384 31.85410577 8.89586384 30 11 C29.34 11 28.68 11 28 11 C28 11.66 28 12.32 28 13 C28.99 13 29.98 13 31 13 C31 13.66 31 14.32 31 15 C29.35 15 27.7 15 26 15 C25.3125 13.3125 25.3125 13.3125 25 11 C26.4375 8.25 26.4375 8.25 28 6 C26.68 6 25.36 6 24 6 C23.67 7.32 23.34 8.64 23 10 C21.68 10 20.36 10 19 10 C18.67 8.68 18.34 7.36 18 6 C16.68 6 15.36 6 14 6 C14.515625 6.7425 15.03125 7.485 15.5625 8.25 C17 11 17 11 16.6875 13.3125 C16.460625 13.869375 16.23375 14.42625 16 15 C14.35 14.67 12.7 14.34 11 14 C11.99 13.67 12.98 13.34 14 13 C14 12.34 14 11.68 14 11 C13.071875 10.566875 13.071875 10.566875 12.125 10.125 C10 9 10 9 8 7 C7.01 7.66 6.02 8.32 5 9 C5 9.99 5 10.98 5 12 C5.66 12.66 6.32 13.32 7 14 C6.01 14 5.02 14 4 14 C4.66 15.65 5.32 17.3 6 19 C5.34 19.66 4.68 20.32 4 21 C5.88316159 22.10836423 5.88316159 22.10836423 8 23 C8.66 22.67 9.32 22.34 10 22 C9.01 24.475 9.01 24.475 8 27 C7.34 27 6.68 27 6 27 C7.36983503 30.16115776 7.9890638 30.9927092 11 33 C11 33.66 11 34.32 11 35 C11.66 35 12.32 35 13 35 C12.505 33.515 12.505 33.515 12 32 C13.32 31.34 14.64 30.68 16 30 C16.33 30.66 16.66 31.32 17 32 C17 30.68 17 29.36 17 28 C17.66 28 18.32 28 19 28 C19 30.31 19 32.62 19 35 C15.125 36 15.125 36 14 36 C14.33 36.66 14.66 37.32 15 38 C16.98 37.505 16.98 37.505 19 37 C18.34 37.99 17.68 38.98 17 40 C20.153368 40.70074844 22.72724974 41 26 41 C26 44.63 26 48.26 26 52 C25.11699219 51.93296875 24.23398437 51.8659375 23.32421875 51.796875 C17.60964292 51.72321774 12.97146246 51.70058698 8.65625 55.73828125 C5.90339628 58.66772981 3.46422433 61.82761023 1 65 C0.67 65 0.34 65 0 65 C0 62.03 0 59.06 0 56 C1.98 56.33 3.96 56.66 6 57 C5.67 55.68 5.34 54.36 5 53 C3.35 53.66 1.7 54.32 0 55 C0 36.85 0 18.7 0 0 Z " fill="#CC0707" transform="translate(17,74)"/>
<path d="M0 0 C0.66 0 1.32 0 2 0 C3.18650914 5.62493224 3.86947693 11.08091976 0.67285156 16.07226562 C-2.91072122 20.4418725 -6.98825908 24.31655379 -11.1015625 28.18164062 C-13.69854827 30.66908276 -16.05990352 33.30234246 -18.4375 36 C-19.13746094 36.78375 -19.83742187 37.5675 -20.55859375 38.375 C-21.03425781 38.91125 -21.50992188 39.4475 -22 40 C-14.40178169 40.97653334 -14.40178169 40.97653334 -7.4921875 38.32421875 C-4.60064882 35.40600536 -2.27766259 32.41649388 0 29 C0.66 29 1.32 29 2 29 C2.07531552 32.9102275 2.12913851 36.82016232 2.16479492 40.73095703 C2.1869343 42.69969568 2.22509352 44.66823362 2.26367188 46.63671875 C2.37165681 60.81874047 -0.38766125 74.66050136 -10.27734375 85.41015625 C-19.64516219 94.05573925 -32.19240089 99.42107516 -44.9375 99.25 C-45.63681641 99.24613281 -46.33613281 99.24226563 -47.05664062 99.23828125 C-52.01795841 99.15505318 -56.30826191 98.5639127 -61 97 C-59.6395271 93.40938482 -57.30339283 91.28706805 -54.55566406 88.68432617 C-48.96455741 83.32410192 -48.96455741 83.32410192 -46.2109375 76.2578125 C-46.24561801 73.08801417 -46.4486527 70.1191963 -47 67 C-51.58867941 71.48141158 -56.00655852 76.04096175 -60.19140625 80.90234375 C-62.24980358 83.28972899 -64.34122086 85.64583063 -66.4375 88 C-67.11683594 88.763125 -67.79617187 89.52625 -68.49609375 90.3125 C-68.99238281 90.869375 -69.48867187 91.42625 -70 92 C-73.44094186 90.68753462 -76.13540882 89.33411133 -79 87 C-77.5158627 83.51345524 -75.53785948 81.35808928 -72.8125 78.75 C-67.95086603 73.99726663 -63.42226001 69.04348618 -59.1875 63.72265625 C-58.589375 62.98917969 -57.99125 62.25570312 -57.375 61.5 C-56.84648438 60.8296875 -56.31796875 60.159375 -55.7734375 59.46875 C-54 58 -54 58 -51.2890625 57.78125 C-50.53367187 57.8534375 -49.77828125 57.925625 -49 58 C-48.67 58.66 -48.34 59.32 -48 60 C-46.35 60 -44.7 60 -43 60 C-42.505 59.01 -42.505 59.01 -42 58 C-40.35 58.33 -38.7 58.66 -37 59 C-37.66 60.32 -38.32 61.64 -39 63 C-38.01 63.495 -38.01 63.495 -37 64 C-38.98 64.99 -38.98 64.99 -41 66 C-41 66.66 -41 67.32 -41 68 C-40.01 68.33 -39.02 68.66 -38 69 C-37.01 69.495 -37.01 69.495 -36 70 C-35.505 68.515 -35.505 68.515 -35 67 C-34.67 67.99 -34.34 68.98 -34 70 C-31.525 69.505 -31.525 69.505 -29 69 C-29.2784375 70.4540625 -29.2784375 70.4540625 -29.5625 71.9375 C-29.706875 72.948125 -29.85125 73.95875 -30 75 C-29.67 75.33 -29.34 75.66 -29 76 C-28.67 76.33 -28.34 76.66 -28 77 C-27.505 75.515 -27.505 75.515 -27 74 C-26.34 74 -25.68 74 -25 74 C-25 77.3 -25 80.6 -25 84 C-25.99 84.495 -25.99 84.495 -27 85 C-25.35 85.99 -23.7 86.98 -22 88 C-22 87.34 -22 86.68 -22 86 C-21.01 85.67 -20.02 85.34 -19 85 C-19.99 84.01 -20.98 83.02 -22 82 C-21.67 81.67 -21.34 81.34 -21 81 C-20.92851801 79.64756083 -20.91600546 78.29165633 -20.9375 76.9375 C-20.958125 75.638125 -20.97875 74.33875 -21 73 C-20.01 73.495 -20.01 73.495 -19 74 C-19 75.32 -19 76.64 -19 78 C-18.67 77.34 -18.34 76.68 -18 76 C-17.34 76 -16.68 76 -16 76 C-16.33 75.401875 -16.66 74.80375 -17 74.1875 C-18 72 -18 72 -18 69 C-16.02 69.33 -14.04 69.66 -12 70 C-11.67 69.34 -11.34 68.68 -11 68 C-9 68 -7 68 -5 68 C-5 67.34 -5 66.68 -5 66 C-6.485 65.505 -6.485 65.505 -8 65 C-7.67 63.35 -7.34 61.7 -7 60 C-7.66 59.67 -8.32 59.34 -9 59 C-8.79375 58.38125 -8.5875 57.7625 -8.375 57.125 C-8.189375 56.073125 -8.189375 56.073125 -8 55 C-8.66 54.34 -9.32 53.68 -10 53 C-10.61875 53.66 -11.2375 54.32 -11.875 55 C-14 57 -14 57 -16 57 C-16 57.66 -16 58.32 -16 59 C-15.01 59.33 -14.02 59.66 -13 60 C-14.65 60.33 -16.3 60.66 -18 61 C-18.33 59.35 -18.66 57.7 -19 56 C-18.34 56 -17.68 56 -17 56 C-16.67 55.01 -16.34 54.02 -16 53 C-17.32 52.67 -18.64 52.34 -20 52 C-20.66 53.65 -21.32 55.3 -22 57 C-22.99 56.67 -23.98 56.34 -25 56 C-25.22475034 52.03555773 -25.38679372 48.07364019 -25.49438477 44.10424805 C-25.56120307 42.1013753 -25.67564961 40.10027292 -25.79101562 38.09960938 C-26.00916732 28.47669552 -26.00916732 28.47669552 -23.08178711 24.19311523 C-20.82418831 21.9484078 -18.48438442 19.98581748 -16 18 C-14.78254271 16.67270148 -13.58919169 15.32224903 -12.4375 13.9375 C-9.33926043 10.31684064 -6.02253776 6.97937057 -2.6015625 3.6640625 C-0.91371276 2.07577267 -0.91371276 2.07577267 0 0 Z " fill="#CD0C0C" transform="translate(109,83)"/>
<path d="M0 0 C3.0625 0.3125 3.0625 0.3125 4.9375 1.5625 C6.0625 3.3125 6.0625 3.3125 6.0625 7.3125 C7.3825 6.9825 8.7025 6.6525 10.0625 6.3125 C12.28076259 8.71561781 13.03117203 10.01175146 13.375 13.3125 C13.07600896 16.18281397 12.55898497 17.88071192 11.0625 20.3125 C9.7425 20.3125 8.4225 20.3125 7.0625 20.3125 C7.0625 21.3025 7.0625 22.2925 7.0625 23.3125 C6.4025 23.9725 5.7425 24.6325 5.0625 25.3125 C8.6925 25.3125 12.3225 25.3125 16.0625 25.3125 C16.3925 22.6725 16.7225 20.0325 17.0625 17.3125 C18.7125 16.9825 20.3625 16.6525 22.0625 16.3125 C22.5575 21.7575 22.5575 21.7575 23.0625 27.3125 C24.7125 27.6425 26.3625 27.9725 28.0625 28.3125 C28.206875 27.673125 28.35125 27.03375 28.5 26.375 C29.0625 24.3125 29.0625 24.3125 30.0625 23.3125 C29.4025 23.3125 28.7425 23.3125 28.0625 23.3125 C27.47035761 20.30029741 27.02000931 17.38776386 27.0625 14.3125 C29.11132059 11.45878561 31.13286938 10.26558708 34.0625 8.3125 C35.0525 8.3125 36.0425 8.3125 37.0625 8.3125 C37.5575 9.7975 37.5575 9.7975 38.0625 11.3125 C39.1453125 10.075 39.1453125 10.075 40.25 8.8125 C43.0625 6.3125 43.0625 6.3125 45.75 5.875 C48.0625 6.3125 48.0625 6.3125 50.0625 8.3125 C50.1875 10.9375 50.1875 10.9375 50.0625 13.3125 C47.0925 12.9825 44.1225 12.6525 41.0625 12.3125 C40.11216649 14.4507504 39.1628227 16.58944673 38.21875 18.73046875 C37.46729376 20.40855178 36.69737159 22.07852953 35.90625 23.73828125 C34.00817286 27.77169516 32.63512677 30.75385219 33.0625 35.3125 C32.7325 35.6425 32.4025 35.9725 32.0625 36.3125 C30.14285406 36.24772667 28.22546467 36.1101334 26.3125 35.9375 C24.74242188 35.80214844 24.74242188 35.80214844 23.140625 35.6640625 C20.0625 35.3125 20.0625 35.3125 17.78930664 34.80102539 C12.02645619 33.76857273 6.0900053 34.11964438 0.25 34.125 C-0.44603333 34.12394257 -1.14206665 34.12288513 -1.85919189 34.12179565 C-11.15855846 34.11763011 -20.23812558 34.45396405 -29.4296875 35.97265625 C-30.25726563 36.08480469 -31.08484375 36.19695313 -31.9375 36.3125 C-33.50426359 34.74573641 -33.39727761 32.90918846 -33.75 30.75 C-34.57443085 26.41089029 -35.88337584 22.93911646 -37.984375 19.07421875 C-39.16537569 16.89130354 -40.06684593 14.63424418 -40.9375 12.3125 C-45.3925 12.8075 -45.3925 12.8075 -49.9375 13.3125 C-50.2675 11.9925 -50.5975 10.6725 -50.9375 9.3125 C-50.2775 8.3225 -49.6175 7.3325 -48.9375 6.3125 C-42.41442308 6.92788462 -42.41442308 6.92788462 -40 8.875 C-39.649375 9.349375 -39.29875 9.82375 -38.9375 10.3125 C-38.2775 9.6525 -37.6175 8.9925 -36.9375 8.3125 C-33.45838112 8.43675425 -30.67019777 10.42447483 -28.06640625 12.63671875 C-26.12497167 15.51864067 -26.89913327 18.24654559 -27.5078125 21.51953125 C-27.72050781 22.40705078 -27.72050781 22.40705078 -27.9375 23.3125 C-28.9275 23.3125 -29.9175 23.3125 -30.9375 23.3125 C-30.2775 23.9725 -29.6175 24.6325 -28.9375 25.3125 C-28.9375 26.3025 -28.9375 27.2925 -28.9375 28.3125 C-25.4725 27.8175 -25.4725 27.8175 -21.9375 27.3125 C-22.123125 26.61125 -22.30875 25.91 -22.5 25.1875 C-22.98906976 21.97361302 -22.59981558 19.47689664 -21.9375 16.3125 C-20.2875 16.6425 -18.6375 16.9725 -16.9375 17.3125 C-16.4425 21.2725 -16.4425 21.2725 -15.9375 25.3125 C-14.29175434 25.33938151 -12.64588587 25.35884123 -11 25.375 C-10.08347656 25.38660156 -9.16695312 25.39820312 -8.22265625 25.41015625 C-5.97156673 25.57199049 -5.97156673 25.57199049 -4.9375 24.3125 C-5.5975 23.9825 -6.2575 23.6525 -6.9375 23.3125 C-6.9375 22.3225 -6.9375 21.3325 -6.9375 20.3125 C-8.2575 20.3125 -9.5775 20.3125 -10.9375 20.3125 C-13.03428815 16.90521925 -13.3508256 14.28042579 -12.9375 10.3125 C-11.4375 7.9375 -11.4375 7.9375 -9.9375 6.3125 C-8.6175 6.6425 -7.2975 6.9725 -5.9375 7.3125 C-5.751875 6.136875 -5.751875 6.136875 -5.5625 4.9375 C-4.67067527 1.19183612 -3.84331257 0.40886304 0 0 Z " fill="#FCF1F1" transform="translate(63.9375,25.6875)"/>
<path d="M0 0 C0.84973389 0.12600586 1.69946777 0.25201172 2.57495117 0.38183594 C8.60163601 1.35818201 8.60163601 1.35818201 11.14013672 2.65234375 C14.36627397 4.23327005 17.84386095 4.10026972 21.375 4.25 C22.12007813 4.28867188 22.86515625 4.32734375 23.6328125 4.3671875 C25.4631524 4.46105108 27.29404143 4.54409718 29.125 4.625 C29.125 4.955 29.125 5.285 29.125 5.625 C22.195 5.625 15.265 5.625 8.125 5.625 C7.465 6.945 6.805 8.265 6.125 9.625 C5.03231622 10.92870472 3.88928046 12.1911388 2.7109375 13.41796875 C1.69785522 14.48156616 1.69785522 14.48156616 0.66430664 15.56665039 C-0.40702515 16.67834595 -0.40702515 16.67834595 -1.5 17.8125 C-2.95282711 19.33497988 -4.40466035 20.85840882 -5.85546875 22.3828125 C-6.55075684 23.11274414 -7.24604492 23.84267578 -7.96240234 24.59472656 C-10.92575557 27.74040507 -13.77174991 30.97748506 -16.58984375 34.25390625 C-17.01394531 34.70636719 -17.43804687 35.15882812 -17.875 35.625 C-18.205 35.625 -18.535 35.625 -18.875 35.625 C-19.75305211 30.20221523 -20.65969528 24.57923707 -17.71337891 19.70214844 C-14.48531937 15.61818831 -10.73799849 12.10003595 -6.875 8.625 C-6.545 8.295 -6.215 7.965 -5.875 7.625 C-35.575 7.13 -35.575 7.13 -65.875 6.625 C-65.545 24.445 -65.215 42.265 -64.875 60.625 C-63.555 59.965 -62.235 59.305 -60.875 58.625 C-60.545 60.275 -60.215 61.925 -59.875 63.625 C-61.525 63.625 -63.175 63.625 -64.875 63.625 C-64.875 65.935 -64.875 68.245 -64.875 70.625 C-63.78838539 69.56585598 -62.70588548 68.50249011 -61.625 67.4375 C-61.02171875 66.84582031 -60.4184375 66.25414062 -59.796875 65.64453125 C-57.75731106 63.61710298 -57.75731106 63.61710298 -56.0625 60.90625 C-53.875 58.625 -53.875 58.625 -50.640625 58.13671875 C-48.90039062 58.22373047 -48.90039062 58.22373047 -47.125 58.3125 C-45.95453125 58.35761719 -44.7840625 58.40273437 -43.578125 58.44921875 C-42.24007812 58.53623047 -42.24007812 58.53623047 -40.875 58.625 C-42.79872193 62.06276234 -44.77255699 64.72767914 -47.625 67.4375 C-52.68427221 72.36680926 -57.2678931 77.61987562 -61.6875 83.125 C-62.409375 83.95 -63.13125 84.775 -63.875 85.625 C-64.535 85.625 -65.195 85.625 -65.875 85.625 C-69.38650826 76.88824336 -69.2651568 68.35232567 -69.16796875 59.1171875 C-69.16236233 57.53964647 -69.15809719 55.96210016 -69.15510559 54.384552 C-69.14373898 50.26470104 -69.11434404 46.14517548 -69.08099365 42.02545166 C-69.05011461 37.80867919 -69.03656243 33.59185333 -69.02148438 29.375 C-68.98946494 21.1248352 -68.93676569 12.87499577 -68.875 4.625 C-62.605 4.625 -56.335 4.625 -49.875 4.625 C-49.875 3.965 -49.875 3.305 -49.875 2.625 C-47.6881784 2.14274669 -45.50050745 1.66434417 -43.3125 1.1875 C-41.48525391 0.78724609 -41.48525391 0.78724609 -39.62109375 0.37890625 C-26.35775141 -2.29035868 -13.32732513 -1.98634856 0 0 Z " fill="#FCF4F4" transform="translate(82.875,67.375)"/>
<path d="M0 0 C0.83853516 -0.00128906 1.67707031 -0.00257812 2.54101562 -0.00390625 C3.41306641 -0.00003906 4.28511719 0.00382812 5.18359375 0.0078125 C6.4974707 0.00201172 6.4974707 0.00201172 7.83789062 -0.00390625 C8.67513672 -0.00261719 9.51238281 -0.00132813 10.375 0 C11.14142822 0.00112793 11.90785645 0.00225586 12.69750977 0.00341797 C14.62109375 0.1328125 14.62109375 0.1328125 16.62109375 1.1328125 C16.62109375 1.7928125 16.62109375 2.4528125 16.62109375 3.1328125 C19.92109375 4.1228125 23.22109375 5.1128125 26.62109375 6.1328125 C26.64574879 10.52937423 26.66393217 14.9258997 26.67602539 19.32250977 C26.68106496 20.81926168 26.68789662 22.31600866 26.6965332 23.81274414 C26.70861534 25.95981057 26.71432566 28.10681212 26.71875 30.25390625 C26.72398682 31.5473999 26.72922363 32.84089355 26.73461914 34.17358398 C26.62109375 37.1328125 26.62109375 37.1328125 25.62109375 38.1328125 C29.91109375 38.1328125 34.20109375 38.1328125 38.62109375 38.1328125 C37.63109375 37.6378125 37.63109375 37.6378125 36.62109375 37.1328125 C36.62109375 36.4728125 36.62109375 35.8128125 36.62109375 35.1328125 C38.58036438 33.4184507 40.57989587 31.74876082 42.62109375 30.1328125 C43.61109375 30.7928125 44.60109375 31.4528125 45.62109375 32.1328125 C45.29109375 33.7828125 44.96109375 35.4328125 44.62109375 37.1328125 C45.28109375 37.1328125 45.94109375 37.1328125 46.62109375 37.1328125 C46.66381475 38.79893155 46.66173207 40.46664135 46.62109375 42.1328125 C46.29109375 42.4628125 45.96109375 42.7928125 45.62109375 43.1328125 C46.61109375 43.6278125 46.61109375 43.6278125 47.62109375 44.1328125 C47.62109375 44.7928125 47.62109375 45.4528125 47.62109375 46.1328125 C46.81671875 46.4421875 46.01234375 46.7515625 45.18359375 47.0703125 C42.7302897 47.89616595 42.7302897 47.89616595 41.62109375 49.1328125 C39.05413739 48.73789614 36.94985381 48.29719253 34.62109375 47.1328125 C35.37259398 50.41054754 35.37259398 50.41054754 38.62109375 52.1328125 C37.96109375 52.1328125 37.30109375 52.1328125 36.62109375 52.1328125 C36.29109375 53.4528125 35.96109375 54.7728125 35.62109375 56.1328125 C34.96109375 56.1328125 34.30109375 56.1328125 33.62109375 56.1328125 C33.12609375 54.1528125 33.12609375 54.1528125 32.62109375 52.1328125 C32.64171875 53.4321875 32.66234375 54.7315625 32.68359375 56.0703125 C32.70508829 57.42446883 32.69257574 58.78037333 32.62109375 60.1328125 C32.29109375 60.4628125 31.96109375 60.7928125 31.62109375 61.1328125 C32.61109375 62.1228125 33.60109375 63.1128125 34.62109375 64.1328125 C33.30109375 64.1328125 31.98109375 64.1328125 30.62109375 64.1328125 C30.62109375 64.7928125 30.62109375 65.4528125 30.62109375 66.1328125 C27.65109375 65.1428125 27.65109375 65.1428125 24.62109375 64.1328125 C25.11609375 63.1428125 25.11609375 63.1428125 25.62109375 62.1328125 C26.28109375 62.1328125 26.94109375 62.1328125 27.62109375 62.1328125 C27.29109375 61.1428125 26.96109375 60.1528125 26.62109375 59.1328125 C26.89879283 56.792206 27.22649352 54.45656942 27.62109375 52.1328125 C26.96109375 52.1328125 26.30109375 52.1328125 25.62109375 52.1328125 C25.29109375 53.4528125 24.96109375 54.7728125 24.62109375 56.1328125 C23.30109375 55.4728125 21.98109375 54.8128125 20.62109375 54.1328125 C20.62109375 53.1428125 20.62109375 52.1528125 20.62109375 51.1328125 C21.61109375 51.1328125 22.60109375 51.1328125 23.62109375 51.1328125 C23.29109375 50.1428125 22.96109375 49.1528125 22.62109375 48.1328125 C20.14609375 48.6278125 20.14609375 48.6278125 17.62109375 49.1328125 C17.62109375 48.1428125 17.62109375 47.1528125 17.62109375 46.1328125 C17.29109375 46.7928125 16.96109375 47.4528125 16.62109375 48.1328125 C13.62109375 47.1328125 13.62109375 47.1328125 11.62109375 46.1328125 C11.62109375 45.4728125 11.62109375 44.8128125 11.62109375 44.1328125 C12.61109375 43.4728125 13.60109375 42.8128125 14.62109375 42.1328125 C13.96109375 40.8128125 13.30109375 39.4928125 12.62109375 38.1328125 C13.61109375 37.6378125 13.61109375 37.6378125 14.62109375 37.1328125 C13.30109375 36.8028125 11.98109375 36.4728125 10.62109375 36.1328125 C10.29109375 37.1228125 9.96109375 38.1128125 9.62109375 39.1328125 C7.97109375 39.1328125 6.32109375 39.1328125 4.62109375 39.1328125 C4.78407959 38.12275146 4.94706543 37.11269043 5.11499023 36.07202148 C5.59230084 32.35691937 5.73537989 28.84719391 5.71875 25.10546875 C5.71391602 23.17670898 5.71391602 23.17670898 5.70898438 21.20898438 C5.70063177 19.87109305 5.69216686 18.53320243 5.68359375 17.1953125 C5.67857034 15.83007976 5.67400892 14.46484524 5.66992188 13.09960938 C5.65818226 9.77729793 5.64176054 6.45507842 5.62109375 3.1328125 C3.73390625 3.101875 3.73390625 3.101875 1.80859375 3.0703125 C1.10089844 3.05871094 0.39320312 3.04710938 -0.3359375 3.03515625 C-2.97478039 3.16129597 -5.03016874 3.95844374 -7.37890625 5.1328125 C-7.37890625 3.8128125 -7.37890625 2.4928125 -7.37890625 1.1328125 C-4.58943849 0.20298991 -2.88280618 0.00423631 0 0 Z " fill="#FAE7E7" transform="translate(56.37890625,104.8671875)"/>
<path d="M0 0 C0.66 0 1.32 0 2 0 C2 1.32 2 2.64 2 4 C2.66 4 3.32 4 4 4 C4 3.34 4 2.68 4 2 C5.65 2.33 7.3 2.66 9 3 C9.33 2.01 9.66 1.02 10 0 C10.99 0.33 11.98 0.66 13 1 C12.67 1.99 12.34 2.98 12 4 C11.01 4.33 10.02 4.66 9 5 C9.33 5.66 9.66 6.32 10 7 C10.495 6.67 10.99 6.34 11.5 6 C15.12805155 4.54877938 18.10101287 4.80824653 22 5 C23 6 23 6 23.11352539 8.77563477 C23.10828857 9.98533936 23.10305176 11.19504395 23.09765625 12.44140625 C23.09443359 13.74658203 23.09121094 15.05175781 23.08789062 16.39648438 C23.07953401 17.7851569 23.07106905 19.17382877 23.0625 20.5625 C23.05748666 21.95507656 23.05292347 23.34765481 23.04882812 24.74023438 C23.03699434 28.1601987 23.0205088 31.58007844 23 35 C22.39526855 34.97679687 21.79053711 34.95359375 21.16748047 34.9296875 C20.36713379 34.91164062 19.56678711 34.89359375 18.7421875 34.875 C17.95183105 34.85179687 17.16147461 34.82859375 16.34716797 34.8046875 C12.54892047 35.1207472 10.17697009 36.96673914 7 39 C6.01 39 5.02 39 4 39 C3.67 29.76 3.34 20.52 3 11 C1.68 10.34 0.36 9.68 -1 9 C-0.67 8.34 -0.34 7.68 0 7 C0.04022391 4.6670134 0.04320247 2.33293334 0 0 Z " fill="#D53434" transform="translate(40,102)"/>
<path d="M0 0 C2.04119788 1.61594832 4.04072937 3.2856382 6 5 C6 5.66 6 6.32 6 7 C5.01 7.495 5.01 7.495 4 8 C5.32 8 6.64 8 8 8 C7.855625 7.4225 7.71125 6.845 7.5625 6.25 C7.04166667 4.16666667 6.52083333 2.08333333 6 0 C7.32 0 8.64 0 10 0 C10.66 1.32 11.32 2.64 12 4 C12.99 3.67 13.98 3.34 15 3 C15.33 2.01 15.66 1.02 16 0 C17.32 0 18.64 0 20 0 C19.67 0.763125 19.34 1.52625 19 2.3125 C17.82563314 4.99069135 17.82563314 4.99069135 18 8 C20.475 8.495 20.475 8.495 23 9 C23 8.34 23 7.68 23 7 C22.01 7 21.02 7 20 7 C20 6.34 20 5.68 20 5 C20.61875 4.731875 21.2375 4.46375 21.875 4.1875 C24.2995233 3.04443152 24.2995233 3.04443152 26 0 C27.32 0.66 28.64 1.32 30 2 C29.7215625 3.0828125 29.7215625 3.0828125 29.4375 4.1875 C28.97709861 7.1472232 29.29856083 9.11630565 30 12 C30 12.66 30 13.32 30 14 C30.495 14.99 30.495 14.99 31 16 C29.7934375 16.4640625 29.7934375 16.4640625 28.5625 16.9375 C26.10919595 17.76335345 26.10919595 17.76335345 25 19 C22.99279077 18.71325582 20.9914056 18.38133299 19 18 C19 18.66 19 19.32 19 20 C19.99 20.66 20.98 21.32 22 22 C21.34 22 20.68 22 20 22 C19.67 23.32 19.34 24.64 19 26 C18.34 26 17.68 26 17 26 C17 24.68 17 23.36 17 22 C16.34 22 15.68 22 15 22 C15 21.34 15 20.68 15 20 C14.01 20 13.02 20 12 20 C12 21.98 12 23.96 12 26 C11.67 24.68 11.34 23.36 11 22 C10.34 22 9.68 22 9 22 C9 23.32 9 24.64 9 26 C8.01 25.67 7.02 25.34 6 25 C5.67 26.32 5.34 27.64 5 29 C4.34 29 3.68 29 3 29 C2.67 28.34 2.34 27.68 2 27 C1.01 26.34 0.02 25.68 -1 25 C-1.6875 22.875 -1.6875 22.875 -2 21 C-1.34 21 -0.68 21 0 21 C0 20.01 0 19.02 0 18 C-2.475 17.01 -2.475 17.01 -5 16 C-4.34 15.01 -3.68 14.02 -3 13 C-3.33652369 10.48400985 -3.33652369 10.48400985 -4 8 C-4 6 -4 4 -4 2 C-2.68 1.34 -1.36 0.68 0 0 Z " fill="#FAE9E9" transform="translate(25,80)"/>
<path d="M0 0 C9.68 0 9.68 0 14 3 C15.65 3.33 17.3 3.66 19 4 C19 13.9 19 23.8 19 34 C13 33 13 33 10.625 31.4375 C7.32934331 29.3595805 7.32934331 29.3595805 0 30 C0 20.1 0 10.2 0 0 Z " fill="#CD0808" transform="translate(64,107)"/>
<path d="M0 0 C0.33 0 0.66 0 1 0 C1.57996956 4.9393012 1.68831591 8.7276239 -1.38671875 12.81640625 C-2.46542989 14.0837664 -3.56711847 15.33182348 -4.6875 16.5625 C-5.88726883 17.95655802 -7.08647167 19.35110332 -8.28515625 20.74609375 C-8.90277832 21.44976074 -9.52040039 22.15342773 -10.15673828 22.87841797 C-13.06452261 26.22525847 -15.84163944 29.67463969 -18.625 33.125 C-19.16535889 33.78959229 -19.70571777 34.45418457 -20.26245117 35.13891602 C-24.17028134 39.94760201 -28.00740737 44.80813633 -31.82104492 49.69165039 C-37.00038463 56.30817424 -42.30178636 62.82786906 -47.64306641 69.31420898 C-48.85653994 70.82177191 -50.00539768 72.38081939 -51.14453125 73.9453125 C-53 76 -53 76 -56.75 76.3125 C-57.8225 76.209375 -58.895 76.10625 -60 76 C-58.70891619 73.23344582 -57.2935196 70.95037933 -55.34765625 68.6015625 C-54.56273804 67.64648804 -54.56273804 67.64648804 -53.76196289 66.67211914 C-52.92072876 65.65879517 -52.92072876 65.65879517 -52.0625 64.625 C-50.87403445 63.17917856 -49.68654991 61.73255022 -48.5 60.28515625 C-47.90703125 59.56215332 -47.3140625 58.83915039 -46.703125 58.09423828 C-44.28102109 55.11591154 -41.91915943 52.09267973 -39.5625 49.0625 C-34.88351935 43.06106763 -30.05639461 37.19034117 -25.20263672 31.32983398 C-21.46718772 26.80962248 -17.79574954 22.24730757 -14.1875 17.625 C-10.78228098 13.26467378 -7.35720382 8.92428787 -3.875 4.625 C-3.15054688 3.73039062 -2.42609375 2.83578125 -1.6796875 1.9140625 C-1.12539062 1.28242187 -0.57109375 0.65078125 0 0 Z " fill="#FCF3F3" transform="translate(199,113)"/>
<path d="M0 0 C0 2.66420516 -0.09162237 4.52260646 -1 7 C-4.0606557 8.02021857 -4.99504904 8.00387627 -8.03515625 7.44140625 C-8.83526123 7.30234863 -9.63536621 7.16329102 -10.4597168 7.02001953 C-11.31863525 6.86903809 -12.17755371 6.71805664 -13.0625 6.5625 C-26.87392607 4.34398744 -39.80014548 4.09393537 -53.52026367 7.02001953 C-56.97199282 7.74612368 -59.64518622 8.29891508 -63 7 C-63.68707555 4.50935112 -64 2.62113708 -64 0 C-43.96988816 -5.45390404 -20.09840326 -5.01713484 0 0 Z " fill="#CD0B0B" transform="translate(96,62)"/>
<path d="M0 0 C1.17578125 1.58203125 1.17578125 1.58203125 2 4 C-1.71540634 15.43092447 -9.34958479 24.90129017 -19.7578125 30.94140625 C-32.97278772 37.18053218 -47.39856863 39.33214056 -61.515625 34.92578125 C-71.37391304 31.25217391 -71.37391304 31.25217391 -73 28 C-72.01 27.67 -71.02 27.34 -70 27 C-68.39923164 25.44463527 -68.39923164 25.44463527 -66.8359375 23.5 C-62.90258454 18.86522324 -58.79042303 14.42624142 -54.625 10 C-53.90183594 9.22527344 -53.17867187 8.45054687 -52.43359375 7.65234375 C-51.40298828 6.55599609 -51.40298828 6.55599609 -50.3515625 5.4375 C-49.42077881 4.44556641 -49.42077881 4.44556641 -48.47119141 3.43359375 C-47 2 -47 2 -46 2 C-44.93270127 14.21464097 -44.93270127 14.21464097 -47.27734375 18.13671875 C-49 19.75 -49 19.75 -50.91015625 21.26953125 C-53.48422584 23.4009571 -55.38024847 25.80817853 -57.4375 28.4375 C-58.11683594 29.30246094 -58.79617187 30.16742188 -59.49609375 31.05859375 C-60.24052734 32.01958984 -60.24052734 32.01958984 -61 33 C-42.82112939 36.02981177 -28.20517699 33.29952035 -12.875 22.875 C-6.16569725 16.93194074 -2.35766937 8.45987245 0 0 Z " fill="#FCF2F2" transform="translate(109,147)"/>
<path d="M0 0 C1.90845703 0.04060547 1.90845703 0.04060547 3.85546875 0.08203125 C5.31919922 0.13423828 5.31919922 0.13423828 6.8125 0.1875 C2.68588786 5.06440526 -1.55681002 9.78859204 -5.9375 14.4375 C-11.7495447 20.63283302 -17.49679777 26.88052356 -23.1875 33.1875 C-25.140625 32.3828125 -25.140625 32.3828125 -27.1875 31.1875 C-27.9375 28.0625 -27.9375 28.0625 -28.1875 25.1875 C-28.8475 25.5175 -29.5075 25.8475 -30.1875 26.1875 C-28.59810574 22.25535699 -26.02407498 19.85729654 -23 16.9375 C-19.01890707 13.05032539 -15.22553719 9.09238389 -11.625 4.84375 C-11.150625 4.2971875 -10.67625 3.750625 -10.1875 3.1875 C-9.77886719 2.62417969 -9.37023437 2.06085938 -8.94921875 1.48046875 C-6.11999562 -0.59596774 -3.43126737 -0.09443855 0 0 Z " fill="#CE1111" transform="translate(98.1875,73.8125)"/>
<path d="M0 0 C0.99 0.495 0.99 0.495 2 1 C1.01 1.495 1.01 1.495 0 2 C0 1.34 0 0.68 0 0 Z M5 3 C5.11511942 7.14429898 5.19392136 10.45368594 2.58886719 13.82763672 C1.99750977 14.43881348 1.40615234 15.04999023 0.796875 15.6796875 C0.14589844 16.36160156 -0.50507812 17.04351562 -1.17578125 17.74609375 C-1.86027344 18.44863281 -2.54476562 19.15117187 -3.25 19.875 C-4.59009436 21.26673576 -5.92866453 22.65994092 -7.265625 24.0546875 C-7.90306641 24.71952148 -8.54050781 25.38435547 -9.19726562 26.06933594 C-11.58370615 28.62512841 -13.80148135 31.28167655 -16 34 C-19.45925163 32.7508258 -22.14693203 31.32472205 -25 29 C-23.5158627 25.51345524 -21.53785948 23.35808928 -18.8125 20.75 C-15.83422804 17.84809399 -13.00271627 14.92061203 -10.3125 11.75 C-1.0501228 0.9832924 -1.0501228 0.9832924 5 3 Z " fill="#CE1212" transform="translate(55,141)"/>
<path d="M0 0 C0.33 0 0.66 0 1 0 C1 22.11 1 44.22 1 67 C1.66 67 2.32 67 3 67 C3.25136719 66.44828125 3.50273437 65.8965625 3.76171875 65.328125 C6.36176104 60.43971741 9.54929702 56.31937903 14 53 C18.46419368 52.16921956 22.51796411 52.37653288 27 53 C25.07627807 56.43776234 23.10244301 59.10267914 20.25 61.8125 C15.19072779 66.74180926 10.6071069 71.99487562 6.1875 77.5 C5.465625 78.325 4.74375 79.15 4 80 C3.34 80 2.68 80 2 80 C0.19156138 75.35352814 -0.24402342 71.49886128 -0.22705078 66.52587891 C-0.22734283 65.80323853 -0.22763489 65.08059814 -0.22793579 64.33605957 C-0.22655116 61.96610172 -0.21103127 59.5964649 -0.1953125 57.2265625 C-0.19157928 55.57604138 -0.18873377 53.92551803 -0.18673706 52.2749939 C-0.17912492 47.94474091 -0.15949736 43.6146235 -0.1373291 39.28442383 C-0.11681841 34.86020745 -0.1077242 30.43596903 -0.09765625 26.01171875 C-0.07624905 17.34108384 -0.04214251 8.67055881 0 0 Z " fill="#FDF8F8" transform="translate(15,73)"/>
<path d="M0 0 C0.66 0 1.32 0 2 0 C3.64061341 11.20257235 3.64061341 11.20257235 0.92041016 15.84082031 C-2.01194681 19.61054552 -5.43298214 22.83832508 -9 26 C-9.66 25.67 -10.32 25.34 -11 25 C-11.33 25.66 -11.66 26.32 -12 27 C-14.375 27.1875 -14.375 27.1875 -17 27 C-17.66 26.01 -18.32 25.02 -19 24 C-20.65 25.98 -22.3 27.96 -24 30 C-23.34 30 -22.68 30 -22 30 C-22 29.34 -22 28.68 -22 28 C-21.01 28.33 -20.02 28.66 -19 29 C-19 30.32 -19 31.64 -19 33 C-20.65 33 -22.3 33 -24 33 C-24 40.59 -24 48.18 -24 56 C-24.33 56 -24.66 56 -25 56 C-25.22475034 52.03555773 -25.38679372 48.07364019 -25.49438477 44.10424805 C-25.56120307 42.1013753 -25.67564961 40.10027292 -25.79101562 38.09960938 C-26.00916732 28.47669552 -26.00916732 28.47669552 -23.08178711 24.19311523 C-20.82418831 21.9484078 -18.48438442 19.98581748 -16 18 C-14.78254271 16.67270148 -13.58919169 15.32224903 -12.4375 13.9375 C-9.33926043 10.31684064 -6.02253776 6.97937057 -2.6015625 3.6640625 C-0.91371276 2.07577267 -0.91371276 2.07577267 0 0 Z " fill="#D01C1C" transform="translate(109,83)"/>
<path d="M0 0 C0.66 0 1.32 0 2 0 C1.38722388 2.96175123 0.74627478 4.38058783 -1 7 C-0.01 7.33 0.98 7.66 2 8 C2 10.31 2 12.62 2 15 C1.34 15 0.68 15 0 15 C-0.21785156 15.5465625 -0.43570313 16.093125 -0.66015625 16.65625 C-2.43899207 19.76791617 -4.87146807 22.04437101 -7.4375 24.5 C-10.54761252 27.49976687 -13.52181127 30.43812875 -16 34 C-19 33 -19 33 -20.75 30.1875 C-22.07056739 26.82005316 -22.29556769 26.20259491 -21 23 C-19.1796875 20.921875 -19.1796875 20.921875 -16.875 18.75 C-11.58296751 13.63436859 -6.79395966 8.23457223 -2.1875 2.5 C-1.1046875 1.2625 -1.1046875 1.2625 0 0 Z " fill="#CE1111" transform="translate(41,127)"/>
<path d="M0 0 C2.97 0 5.94 0 9 0 C8.67 0.66 8.34 1.32 8 2 C7.01 2 6.02 2 5 2 C5 4.31 5 6.62 5 9 C5.99 9.33 6.98 9.66 8 10 C8 10.33 8 10.66 8 11 C6.35 11.33 4.7 11.66 3 12 C3.33 13.65 3.66 15.3 4 17 C5.65 17.33 7.3 17.66 9 18 C8.67 19.32 8.34 20.64 8 22 C7.34 21.67 6.68 21.34 6 21 C6.89767656 24.1315587 6.89767656 24.1315587 9 27 C10.32 27 11.64 27 13 27 C13 25.68 13 24.36 13 23 C12.34 22.67 11.68 22.34 11 22 C13.31 21.34 15.62 20.68 18 20 C18.495 26.93 18.495 26.93 19 34 C13 33 13 33 10.625 31.4375 C7.32934331 29.3595805 7.32934331 29.3595805 0 30 C0 20.1 0 10.2 0 0 Z " fill="#CE0F0F" transform="translate(64,107)"/>
<path d="M0 0 C0.66 0 1.32 0 2 0 C2 1.32 2 2.64 2 4 C2.66 4 3.32 4 4 4 C4 3.34 4 2.68 4 2 C5.65 2.33 7.3 2.66 9 3 C9.33 2.01 9.66 1.02 10 0 C10.99 0.33 11.98 0.66 13 1 C12.67 1.99 12.34 2.98 12 4 C11.01 4.33 10.02 4.66 9 5 C9 5.99 9 6.98 9 8 C8.34 8 7.68 8 7 8 C7.33 8.99 7.66 9.98 8 11 C9.051875 10.319375 10.10375 9.63875 11.1875 8.9375 C13.90327009 7.3643405 14.70477974 6.97487487 17.9375 7.25 C18.618125 7.4975 19.29875 7.745 20 8 C20 9.65 20 11.3 20 13 C18.02 13.33 16.04 13.66 14 14 C14.020625 15.093125 14.04125 16.18625 14.0625 17.3125 C14 21 14 21 13 24 C10.39757586 25.64820195 9.13751221 26 6 26 C5.67 24.35 5.34 22.7 5 21 C4.67 21 4.34 21 4 21 C3.97421875 20.30132812 3.9484375 19.60265625 3.921875 18.8828125 C3.86515625 17.97273438 3.8084375 17.06265625 3.75 16.125 C3.70359375 15.22007813 3.6571875 14.31515625 3.609375 13.3828125 C3.24388852 10.82889456 3.24388852 10.82889456 0.953125 9.6796875 C0.30859375 9.45539063 -0.3359375 9.23109375 -1 9 C-0.67 8.34 -0.34 7.68 0 7 C0.04022391 4.6670134 0.04320247 2.33293334 0 0 Z " fill="#D01A1A" transform="translate(40,102)"/>
<path d="M0 0 C21.8361677 0 21.8361677 0 30.69921875 0.21875 C32.15712578 0.25204407 32.15712578 0.25204407 33.64448547 0.28601074 C36.65887521 0.35530461 39.67318401 0.4275767 42.6875 0.5 C44.76887556 0.54837766 46.85025576 0.59655578 48.93164062 0.64453125 C53.9544834 0.76073068 58.97725635 0.87959505 64 1 C64 1.33 64 1.66 64 2 C43.87 2 23.74 2 3 2 C3.33 19.82 3.66 37.64 4 56 C5.32 55.34 6.64 54.68 8 54 C8.33 55.65 8.66 57.3 9 59 C7.35 59 5.7 59 4 59 C4 61.97 4 64.94 4 68 C3.34 68 2.68 68 2 68 C1.34 68.99 0.68 69.98 0 71 C0 47.57 0 24.14 0 0 Z " fill="#F0B9B9" transform="translate(14,72)"/>
<path d="M0 0 C0 5.61 0 11.22 0 17 C-0.33 17 -0.66 17 -1 17 C-1 15.02 -1 13.04 -1 11 C-1.61875 11.185625 -2.2375 11.37125 -2.875 11.5625 C-5 12 -5 12 -7 11 C-7 13.31 -7 15.62 -7 18 C-6.34 18 -5.68 18 -5 18 C-4.67 17.01 -4.34 16.02 -4 15 C-3.67 16.32 -3.34 17.64 -3 19 C-4.65 19.33 -6.3 19.66 -8 20 C-8 20.66 -8 21.32 -8 22 C-9.98 22.66 -11.96 23.32 -14 24 C-14.33 25.65 -14.66 27.3 -15 29 C-15.99 29.33 -16.98 29.66 -18 30 C-18 25.38 -18 20.76 -18 16 C-17.34 15.67 -16.68 15.34 -16 15 C-16 16.98 -16 18.96 -16 21 C-13.69 20.34 -11.38 19.68 -9 19 C-9.020625 17.72125 -9.04125 16.4425 -9.0625 15.125 C-9.125 11.25 -9.125 11.25 -8 9 C-4.9375 8.375 -4.9375 8.375 -2 8 C-2.33 6.35 -2.66 4.7 -3 3 C-5.00240549 3.31856451 -7.00211562 3.65421232 -9 4 C-9.763125 4.12375 -10.52625 4.2475 -11.3125 4.375 C-11.869375 4.58125 -12.42625 4.7875 -13 5 C-13.33 5.99 -13.66 6.98 -14 8 C-14 7.34 -14 6.68 -14 6 C-14.66 5.67 -15.32 5.34 -16 5 C-14.68111616 2.36223233 -12.8618595 1.81434263 -10.27734375 0.5859375 C-8 0 -8 0 0 0 Z " fill="#CC0808" transform="translate(62,107)"/>
<path d="M0 0 C0 8.375 0 8.375 -2 12 C-2.66 11.67 -3.32 11.34 -4 11 C-4.33 11.66 -4.66 12.32 -5 13 C-7.375 13.1875 -7.375 13.1875 -10 13 C-10.66 12.01 -11.32 11.02 -12 10 C-13.65 11.98 -15.3 13.96 -17 16 C-16.34 16 -15.68 16 -15 16 C-15 15.34 -15 14.68 -15 14 C-14.01 14.33 -13.02 14.66 -12 15 C-12 16.32 -12 17.64 -12 19 C-13.65 19 -15.3 19 -17 19 C-17 26.59 -17 34.18 -17 42 C-17.33 42 -17.66 42 -18 42 C-20.0805502 14.82214623 -20.0805502 14.82214623 -15.46875 8.6953125 C-12.66103894 5.87753011 -9.52287347 3.84813958 -6 2 C-5.25234375 1.59136719 -4.5046875 1.18273437 -3.734375 0.76171875 C-2 0 -2 0 0 0 Z " fill="#CE1111" transform="translate(102,97)"/>
<path d="M0 0 C1.17578125 1.58203125 1.17578125 1.58203125 2 4 C-1.71540634 15.43092447 -9.34958479 24.90129017 -19.7578125 30.94140625 C-33.27899908 37.32510235 -47.53107679 38.99142709 -62 35 C-61.34 34.34 -60.68 33.68 -60 33 C-57.65789457 33.26475974 -55.32476152 33.61136206 -53 34 C-37.47992604 34.98309918 -25.78399887 31.65311923 -12.875 22.875 C-6.16569725 16.93194074 -2.35766937 8.45987245 0 0 Z " fill="#F7DBDB" transform="translate(109,147)"/>
<path d="M0 0 C9.47195358 0.80270793 9.47195358 0.80270793 13 4 C13.5 7.0625 13.5 7.0625 13 10 C12.01 10.66 11.02 11.32 10 12 C10.33 13.98 10.66 15.96 11 18 C10.67 17.34 10.34 16.68 10 16 C8.68 16.33 7.36 16.66 6 17 C5.34 16.01 4.68 15.02 4 14 C3.01 14.495 3.01 14.495 2 15 C2 13.02 2 11.04 2 9 C2.99 9.33 3.98 9.66 5 10 C5.33 9.01 5.66 8.02 6 7 C5.21625 7.04125 4.4325 7.0825 3.625 7.125 C1 7 1 7 -1 5 C-0.625 2.375 -0.625 2.375 0 0 Z " fill="#DC5454" transform="translate(67,118)"/>
<path d="M0 0 C2 2 2 2 2 5 C3.65 5.33 5.3 5.66 7 6 C5.63629701 8.99220268 4.05091917 11.29026529 1.875 13.75 C1.06675781 14.67039063 1.06675781 14.67039063 0.2421875 15.609375 C-0.16773438 16.06828125 -0.57765625 16.5271875 -1 17 C-4.45925163 15.7508258 -7.14693203 14.32472205 -10 12 C-8.52278578 8.54798361 -6.56205999 6.35038064 -3.875 3.75 C-3.15054688 3.04359375 -2.42609375 2.3371875 -1.6796875 1.609375 C-1.12539063 1.07828125 -0.57109375 0.5471875 0 0 Z " fill="#CC0808" transform="translate(40,158)"/>
<path d="M0 0 C2.39611639 0.31044024 4.79187835 0.62328358 7.1875 0.9375 C8.19780273 1.06801758 8.19780273 1.06801758 9.22851562 1.20117188 C12.85081166 1.67825477 16.42803585 2.23012035 20 3 C20 5.66420516 19.90837763 7.52260646 19 10 C15.43065456 11.18978181 13.21698703 10.86892395 9.5 10.375 C7.78296875 10.17003906 7.78296875 10.17003906 6.03125 9.9609375 C3 9 3 9 1.09375 6.4140625 C0.7328125 5.61742188 0.371875 4.82078125 0 4 C0.66 3.01 1.32 2.02 2 1 C1.34 0.67 0.68 0.34 0 0 Z " fill="#CE1111" transform="translate(76,59)"/>
<path d="M0 0 C2.375 2 2.375 2 4 4 C1.45400643 7.81899035 0.01829697 7.78248741 -4.375 8.75 C-5.51710938 9.01296875 -6.65921875 9.2759375 -7.8359375 9.546875 C-10.71433052 9.95908931 -12.31330668 9.97938574 -15 9 C-15.68707555 6.50935112 -16 4.62113708 -16 2 C-4.23255814 -0.60465116 -4.23255814 -0.60465116 0 0 Z " fill="#D42B2B" transform="translate(48,60)"/>
<path d="M0 0 C0.99 0 1.98 0 3 0 C3.19406478 1.64507218 3.38007935 3.29109594 3.5625 4.9375 C3.66691406 5.85402344 3.77132812 6.77054687 3.87890625 7.71484375 C3.91886719 8.46894531 3.95882812 9.22304687 4 10 C3.67 10.33 3.34 10.66 3 11 C3.99 11 4.98 11 6 11 C6.33 11 6.66 11 7 11 C7 18.92 7 26.84 7 35 C5.35 34.67 3.7 34.34 2 34 C2.49113281 33.49984375 2.98226562 32.9996875 3.48828125 32.484375 C5.54344718 29.106893 5.32839999 26.07236377 5.1875 22.25 C5.17396484 21.55261719 5.16042969 20.85523437 5.14648438 20.13671875 C5.1112945 18.42414459 5.05749155 16.71197059 5 15 C4.22269531 15.17402344 3.44539063 15.34804687 2.64453125 15.52734375 C-0.01707879 16.00305249 -1.47253908 15.84248697 -4 15 C-4 14.01 -4 13.02 -4 12 C-4.66 12.66 -5.32 13.32 -6 14 C-6 13.01 -6 12.02 -6 11 C-6.66 10.67 -7.32 10.34 -8 10 C-7.34 10 -6.68 10 -6 10 C-6 9.34 -6 8.68 -6 8 C-4.68 8.33 -3.36 8.66 -2 9 C-1.34 6.03 -0.68 3.06 0 0 Z " fill="#FBF0F0" transform="translate(37,100)"/>
<path d="M0 0 C-0.66 1.32 -1.32 2.64 -2 4 C-2.99 4 -3.98 4 -5 4 C-5 5.98 -5 7.96 -5 10 C-5.33 8.68 -5.66 7.36 -6 6 C-6.66 6 -7.32 6 -8 6 C-8 7.32 -8 8.64 -8 10 C-8.99 9.67 -9.98 9.34 -11 9 C-11.33 10.32 -11.66 11.64 -12 13 C-12.66 13 -13.32 13 -14 13 C-14.33 12.34 -14.66 11.68 -15 11 C-15.99 10.34 -16.98 9.68 -18 9 C-18.6875 6.875 -18.6875 6.875 -19 5 C-17.02 4.01 -15.04 3.02 -13 2 C-12.67 2.33 -12.34 2.66 -12 3 C-11.34 2.34 -10.68 1.68 -10 1 C-6.78548731 -0.60725635 -3.56387464 -0.05748185 0 0 Z " fill="#F8DCDC" transform="translate(42,96)"/>
<path d="M0 0 C3.96 0 7.92 0 12 0 C7.40525596 5.39882424 2.72323727 10.71333087 -2 16 C-4 13 -4 13 -5 10 C-6.65 10.66 -8.3 11.32 -10 12 C-9.34 10.68 -8.68 9.36 -8 8 C-7.34 8 -6.68 8 -6 8 C-5.34 6.68 -4.68 5.36 -4 4 C-3.34 4.66 -2.68 5.32 -2 6 C0.57061311 6.64767793 0.57061311 6.64767793 3 7 C2.65772428 4.02934491 2.65772428 4.02934491 2 1 C1.34 0.67 0.68 0.34 0 0 Z " fill="#CD0909" transform="translate(93,74)"/>
<path d="M0 0 C0.33 0 0.66 0 1 0 C1.45731527 3.12498765 1.47775003 5.24014996 -0.23046875 7.95703125 C-1.74960851 9.79875377 -3.15462969 11.48239619 -5 13 C-7.66666667 13 -10.33333333 13 -13 13 C-12.62403791 10.21788056 -12.32681541 8.4120716 -10.5625 6.1875 C-9 5 -9 5 -7 5 C-6.67 3.68 -6.34 2.36 -6 1 C-4.7934375 1.0309375 -4.7934375 1.0309375 -3.5625 1.0625 C-1.06645115 1.29633621 -1.06645115 1.29633621 0 0 Z " fill="#CF1717" transform="translate(41,136)"/>
<path d="M0 0 C2.875 0.875 2.875 0.875 6 3 C7.20200614 6.26945669 7.79444779 9.52429898 8 13 C7.67 13.33 7.34 13.66 7 14 C7.99 14.99 8.98 15.98 10 17 C8.68 17 7.36 17 6 17 C6 17.66 6 18.32 6 19 C4.02 18.34 2.04 17.68 0 17 C0.33 16.34 0.66 15.68 1 15 C1.66 15 2.32 15 3 15 C2.67 14.01 2.34 13.02 2 12 C2.27769908 9.6593935 2.60539977 7.32375692 3 5 C2.34 5 1.68 5 1 5 C0.67 6.32 0.34 7.64 0 9 C-1.32 8.34 -2.64 7.68 -4 7 C-4 6.01 -4 5.02 -4 4 C-3.01 3.67 -2.02 3.34 -1 3 C-0.67 2.01 -0.34 1.02 0 0 Z " fill="#FBECEC" transform="translate(81,152)"/>
<path d="M0 0 C2.29160319 -0.02692484 4.58329546 -0.04636124 6.875 -0.0625 C8.15117188 -0.07410156 9.42734375 -0.08570313 10.7421875 -0.09765625 C14 0 14 0 16 1 C15.773125 1.598125 15.54625 2.19625 15.3125 2.8125 C15.1578125 3.8953125 15.1578125 3.8953125 15 5 C15.99 5.99 16.98 6.98 18 8 C12.06 7.67 6.12 7.34 0 7 C1.32 6.34 2.64 5.68 4 5 C3.24849977 1.72226496 3.24849977 1.72226496 0 0 Z " fill="#CC0707" transform="translate(62,59)"/>
<path d="M0 0 C0.33 0 0.66 0 1 0 C1 9.57 1 19.14 1 29 C0.67 29 0.34 29 0 29 C-0.33 27.02 -0.66 25.04 -1 23 C-1.66 23.33 -2.32 23.66 -3 24 C-3 22.35 -3 20.7 -3 19 C-4.65 19.33 -6.3 19.66 -8 20 C-7.01 19.01 -6.02 18.02 -5 17 C-5.66 17 -6.32 17 -7 17 C-7 14.69 -7 12.38 -7 10 C-5.02 10 -3.04 10 -1 10 C-0.67 6.7 -0.34 3.4 0 0 Z " fill="#D53434" transform="translate(62,108)"/>
<path d="M0 0 C0.33 0 0.66 0 1 0 C1.33 17.82 1.66 35.64 2 54 C3.32 53.34 4.64 52.68 6 52 C6.33 53.65 6.66 55.3 7 57 C5.35 57 3.7 57 2 57 C2 59.97 2 62.94 2 66 C1.34 66 0.68 66 0 66 C0 44.22 0 22.44 0 0 Z " fill="#DB4E4E" transform="translate(16,74)"/>
<path d="M0 0 C19.8 0 39.6 0 60 0 C58 2 58 2 54.375 2.125 C53.26125 2.08375 52.1475 2.0425 51 2 C51 3.65 51 5.3 51 7 C48.525 6.505 48.525 6.505 46 6 C46.66 4.35 47.32 2.7 48 1 C32.16 1 16.32 1 0 1 C0 0.67 0 0.34 0 0 Z " fill="#CF0F0F" transform="translate(18,74)"/>
<path d="M0 0 C0.99 0.495 0.99 0.495 2 1 C2 2.32 2 3.64 2 5 C2.33 4.34 2.66 3.68 3 3 C4.65 3 6.3 3 8 3 C8.33 2.01 8.66 1.02 9 0 C10.32 0 11.64 0 13 0 C12.67 1.65 12.34 3.3 12 5 C10.68 5 9.36 5 8 5 C8 6.98 8 8.96 8 11 C6.25 11.75 6.25 11.75 4 12 C1.75 10.5625 1.75 10.5625 0 8 C-0.33634042 5.24095746 -0.18646242 2.79693623 0 0 Z " fill="#DF6767" transform="translate(88,156)"/>
<path d="M0 0 C1.32 0 2.64 0 4 0 C4 0.99 4 1.98 4 3 C5.2065625 2.7215625 5.2065625 2.7215625 6.4375 2.4375 C7.7059375 2.2209375 7.7059375 2.2209375 9 2 C9.33 2.33 9.66 2.66 10 3 C10.33 2.01 10.66 1.02 11 0 C11.66 0 12.32 0 13 0 C13 3.3 13 6.6 13 10 C11.35 10.66 9.7 11.32 8 12 C8 11.01 8 10.02 8 9 C7.01 9.33 6.02 9.66 5 10 C4.9175 9.21625 4.835 8.4325 4.75 7.625 C4.27193661 4.85250896 4.27193661 4.85250896 1.9375 3.6875 C1.298125 3.460625 0.65875 3.23375 0 3 C0 2.01 0 1.02 0 0 Z " fill="#D12222" transform="translate(71,157)"/>
<path d="M0 0 C0.66 0 1.32 0 2 0 C2 1.32 2 2.64 2 4 C2.66 4 3.32 4 4 4 C4 3.34 4 2.68 4 2 C5.65 2.33 7.3 2.66 9 3 C9.33 2.01 9.66 1.02 10 0 C10.99 0.33 11.98 0.66 13 1 C12.67 1.99 12.34 2.98 12 4 C11.01 4.33 10.02 4.66 9 5 C9 5.99 9 6.98 9 8 C8.030625 8.12375 7.06125 8.2475 6.0625 8.375 C5.051875 8.58125 4.04125 8.7875 3 9 C2.67 9.66 2.34 10.32 2 11 C1.01 10.01 0.02 9.02 -1 8 C-0.67 7.67 -0.34 7.34 0 7 C0.04092937 4.66702567 0.04241723 2.33294775 0 0 Z " fill="#F4CBCB" transform="translate(40,102)"/>
<path d="M0 0 C1.32 0 2.64 0 4 0 C4.66 1.32 5.32 2.64 6 4 C6.99 3.67 7.98 3.34 9 3 C9.33 2.01 9.66 1.02 10 0 C11.32 0 12.64 0 14 0 C13.67 0.7425 13.34 1.485 13 2.25 C11.77217129 5.13883312 11.77217129 5.13883312 12 9 C8.7 9 5.4 9 2 9 C1.855625 8.2575 1.71125 7.515 1.5625 6.75 C1.09812508 4.47972261 0.58136431 2.24240521 0 0 Z " fill="#FDF7F7" transform="translate(31,80)"/>
<path d="M0 0 C0.66 0.99 1.32 1.98 2 3 C4.56282742 3.72965366 4.56282742 3.72965366 7 4 C7.33 3.01 7.66 2.02 8 1 C8 5.78138637 7.16772988 6.384287 4 9.75 C2.88625 10.94882813 2.88625 10.94882813 1.75 12.171875 C1.1725 12.77515625 0.595 13.3784375 0 14 C-1.32 12.68 -2.64 11.36 -4 10 C-2.68 10 -1.36 10 0 10 C-0.34786708 8.02463255 -0.34786708 8.02463255 -1 6 C-1.66 5.67 -2.32 5.34 -3 5 C-3 5.66 -3 6.32 -3 7 C-3.66 7 -4.32 7 -5 7 C-4.67 6.01 -4.34 5.02 -4 4 C-3.34 4 -2.68 4 -2 4 C-1.34 2.68 -0.68 1.36 0 0 Z " fill="#CD0B0B" transform="translate(90,106)"/>
<path d="M0 0 C0 3.3 0 6.6 0 10 C-0.33 9.01 -0.66 8.02 -1 7 C-2.98491642 7.26676204 -2.98491642 7.26676204 -5 8 C-5.33 8.99 -5.66 9.98 -6 11 C-7.5234375 12.3515625 -7.5234375 12.3515625 -9.375 13.625 C-9.98085937 14.05039063 -10.58671875 14.47578125 -11.2109375 14.9140625 C-13 16 -13 16 -16 17 C-14.68285542 14.08462499 -13.26341874 12.0152987 -10.99609375 9.765625 C-10.13274414 8.90517578 -10.13274414 8.90517578 -9.25195312 8.02734375 C-8.65318359 7.44082031 -8.05441406 6.85429688 -7.4375 6.25 C-6.83486328 5.64800781 -6.23222656 5.04601562 -5.61132812 4.42578125 C-1.14038584 0 -1.14038584 0 0 0 Z " fill="#D01B1B" transform="translate(110,84)"/>
<path d="M0 0 C0.66 0.268125 1.32 0.53625 2 0.8125 C2 2.4625 2 4.1125 2 5.8125 C1.38511719 5.94527344 0.77023438 6.07804687 0.13671875 6.21484375 C-1.07564453 6.47974609 -1.07564453 6.47974609 -2.3125 6.75 C-3.11300781 6.92402344 -3.91351563 7.09804687 -4.73828125 7.27734375 C-7.145401 7.81136159 -7.145401 7.81136159 -10 8.8125 C-10.33 7.4925 -10.66 6.1725 -11 4.8125 C-3.9452954 -0.24658096 -3.9452954 -0.24658096 0 0 Z " fill="#E47C7C" transform="translate(58,109.1875)"/>
<path d="M0 0 C2.64 0 5.28 0 8 0 C7.67 0.66 7.34 1.32 7 2 C6.01 2 5.02 2 4 2 C4 4.31 4 6.62 4 9 C4.99 9.33 5.98 9.66 7 10 C7 10.33 7 10.66 7 11 C5.35 11.33 3.7 11.66 2 12 C1.67 13.65 1.34 15.3 1 17 C0.67 17 0.34 17 0 17 C0 11.39 0 5.78 0 0 Z " fill="#CA0202" transform="translate(65,107)"/>
<path d="M0 0 C6.52307692 0.61538462 6.52307692 0.61538462 8.9375 2.5625 C9.288125 3.036875 9.63875 3.51125 10 4 C10.66 3.67 11.32 3.34 12 3 C12 3.99 12 4.98 12 6 C10.453125 5.9690625 10.453125 5.9690625 8.875 5.9375 C5.44847031 5.99276661 2.35427586 6.34550715 -1 7 C-1.625 5.1875 -1.625 5.1875 -2 3 C-1.34 2.01 -0.68 1.02 0 0 Z " fill="#F8DDDD" transform="translate(15,32)"/>
<path d="M0 0 C0.58523437 0.23074219 1.17046875 0.46148437 1.7734375 0.69921875 C2.1034375 2.67921875 2.4334375 4.65921875 2.7734375 6.69921875 C0.3984375 6.82421875 0.3984375 6.82421875 -2.2265625 6.69921875 C-2.8865625 6.03921875 -3.5465625 5.37921875 -4.2265625 4.69921875 C-5.4021875 5.90578125 -5.4021875 5.90578125 -6.6015625 7.13671875 C-9.2265625 9.69921875 -9.2265625 9.69921875 -11.2265625 10.69921875 C-9.8361126 7.59479844 -8.21084652 5.33357445 -5.8515625 2.88671875 C-5.26632813 2.26152344 -4.68109375 1.63632813 -4.078125 0.9921875 C-2.2265625 -0.30078125 -2.2265625 -0.30078125 0 0 Z " fill="#CF1919" transform="translate(93.2265625,74.30078125)"/>
<path d="M0 0 C1.4375 2.375 1.4375 2.375 2 5 C1.01 6.485 1.01 6.485 0 8 C-0.66 8 -1.32 8 -2 8 C-2.66 6.35 -3.32 4.7 -4 3 C-4 3.99 -4 4.98 -4 6 C-5.32 6.33 -6.64 6.66 -8 7 C-8 4.69 -8 2.38 -8 0 C-4.65284689 -1.1157177 -3.28928478 -1.1807689 0 0 Z " fill="#DF6464" transform="translate(77,109)"/>
<path d="M0 0 C0.66 0.33 1.32 0.66 2 1 C1.67 1.99 1.34 2.98 1 4 C0.01 4 -0.98 4 -2 4 C-1.34 4.33 -0.68 4.66 0 5 C-0.33 7.31 -0.66 9.62 -1 12 C-1.66 12 -2.32 12 -3 12 C-3.33 11.34 -3.66 10.68 -4 10 C-4.99 9.34 -5.98 8.68 -7 8 C-7.6875 5.875 -7.6875 5.875 -8 4 C-6.02 3.01 -4.04 2.02 -2 1 C-1.67 1.33 -1.34 1.66 -1 2 C-0.67 1.34 -0.34 0.68 0 0 Z " fill="#D32A2A" transform="translate(31,97)"/>
<path d="M0 0 C0.99 0.33 1.98 0.66 3 1 C3.33 3.31 3.66 5.62 4 8 C3.01 8.33 2.02 8.66 1 9 C-0.82421875 8.00390625 -0.82421875 8.00390625 -2.6875 6.5625 C-3.31011719 6.08941406 -3.93273438 5.61632812 -4.57421875 5.12890625 C-5.04472656 4.75636719 -5.51523437 4.38382813 -6 4 C-5.67 3.34 -5.34 2.68 -5 2 C-3.67696283 1.6278958 -2.34262065 1.29369827 -1 1 C-0.67 0.67 -0.34 0.34 0 0 Z " fill="#D01C1C" transform="translate(36,166)"/>
<path d="M0 0 C0.99 0.33 1.98 0.66 3 1 C3.33 3.31 3.66 5.62 4 8 C1.69 8.33 -0.62 8.66 -3 9 C-3.75 6.75 -3.75 6.75 -4 4 C-2.0625 1.6875 -2.0625 1.6875 0 0 Z " fill="#D01B1B" transform="translate(23,147)"/>
<path d="M0 0 C0.33 0.99 0.66 1.98 1 3 C1.66 3 2.32 3 3 3 C3 2.34 3 1.68 3 1 C3.99 1.33 4.98 1.66 6 2 C6 3.32 6 4.64 6 6 C4.35 6 2.7 6 1 6 C1 13.59 1 21.18 1 29 C0.67 29 0.34 29 0 29 C0 19.43 0 9.86 0 0 Z " fill="#DF5F5F" transform="translate(84,110)"/>
<path d="M0 0 C0.87591797 -0.01224609 1.75183594 -0.02449219 2.65429688 -0.03710938 C3.49154297 -0.03904297 4.32878906 -0.04097656 5.19140625 -0.04296875 C5.95783447 -0.04707764 6.7242627 -0.05118652 7.51391602 -0.05541992 C9.4375 0.1875 9.4375 0.1875 11.4375 2.1875 C10.12394531 2.23648438 8.81039062 2.28546875 7.45703125 2.3359375 C5.72133405 2.41099468 3.98565797 2.48654123 2.25 2.5625 C0.95352539 2.60890625 0.95352539 2.60890625 -0.36914062 2.65625 C-4.82145022 2.86095389 -8.51242587 3.12472933 -12.5625 5.1875 C-12.5625 3.8675 -12.5625 2.5475 -12.5625 1.1875 C-8.36706908 -0.21097697 -4.39368623 0.00324737 0 0 Z " fill="#EDA6A6" transform="translate(61.5625,104.8125)"/>
<path d="M0 0 C2.475 0.99 2.475 0.99 5 2 C3.625 3.5 3.625 3.5 2 5 C1.34 5 0.68 5 0 5 C0 5.66 0 6.32 0 7 C0.99 7 1.98 7 3 7 C3 7.66 3 8.32 3 9 C1.35 9 -0.3 9 -2 9 C-2.6875 7.3125 -2.6875 7.3125 -3 5 C-1.5625 2.25 -1.5625 2.25 0 0 Z " fill="#DF6161" transform="translate(45,80)"/>
<path d="M0 0 C1.67542976 0.28604898 3.34385343 0.61781233 5 1 C5 2.65 5 4.3 5 6 C3.34385343 6.38218767 1.67542976 6.71395102 0 7 C-1 6 -1 6 -1.125 3.5 C-1 1 -1 1 0 0 Z " fill="#CF1515" transform="translate(62,36)"/>
<path d="M0 0 C1.9375 0.3125 1.9375 0.3125 4 1 C4.33 1.99 4.66 2.98 5 4 C5.99 3.67 6.98 3.34 8 3 C8.33 4.98 8.66 6.96 9 9 C8.67 8.34 8.34 7.68 8 7 C6.68 7.33 5.36 7.66 4 8 C3.34 7.01 2.68 6.02 2 5 C1.01 5.495 1.01 5.495 0 6 C0 4.02 0 2.04 0 0 Z " fill="#EB9C9C" transform="translate(69,127)"/>
<path d="M0 0 C1.98 0.99 1.98 0.99 4 2 C3.125 5.875 3.125 5.875 2 7 C5.96 7.33 9.92 7.66 14 8 C14 8.33 14 8.66 14 9 C9.38 9 4.76 9 0 9 C0 6.03 0 3.06 0 0 Z " fill="#D22525" transform="translate(85,116)"/>
<path d="M0 0 C2.97 0 5.94 0 9 0 C9 1.32 9 2.64 9 4 C6.03 4 3.06 4 0 4 C0 2.68 0 1.36 0 0 Z " fill="#D42F2F" transform="translate(34,89)"/>
<path d="M0 0 C0.66 0.33 1.32 0.66 2 1 C2 2.65 2 4.3 2 6 C1.34 6 0.68 6 0 6 C-0.33 6.66 -0.66 7.32 -1 8 C-1.99 8 -2.98 8 -4 8 C-5.4606285 5.35261084 -6 4.10551666 -6 1 C-3.03 1.495 -3.03 1.495 0 2 C0 1.34 0 0.68 0 0 Z " fill="#D32929" transform="translate(97,151)"/>
<path d="M0 0 C2 2 2 2 2 5 C-0.64738916 6.4606285 -1.89448334 7 -5 7 C-5 5.02 -5 3.04 -5 1 C-2.625 0.375 -2.625 0.375 0 0 Z " fill="#EB9E9E" transform="translate(51,121)"/>
<path d="M0 0 C0.99 0 1.98 0 3 0 C2.67 1.32 2.34 2.64 2 4 C1.34 4 0.68 4 0 4 C0 4.66 0 5.32 0 6 C0.99 6.33 1.98 6.66 3 7 C1.35 7.33 -0.3 7.66 -2 8 C-2.33 6.35 -2.66 4.7 -3 3 C-2.34 3 -1.68 3 -1 3 C-0.67 2.01 -0.34 1.02 0 0 Z " fill="#D73F3F" transform="translate(93,136)"/>
<path d="M0 0 C0.66 0 1.32 0 2 0 C2 1.32 2 2.64 2 4 C2.66 4 3.32 4 4 4 C4.33 3.34 4.66 2.68 5 2 C5.99 3.485 5.99 3.485 7 5 C6.01 6.485 6.01 6.485 5 8 C4.67 7.67 4.34 7.34 4 7 C3.01 7.33 2.02 7.66 1 8 C0 7 0 7 -0.0625 3.4375 C-0.041875 2.303125 -0.02125 1.16875 0 0 Z " fill="#CD0D0D" transform="translate(40,102)"/>
<path d="M0 0 C0.66 0.33 1.32 0.66 2 1 C2 1.99 2 2.98 2 4 C1.01 4 0.02 4 -1 4 C-0.67 5.65 -0.34 7.3 0 9 C-1.875 8.875 -1.875 8.875 -4 8 C-5.25 4.9375 -5.25 4.9375 -6 2 C-4 2 -2 2 0 2 C0 1.34 0 0.68 0 0 Z " fill="#D73E3E" transform="translate(49,96)"/>
<path d="M0 0 C1.32 0 2.64 0 4 0 C3.67 1.65 3.34 3.3 3 5 C1.68 5 0.36 5 -1 5 C-1 5.99 -1 6.98 -1 8 C-1.66 8 -2.32 8 -3 8 C-3.33 6.35 -3.66 4.7 -4 3 C-3.01 3 -2.02 3 -1 3 C-0.67 2.01 -0.34 1.02 0 0 Z " fill="#F1BBBB" transform="translate(97,156)"/>
<path d="M0 0 C2.0625 2.25 2.0625 2.25 4 5 C3.75 7.3125 3.75 7.3125 3 9 C1.35 8.67 -0.3 8.34 -2 8 C-1.01 7.67 -0.02 7.34 1 7 C1 6.34 1 5.68 1 5 C0.01 4.67 -0.98 4.34 -2 4 C-2 3.34 -2 2.68 -2 2 C-1.34 2 -0.68 2 0 2 C0 1.34 0 0.68 0 0 Z " fill="#D73E3E" transform="translate(30,80)"/>
<path d="M0 0 C0.66 0.33 1.32 0.66 2 1 C-5.36794648 8.75014543 -5.36794648 8.75014543 -10 11 C-10.66 11 -11.32 11 -12 11 C-12 10.34 -12 9.68 -12 9 C-10.59317243 8.02861906 -9.18023481 7.06461244 -7.734375 6.15234375 C-4.96969283 4.31544907 -2.51847971 2.15869689 0 0 Z " fill="#FAE8E8" transform="translate(100,166)"/>
<path d="M0 0 C1.65 0 3.3 0 5 0 C5 1.98 5 3.96 5 6 C3.35 6.33 1.7 6.66 0 7 C0 4.69 0 2.38 0 0 Z " fill="#E99494" transform="translate(55,118)"/>
<path d="M0 0 C-2.34914492 2.34914492 -3.95679446 2.73140357 -7.125 3.625 C-8.03507812 3.88539063 -8.94515625 4.14578125 -9.8828125 4.4140625 C-10.58148438 4.60742188 -11.28015625 4.80078125 -12 5 C-12.66 4.34 -13.32 3.68 -14 3 C-12.23358317 2.3012307 -10.46167336 1.61633417 -8.6875 0.9375 C-7.20830078 0.36322266 -7.20830078 0.36322266 -5.69921875 -0.22265625 C-3 -1 -3 -1 0 0 Z " fill="#F5D0D0" transform="translate(89,177)"/>
<path d="M0 0 C1 3 1 3 0 6 C-1.65 6.33 -3.3 6.66 -5 7 C-5.33 5.68 -5.66 4.36 -6 3 C-2.25 0 -2.25 0 0 0 Z " fill="#ECA4A4" transform="translate(53,111)"/>
<path d="M0 0 C0 3.3 0 6.6 0 10 C-0.66 9.01 -1.32 8.02 -2 7 C-4.05003955 5.80767387 -4.05003955 5.80767387 -6 5 C-1.125 0 -1.125 0 0 0 Z " fill="#CA0101" transform="translate(110,84)"/>
<path d="M0 0 C0 4.38968456 -2.12805101 5.76905739 -5 9 C-5.99 8.34 -6.98 7.68 -8 7 C-5.36 4.69 -2.72 2.38 0 0 Z M-8 9 C-6 10 -6 10 -6 10 Z " fill="#CB0303" transform="translate(32,139)"/>
<path d="M0 0 C2.64 0 5.28 0 8 0 C8 0.99 8 1.98 8 3 C5.36 3 2.72 3 0 3 C0 2.01 0 1.02 0 0 Z " fill="#CB0202" transform="translate(82,144)"/>
<path d="M0 0 C1.32 0 2.64 0 4 0 C4 1.65 4 3.3 4 5 C2.35 5 0.7 5 -1 5 C-0.67 3.35 -0.34 1.7 0 0 Z " fill="#F3C6C6" transform="translate(105,91)"/>
<path d="M0 0 C0.66 0 1.32 0 2 0 C1.42647107 3.87132028 -0.48704352 6.08172796 -3 9 C-3.66 8.67 -4.32 8.34 -5 8 C-3.63055898 5.05043472 -2.12169591 2.47531189 0 0 Z " fill="#CF1818" transform="translate(41,127)"/>
<path d="M0 0 C1.32 0.33 2.64 0.66 4 1 C4 2.98 4 4.96 4 7 C2.68 6.67 1.36 6.34 0 6 C0 4.02 0 2.04 0 0 Z " fill="#EFB0B0" transform="translate(76,121)"/>
<path d="M0 0 C1.65 1.32 3.3 2.64 5 4 C4.34 4 3.68 4 3 4 C2.67 5.32 2.34 6.64 2 8 C1.34 8 0.68 8 0 8 C-0.66 6.02 -1.32 4.04 -2 2 C-1.34 1.34 -0.68 0.68 0 0 Z " fill="#FAEAEA" transform="translate(90,153)"/>
<path d="M0 0 C1.98 0.495 1.98 0.495 4 1 C4 2.32 4 3.64 4 5 C2.35 5 0.7 5 -1 5 C-0.67 3.35 -0.34 1.7 0 0 Z " fill="#F6D4D4" transform="translate(35,137)"/>
<path d="M0 0 C0.99 0 1.98 0 3 0 C3 0.99 3 1.98 3 3 C4.32 2.67 5.64 2.34 7 2 C6.67 3.65 6.34 5.3 6 7 C5.34 7 4.68 7 4 7 C3.67 6.34 3.34 5.68 3 5 C2.01 4.34 1.02 3.68 0 3 C0 2.01 0 1.02 0 0 Z " fill="#F7D9D9" transform="translate(24,102)"/>
<path d="M0 0 C2.64 0 5.28 0 8 0 C7.67 0.99 7.34 1.98 7 3 C5.02 3 3.04 3 1 3 C0.67 2.01 0.34 1.02 0 0 Z " fill="#CD0E0E" transform="translate(34,96)"/>
<path d="M0 0 C0.99 0.33 1.98 0.66 3 1 C3 2.32 3 3.64 3 5 C1.35 5 -0.3 5 -2 5 C-1.125 1.125 -1.125 1.125 0 0 Z " fill="#F9E5E5" transform="translate(36,166)"/>
<path d="M0 0 C0.99 0.33 1.98 0.66 3 1 C3 2.32 3 3.64 3 5 C1.35 5 -0.3 5 -2 5 C-1.125 1.125 -1.125 1.125 0 0 Z " fill="#F9E1E1" transform="translate(50,151)"/>
<path d="M0 0 C0.99 0.33 1.98 0.66 3 1 C3 2.32 3 3.64 3 5 C1.35 5 -0.3 5 -2 5 C-1.125 1.125 -1.125 1.125 0 0 Z " fill="#F8E0E0" transform="translate(24,150)"/>
<path d="M0 0 C0.99 0.33 1.98 0.66 3 1 C3 2.32 3 3.64 3 5 C1.35 5 -0.3 5 -2 5 C-1.125 1.125 -1.125 1.125 0 0 Z " fill="#F7D8D8" transform="translate(57,143)"/>
<path d="M0 0 C1.9375 0.3125 1.9375 0.3125 4 1 C4.33 1.99 4.66 2.98 5 4 C4 5 4 5 1.4375 5.0625 C0.2309375 5.0315625 0.2309375 5.0315625 -1 5 C-0.67 3.35 -0.34 1.7 0 0 Z " fill="#E48181" transform="translate(62,139)"/>
<path d="M0 0 C0.99 0.33 1.98 0.66 3 1 C2.67 2.65 2.34 4.3 2 6 C1.01 6 0.02 6 -1 6 C-1.042721 4.33388095 -1.04063832 2.66617115 -1 1 C-0.67 0.67 -0.34 0.34 0 0 Z " fill="#ECA2A2" transform="translate(48,130)"/>
<path d="M0 0 C0.99 0.33 1.98 0.66 3 1 C3 2.32 3 3.64 3 5 C1.35 5 -0.3 5 -2 5 C-1.125 1.125 -1.125 1.125 0 0 Z " fill="#F9E1E1" transform="translate(20,126)"/>
<path d="M0 0 C0.99 0.33 1.98 0.66 3 1 C3 2.32 3 3.64 3 5 C1.35 5 -0.3 5 -2 5 C-1.125 1.125 -1.125 1.125 0 0 Z " fill="#F8DFDF" transform="translate(106,119)"/>
<path d="M0 0 C0.99 0.33 1.98 0.66 3 1 C3 2.32 3 3.64 3 5 C1.35 5 -0.3 5 -2 5 C-1.125 1.125 -1.125 1.125 0 0 Z " fill="#F8DEDE" transform="translate(72,98)"/>
<path d="M0 0 C0.99 0.33 1.98 0.66 3 1 C3 2.32 3 3.64 3 5 C1.35 5 -0.3 5 -2 5 C-1.125 1.125 -1.125 1.125 0 0 Z " fill="#F9E2E2" transform="translate(79,91)"/>
<path d="M0 0 C0.99 0.33 1.98 0.66 3 1 C3 2.32 3 3.64 3 5 C1.35 5 -0.3 5 -2 5 C-1.125 1.125 -1.125 1.125 0 0 Z " fill="#F7D9D9" transform="translate(86,83)"/>
<path d="M0 0 C0.99 0.33 1.98 0.66 3 1 C3 2.32 3 3.64 3 5 C1.35 5 -0.3 5 -2 5 C-1.125 1.125 -1.125 1.125 0 0 Z " fill="#F9E3E3" transform="translate(93,76)"/>
<path d="M0 0 C0.99 0 1.98 0 3 0 C3 1.65 3 3.3 3 5 C1.35 4.67 -0.3 4.34 -2 4 C-1.34 2.68 -0.68 1.36 0 0 Z " fill="#F9E2E2" transform="translate(66,76)"/>
<path d="M0 0 C0.99 0 1.98 0 3 0 C3 1.65 3 3.3 3 5 C1.35 4.67 -0.3 4.34 -2 4 C-2 3.34 -2 2.68 -2 2 C-1.34 2 -0.68 2 0 2 C0 1.34 0 0.68 0 0 Z " fill="#F9E1E1" transform="translate(57,173)"/>
<path d="M0 0 C0.33 0.66 0.66 1.32 1 2 C1.99 1.67 2.98 1.34 4 1 C4.33 1.99 4.66 2.98 5 4 C3.35 4.66 1.7 5.32 0 6 C0 5.01 0 4.02 0 3 C-0.66 2.67 -1.32 2.34 -2 2 C-1.34 2 -0.68 2 0 2 C0 1.34 0 0.68 0 0 Z " fill="#ECA2A2" transform="translate(79,163)"/>
<path d="M0 0 C0.66 1.32 1.32 2.64 2 4 C0.625 7.75 0.625 7.75 -1 11 C-1.66 10.34 -2.32 9.68 -3 9 C-2.01 6.03 -1.02 3.06 0 0 Z " fill="#F6D2D2" transform="translate(109,147)"/>
<path d="M0 0 C2.64 0 5.28 0 8 0 C7.01 1.485 7.01 1.485 6 3 C3.375 3.1875 3.375 3.1875 1 3 C0.67 2.01 0.34 1.02 0 0 Z " fill="#CC0B0B" transform="translate(82,151)"/>
<path d="M0 0 C1.65 0.33 3.3 0.66 5 1 C4.67 1.99 4.34 2.98 4 4 C2.35 3.67 0.7 3.34 -1 3 C-0.67 2.01 -0.34 1.02 0 0 Z " fill="#FAE9E9" transform="translate(62,61)"/>
<path d="M0 0 C1.32 0 2.64 0 4 0 C4 0.99 4 1.98 4 3 C4.66 3 5.32 3 6 3 C5.67 4.32 5.34 5.64 5 7 C4.67 6.34 4.34 5.68 4 5 C1.98330173 3.86649466 1.98330173 3.86649466 0 3 C0 2.01 0 1.02 0 0 Z " fill="#F9E3E3" transform="translate(71,157)"/>
<path d="M0 0 C0.99 0.99 1.98 1.98 3 3 C2.34 4.32 1.68 5.64 1 7 C0.34 6.67 -0.32 6.34 -1 6 C-1 5.34 -1 4.68 -1 4 C-1.99 3.67 -2.98 3.34 -4 3 C-2.68 3 -1.36 3 0 3 C0 2.01 0 1.02 0 0 Z " fill="#D63737" transform="translate(102,99)"/>
<path d="M0 0 C0.66 0 1.32 0 2 0 C2 1.65 2 3.3 2 5 C0.35 5 -1.3 5 -3 5 C-1.125 1.125 -1.125 1.125 0 0 Z " fill="#F8DEDE" transform="translate(100,97)"/>
<path d="M0 0 C0.99 0.495 0.99 0.495 2 1 C2.59355614 3.64860427 2.74209269 6.29197322 3 9 C2.01 8.67 1.02 8.34 0 8 C0 5.36 0 2.72 0 0 Z " fill="#CD1010" transform="translate(88,156)"/>
<path d="M0 0 C0 1.32 0 2.64 0 4 C-1.65 4 -3.3 4 -5 4 C-5 3.01 -5 2.02 -5 1 C-3 0 -3 0 0 0 Z " fill="#F9E4E4" transform="translate(46,159)"/>
<path d="M0 0 C0.99 0.495 0.99 0.495 2 1 C1.01 1.495 1.01 1.495 0 2 C0 1.34 0 0.68 0 0 Z M-3 4 C-2.01 4.66 -1.02 5.32 0 6 C-1.65 7.32 -3.3 8.64 -5 10 C-5.33 9.01 -5.66 8.02 -6 7 C-5.01 6.01 -4.02 5.02 -3 4 Z " fill="#D12121" transform="translate(108,113)"/>
<path d="M0 0 C0.99 0.33 1.98 0.66 3 1 C3 2.32 3 3.64 3 5 C1.35 4.67 -0.3 4.34 -2 4 C-1.34 2.68 -0.68 1.36 0 0 Z " fill="#FCF1F1" transform="translate(87,111)"/>
<path d="M0 0 C0.66 0.33 1.32 0.66 2 1 C2 2.32 2 3.64 2 5 C0.35 5 -1.3 5 -3 5 C-1.125 1.125 -1.125 1.125 0 0 Z " fill="#FCF1F1" transform="translate(94,104)"/>
<path d="M0 0 C0.66 0 1.32 0 2 0 C2 1.65 2 3.3 2 5 C0.68 5 -0.64 5 -2 5 C-1.125 1.125 -1.125 1.125 0 0 Z " fill="#F9E5E5" transform="translate(30,143)"/>
<path d="M0 0 C1.98 0.495 1.98 0.495 4 1 C4 3.31 4 5.62 4 8 C3.67 8 3.34 8 3 8 C2.67 6.35 2.34 4.7 2 3 C1.01 3.33 0.02 3.66 -1 4 C-0.67 2.68 -0.34 1.36 0 0 Z " fill="#D63535" transform="translate(39,134)"/>
<path d="M0 0 C1.32 0.33 2.64 0.66 4 1 C4 2.65 4 4.3 4 6 C2.66666667 6 1.33333333 6 0 6 C0 4.02 0 2.04 0 0 Z " fill="#EEAEAE" transform="translate(69,127)"/>
<path d="M0 0 C1.98 0.66 3.96 1.32 6 2 C5.67 2.66 5.34 3.32 5 4 C4.01 4 3.02 4 2 4 C1.34 4.66 0.68 5.32 0 6 C0 5.01 0 4.02 0 3 C-0.66 2.67 -1.32 2.34 -2 2 C-1.34 2 -0.68 2 0 2 C0 1.34 0 0.68 0 0 Z " fill="#F6D4D4" transform="translate(31,108)"/>
<path d="M0 0 C0.99 0 1.98 0 3 0 C3 0.66 3 1.32 3 2 C3.99 2 4.98 2 6 2 C6 2.66 6 3.32 6 4 C4.35 4 2.7 4 1 4 C0.67 2.68 0.34 1.36 0 0 Z " fill="#D22323" transform="translate(42,85)"/>
<path d="M0 0 C1.98 0.495 1.98 0.495 4 1 C4 1.99 4 2.98 4 4 C2.35 3.67 0.7 3.34 -1 3 C-0.67 2.01 -0.34 1.02 0 0 Z " fill="#FAE9E9" transform="translate(92,64)"/>
<path d="M0 0 C1.98 0.495 1.98 0.495 4 1 C3.67 1.99 3.34 2.98 3 4 C1.68 4 0.36 4 -1 4 C-0.67 2.68 -0.34 1.36 0 0 Z " fill="#FAE9E9" transform="translate(33,64)"/>
<path d="M0 0 C0.99 0.33 1.98 0.66 3 1 C2.67 2.32 2.34 3.64 2 5 C0.68 4.34 -0.64 3.68 -2 3 C-1.34 2.01 -0.68 1.02 0 0 Z " fill="#F7D8D8" transform="translate(78,61)"/>
</svg>
