<?xml version="1.0" encoding="UTF-8"?>
<svg version="1.1" xmlns="http://www.w3.org/2000/svg" width="400" height="400">
<path d="M0 0 C132 0 264 0 400 0 C400 132 400 264 400 400 C268 400 136 400 0 400 C0 268 0 136 0 0 Z " fill="#F7F7F7" transform="translate(0,0)"/>
<path d="M0 0 C78.21 0 156.42 0 237 0 C237 78.21 237 156.42 237 237 C158.79 237 80.58 237 0 237 C0 158.79 0 80.58 0 0 Z " fill="#030303" transform="translate(82,82)"/>
<path d="M0 0 C6.93 0 13.86 0 21 0 C20.99214478 3.42983276 20.99214478 3.42983276 20.98413086 6.92895508 C20.96757446 14.47665602 20.95652053 22.02435775 20.94818783 29.57207203 C20.94296522 34.14905061 20.93587882 38.72601062 20.92456055 43.30297852 C20.91370962 47.71849946 20.90771846 52.13400251 20.90512276 56.54953575 C20.9032725 58.2356666 20.89965951 59.92179645 20.89426994 61.60791969 C20.88703028 63.96625524 20.8860103 66.32451649 20.88647461 68.68286133 C20.8810817 69.73266678 20.8810817 69.73266678 20.87557983 70.80368042 C20.88202858 73.82289873 21.03648231 76.10944692 22 79 C22.06937062 81.22818441 22.08457084 83.45834524 22.0625 85.6875 C22.05347656 86.86699219 22.04445313 88.04648438 22.03515625 89.26171875 C22.02355469 90.16535156 22.01195312 91.06898438 22 92 C21.18208984 92.16435547 21.18208984 92.16435547 20.34765625 92.33203125 C15.37536128 93.37748814 10.63437646 94.70874066 5.84765625 96.4140625 C4 97 4 97 2 97 C2 90.07 2 83.14 2 76 C0.68 77.32 -0.64 78.64 -2 80 C-2.66 80 -3.32 80 -4 80 C-4 80.66 -4 81.32 -4 82 C-15.71402351 92.44577294 -28.11259345 96.18943549 -43.4375 96.125 C-44.35337891 96.12886719 -45.26925781 96.13273437 -46.21289062 96.13671875 C-51.25010572 96.12948657 -56.03556902 95.86041032 -61 95 C-61 94.34 -61 93.68 -61 93 C-61.969375 92.95875 -62.93875 92.9175 -63.9375 92.875 C-72.40417936 91.67283457 -79.29177398 84.53573953 -84.25 78.0625 C-87.17090338 72.95091909 -87.12428933 67.8676599 -87.11352539 62.07666016 C-87.11367142 61.4125412 -87.11381744 60.74842224 -87.1139679 60.06417847 C-87.11327634 57.88910551 -87.10551973 55.71412032 -87.09765625 53.5390625 C-87.09578938 52.02306159 -87.09436675 50.50706008 -87.09336853 48.99105835 C-87.08956456 45.01595369 -87.07975253 41.04088602 -87.06866455 37.0657959 C-87.0584047 33.00350444 -87.05386114 28.94120696 -87.04882812 24.87890625 C-87.03812822 16.91925203 -87.02054874 8.95963489 -87 1 C-81.06 1 -75.12 1 -69 1 C-68.67 22.12 -68.34 43.24 -68 65 C-67.34 65 -66.68 65 -66 65 C-65.814375 66.051875 -65.62875 67.10375 -65.4375 68.1875 C-64.29623328 72.21454113 -62.26151366 73.82265636 -58.79296875 76.00390625 C-46.79527716 82.66929047 -26.91646545 81.53751512 -14 78 C-7.5922362 75.1307007 -3.88951569 71.60500765 -1.375 65.0625 C1.67030482 55.13960853 1.1672173 44.22419849 1.125 33.9375 C1.12306641 32.77951904 1.12113281 31.62153809 1.11914062 30.4284668 C1.06871629 20.25745917 0.61065224 10.15209353 0 0 Z " fill="#F7F7F7" transform="translate(233,153)"/>
<path d="M0 0 C1.25790851 1.42342279 2.50762636 2.85665817 3.6796875 4.3515625 C5.60509151 6.75546928 7.79665895 8.85174247 10 11 C11.66666667 12.66666667 13.33333333 14.33333333 15 16 C18.69754402 14.76748533 19.62232923 12.99126323 22 10 C22.66 10 23.32 10 24 10 C24.2475 9.4225 24.495 8.845 24.75 8.25 C26.18299988 5.67060021 27.78424676 3.93878408 30 2 C30.66 2 31.32 2 32 2 C32 1.34 32 0.68 32 0 C35 0 35 0 36.82421875 1.609375 C37.74654297 2.66898438 37.74654297 2.66898438 38.6875 3.75 C39.31011719 4.44609375 39.93273437 5.1421875 40.57421875 5.859375 C42 8 42 8 42 12 C39.8828125 14.578125 39.8828125 14.578125 37.125 17.25 C36.22007812 18.14203125 35.31515625 19.0340625 34.3828125 19.953125 C32 22 32 22 30 22 C29.34 23.32 28.68 24.64 28 26 C27.34 26 26.68 26 26 26 C29.46187751 30.487619 33.08434735 34.50485646 37.5625 38 C40.16721188 40.13719949 42.13032087 42.1954813 44 45 C42.87994369 48.36016893 41.62788203 49.69064913 39 52 C38.34 52 37.68 52 37 52 C36.67 52.99 36.34 53.98 36 55 C28.76823365 53.75980844 23.19452411 46.63639178 19 41 C19 40.34 19 39.68 19 39 C14.95774147 39.50967796 13.11334188 40.42091724 10.37109375 43.4140625 C9.40719727 44.43113281 9.40719727 44.43113281 8.42382812 45.46875 C7.09392207 46.91242383 5.76581025 48.35775246 4.43945312 49.8046875 C3.79814453 50.48015625 3.15683594 51.155625 2.49609375 51.8515625 C1.92044678 52.47885254 1.3447998 53.10614258 0.75170898 53.75244141 C-1 55 -1 55 -3.04663086 54.81787109 C-5.81079474 53.66052214 -7.80145228 52.01533541 -10 50 C-10 49.34 -10 48.68 -10 48 C-10.66 48 -11.32 48 -12 48 C-11.58181281 43.12114941 -9.55070071 41.22040297 -6 38 C-5.278125 37.236875 -4.55625 36.47375 -3.8125 35.6875 C-2 34 -2 34 0 34 C0.33 33.01 0.66 32.02 1 31 C2.62652316 29.29413425 4.29006566 27.6222454 6 26 C4.68 25.34 3.36 24.68 2 24 C2 23.34 2 22.68 2 22 C1.43796875 21.76539063 0.8759375 21.53078125 0.296875 21.2890625 C-2.54635891 19.69337 -4.48098127 17.71075457 -6.75 15.375 C-7.54921875 14.55773437 -8.3484375 13.74046875 -9.171875 12.8984375 C-9.77515625 12.27195313 -10.3784375 11.64546875 -11 11 C-9.65319085 8.08728356 -8.12551255 5.70671723 -6.0625 3.25 C-5.55847656 2.63640625 -5.05445313 2.0228125 -4.53515625 1.390625 C-3 0 -3 0 0 0 Z " fill="#F4F4F4" transform="translate(184,160)"/>
<path d="M0 0 C2.48461933 0.9217929 3.70769567 2.04394324 5.55102539 3.93847656 C6.16977539 4.56689453 6.78852539 5.1953125 7.42602539 5.84277344 C8.06024414 6.50212891 8.69446289 7.16148437 9.34790039 7.84082031 C9.99758789 8.50404297 10.64727539 9.16726563 11.31665039 9.85058594 C12.91736799 11.48661348 14.51066232 13.12922944 16.09790039 14.77832031 C19.46762086 13.23906528 20.9136506 11.75684276 23.09790039 8.77832031 C23.75790039 8.77832031 24.41790039 8.77832031 25.09790039 8.77832031 C25.09790039 8.11832031 25.09790039 7.45832031 25.09790039 6.77832031 C26.70727539 5.01660156 26.70727539 5.01660156 28.84790039 3.09082031 C29.54399414 2.44757813 30.24008789 1.80433594 30.95727539 1.14160156 C33.09790039 -0.22167969 33.09790039 -0.22167969 35.15649414 -0.13574219 C37.47344778 0.95513739 38.73933132 2.15437055 40.41040039 4.09082031 C40.9427832 4.68507813 41.47516602 5.27933594 42.02368164 5.89160156 C43.09790039 7.77832031 43.09790039 7.77832031 42.86254883 9.68041992 C41.95380298 12.17366803 40.83459526 13.38586044 38.93774414 15.23144531 C38.30932617 15.85019531 37.6809082 16.46894531 37.03344727 17.10644531 C36.3740918 17.74066406 35.71473633 18.37488281 35.03540039 19.02832031 C34.37217773 19.67800781 33.70895508 20.32769531 33.02563477 20.99707031 C31.38960722 22.59778791 29.74699127 24.19108224 28.09790039 25.77832031 C31.87420191 30.29404335 35.77399467 34.59108005 39.97290039 38.71582031 C40.47047852 39.20888672 40.96805664 39.70195312 41.48071289 40.20996094 C42.68410324 41.40178023 43.89065404 42.59040709 45.09790039 43.77832031 C43.79345472 46.62946586 42.39237608 48.82579777 40.22290039 51.09082031 C39.73047852 51.62320313 39.23805664 52.15558594 38.73071289 52.70410156 C37.09790039 53.77832031 37.09790039 53.77832031 35.2253418 53.55664062 C32.62967151 52.60701968 31.35150413 51.37468966 29.42602539 49.39941406 C28.7621582 48.72587891 28.09829102 48.05234375 27.41430664 47.35839844 C26.73239258 46.65134766 26.05047852 45.94429688 25.34790039 45.21582031 C24.30182617 44.14944336 24.30182617 44.14944336 23.23461914 43.06152344 C21.51543459 41.30701317 19.80364167 39.54588679 18.09790039 37.77832031 C15.04012596 39.13275117 13.05368882 40.62536767 10.78540039 43.07128906 C10.18469727 43.70099609 9.58399414 44.33070313 8.96508789 44.97949219 C7.71443596 46.30994513 6.46967535 47.64595935 5.23071289 48.98730469 C4.63000977 49.61314453 4.02930664 50.23898437 3.41040039 50.88378906 C2.8702832 51.46281982 2.33016602 52.04185059 1.77368164 52.63842773 C0.09790039 53.77832031 0.09790039 53.77832031 -1.9753418 53.56103516 C-4.50411744 52.5337601 -6.14473451 51.05590499 -8.15209961 49.21582031 C-9.21170898 48.25482422 -9.21170898 48.25482422 -10.29272461 47.27441406 C-10.82381836 46.78070313 -11.35491211 46.28699219 -11.90209961 45.77832031 C-10.18560592 41.99101084 -8.17433181 40.3493599 -4.90209961 37.77832031 C-3.81928711 36.41707031 -3.81928711 36.41707031 -2.71459961 35.02832031 C-2.11647461 34.28582031 -1.51834961 33.54332031 -0.90209961 32.77832031 C-0.24209961 32.77832031 0.41790039 32.77832031 1.09790039 32.77832031 C1.42790039 31.78832031 1.75790039 30.79832031 2.09790039 29.77832031 C3.66040039 28.09082031 3.66040039 28.09082031 5.09790039 26.77832031 C3.83297136 22.98353322 1.9925501 21.54711568 -0.90209961 18.77832031 C-2.72112269 16.93191409 -4.5367479 15.08222671 -6.35131836 13.23144531 C-7.85723935 11.68190227 -7.85723935 11.68190227 -9.90209961 10.77832031 C-9.31814755 7.26682191 -8.06930316 5.48800273 -5.58959961 2.96582031 C-4.9953418 2.340625 -4.40108398 1.71542969 -3.78881836 1.07128906 C-1.90209961 -0.22167969 -1.90209961 -0.22167969 0 0 Z " fill="#F7F7F7" transform="translate(182.902099609375,253.2216796875)"/>
<path d="M0 0 C2.93788913 2.69306503 5.5035253 5.57366561 8.0625 8.625 C11.13104216 12.27567492 11.13104216 12.27567492 15 15 C18.95748813 14.62951175 20.815591 12.52634081 23.5 9.75 C24.28246094 8.94175781 25.06492188 8.13351563 25.87109375 7.30078125 C28.0417257 4.95490562 30.09496107 2.56766117 32 0 C35.01614813 1.1170919 36.64508669 2.6125776 38.625 5.0625 C40.67119397 8.00824713 40.67119397 8.00824713 43 9 C41.68888414 11.91267127 40.30079093 13.92552991 37.99609375 16.12890625 C37.42052734 16.68900391 36.84496094 17.24910156 36.25195312 17.82617188 C35.65318359 18.39916016 35.05441406 18.97214844 34.4375 19.5625 C33.24409708 20.70484825 32.05508546 21.85180657 30.87109375 23.00390625 C30.34443115 23.50736572 29.81776855 24.0108252 29.27514648 24.52954102 C27.75728678 26.09043903 27.75728678 26.09043903 27 29 C27.5775 29.226875 28.155 29.45375 28.75 29.6875 C31.59591381 31.34761639 32.99841921 33.39187957 35 36 C35.825 36.825 36.65 37.65 37.5 38.5 C39.87675345 40.87675345 41.94892056 43.34119332 44 46 C38.71698113 52.79245283 38.71698113 52.79245283 36 55 C32.45287217 54.64958178 30.76138746 53.11728541 28.328125 50.62109375 C27.66425781 49.94755859 27.00039062 49.27402344 26.31640625 48.58007812 C25.63449219 47.87302734 24.95257813 47.16597656 24.25 46.4375 C23.20392578 45.37112305 23.20392578 45.37112305 22.13671875 44.28320312 C20.4175342 42.52869286 18.70574128 40.76756648 17 39 C12.27694331 41.20805376 9.3115454 44.57798392 5.8203125 48.36328125 C5.03398437 49.19214844 4.24765625 50.02101562 3.4375 50.875 C2.69371094 51.67679688 1.94992188 52.47859375 1.18359375 53.3046875 C-1 55 -1 55 -3.04296875 54.98046875 C-5.42366581 53.78774427 -6.92243169 52.37050495 -8.75 50.4375 C-9.67039063 49.47650391 -9.67039063 49.47650391 -10.609375 48.49609375 C-11.06828125 48.00238281 -11.5271875 47.50867188 -12 47 C-10.64556914 43.94222557 -9.15295264 41.95578843 -6.70703125 39.6875 C-6.07732422 39.08679688 -5.44761719 38.48609375 -4.79882812 37.8671875 C-3.46837518 36.61653557 -2.13236097 35.37177496 -0.79101562 34.1328125 C-0.16517578 33.53210938 0.46066406 32.93140625 1.10546875 32.3125 C1.68449951 31.77238281 2.26353027 31.23226562 2.86010742 30.67578125 C4.23809592 29.04372178 4.23809592 29.04372178 3.75146484 26.89770508 C1.13365825 20.28685041 -5.70302455 15.42310894 -11 11 C-9.60249952 7.84164893 -7.94801766 5.67727175 -5.5 3.25 C-4.8915625 2.63640625 -4.283125 2.0228125 -3.65625 1.390625 C-2 0 -2 0 0 0 Z " fill="#F5F5F5" transform="translate(184,91)"/>
<path d="M0 0 C0 3 0 3 -1.17749023 4.48632812 C-1.71575439 4.99615234 -2.25401855 5.50597656 -2.80859375 6.03125 C-3.39060547 6.59457031 -3.97261719 7.15789062 -4.57226562 7.73828125 C-5.18779297 8.31964844 -5.80332031 8.90101563 -6.4375 9.5 C-7.64903365 10.65153146 -8.85626744 11.80760835 -10.05859375 12.96875 C-10.86768188 13.73348633 -10.86768188 13.73348633 -11.69311523 14.51367188 C-13.24370727 16.08286943 -13.24370727 16.08286943 -14 19 C-14.66 19 -15.32 19 -16 19 C-15.58181281 14.12114941 -13.55070071 12.22040297 -10 9 C-9.278125 8.236875 -8.55625 7.47375 -7.8125 6.6875 C-6 5 -6 5 -4 5 C-3.67 4.01 -3.34 3.02 -3 2 C-2.01 1.34 -1.02 0.68 0 0 Z " fill="#C5C5C5" transform="translate(188,189)"/>
<path d="M0 0 C0.66 0.33 1.32 0.66 2 1 C-4.33333333 7.33333333 -10.66666667 13.66666667 -17 20 C-17.99 19.34 -18.98 18.68 -20 18 C-19.67 17.34 -19.34 16.68 -19 16 C-18.09266113 15.79515991 -18.09266113 15.79515991 -17.16699219 15.58618164 C-14.42271278 14.84384107 -13.30322464 13.64727355 -11.328125 11.62109375 C-10.66425781 10.94755859 -10.00039062 10.27402344 -9.31640625 9.58007812 C-8.29353516 8.51950195 -8.29353516 8.51950195 -7.25 7.4375 C-6.55261719 6.72658203 -5.85523438 6.01566406 -5.13671875 5.28320312 C-3.4175342 3.52869286 -1.70574128 1.76756648 0 0 Z " fill="#262626" transform="translate(199,290)"/>
<path d="M0 0 C0.33 0.99 0.66 1.98 1 3 C0.48308594 3.45890625 -0.03382813 3.9178125 -0.56640625 4.390625 C-1.22511719 5.00421875 -1.88382813 5.6178125 -2.5625 6.25 C-3.22378906 6.85328125 -3.88507813 7.4565625 -4.56640625 8.078125 C-6.27505507 9.90452353 -6.27505507 9.90452353 -5.71484375 12.234375 C-5.47894531 12.81703125 -5.24304688 13.3996875 -5 14 C-6.32 13.01 -7.64 12.02 -9 11 C-7.49770909 7.17598678 -5.1988409 5.4791017 -2 3 C-1.34 2.01 -0.68 1.02 0 0 Z " fill="#B4B4B4" transform="translate(180,288)"/>
<path d="M0 0 C-1.40844718 3.21524305 -3.10344786 5.32183868 -5.625 7.75 C-6.57246094 8.67039062 -6.57246094 8.67039062 -7.5390625 9.609375 C-8.02117187 10.06828125 -8.50328125 10.5271875 -9 11 C-9.66 10.67 -10.32 10.34 -11 10 C-9.71937515 8.2925002 -8.38232443 6.62626404 -7 5 C-6.34 5 -5.68 5 -5 5 C-5 4.34 -5 3.68 -5 3 C-2.46153846 0 -2.46153846 0 0 0 Z " fill="#C9C9C9" transform="translate(213,257)"/>
<path d="M0 0 C0.66 0.33 1.32 0.66 2 1 C-0.64 3.64 -3.28 6.28 -6 9 C-6.66 8.67 -7.32 8.34 -8 8 C-5.33333333 5.33333333 -2.66666667 2.66666667 0 0 Z " fill="#353535" transform="translate(199,129)"/>
</svg>
