<?xml version="1.0" encoding="UTF-8"?>
<svg version="1.1" xmlns="http://www.w3.org/2000/svg" width="1000" height="562">
<path d="M0 0 C330 0 660 0 1000 0 C1000 185.46 1000 370.92 1000 562 C670 562 340 562 0 562 C0 376.54 0 191.08 0 0 Z " fill="#F1F2F2" transform="translate(0,0)"/>
<path d="M0 0 C1.98 3.96 3.96 7.92 6 12 C-0.75 17 -0.75 17 -3 17 C-3 17.66 -3 18.32 -3 19 C-0.36 19 2.28 19 5 19 C5.16435547 18.07380859 5.16435547 18.07380859 5.33203125 17.12890625 C6.4377266 11.22287499 7.95361435 5.64802441 10 0 C11.93742341 -0.02703381 13.87495479 -0.04641125 15.8125 -0.0625 C16.89144531 -0.07410156 17.97039062 -0.08570313 19.08203125 -0.09765625 C22 0 22 0 25 1 C23.23536928 7.10737442 21.30442525 13.07433507 19 19 C21.31 18.67 23.62 18.34 26 18 C24.68 17.34 23.36 16.68 22 16 C23.57780923 12.28954753 25.90703248 9.70093616 28.625 6.75 C29.44226563 5.85796875 30.25953125 4.9659375 31.1015625 4.046875 C31.72804688 3.37140625 32.35453125 2.6959375 33 2 C37.07956938 3.55676923 40.48095576 5.38117638 44 8 C44 8.66 44 9.32 44 10 C42.06640625 11.65625 42.06640625 11.65625 39.5625 13.5 C36.25143208 15.79910263 36.25143208 15.79910263 34 19 C36.97 19 39.94 19 43 19 C42.34 22.3 41.68 25.6 41 29 C27.635 29.495 27.635 29.495 14 30 C13.34 31.32 12.68 32.64 12 34 C22.56 34 33.12 34 44 34 C43.01 38.95 43.01 38.95 42 44 C36.39 44 30.78 44 25 44 C28.70167017 47.74257721 28.70167017 47.74257721 32.9375 50.125 C33.97197266 50.61613281 33.97197266 50.61613281 35.02734375 51.1171875 C37.32721602 52.14643727 39.64061143 53.11522929 42 54 C41.62488281 54.43570313 41.24976563 54.87140625 40.86328125 55.3203125 C37.54140223 59.18607599 34.25357073 63.07657648 31 67 C27.00499382 65.6302836 24.19990508 63.74277578 21 61 C20.34 63.31 19.68 65.62 19 68 C23.29 68 27.58 68 32 68 C30.44902123 76.09955578 28.56342809 83.85770944 26 91.6875 C25.62657471 92.85418213 25.62657471 92.85418213 25.24560547 94.04443359 C24.87653076 95.14198975 24.87653076 95.14198975 24.5 96.26171875 C24.2834375 96.91100342 24.066875 97.56028809 23.84375 98.22924805 C22.23042137 101.61509081 20.40936855 102.84126526 16.9375 104.1875 C12.31731191 105.38716257 7.74293272 105.12994336 3 105 C2.01 99.06 2.01 99.06 1 93 C-9.56 93 -20.12 93 -31 93 C-30 84 -30 84 -29 83 C-26.1156618 82.91134792 -23.25537842 82.88478704 -20.37109375 82.90234375 C-19.07474754 82.90446617 -19.07474754 82.90446617 -17.75221252 82.90663147 C-14.98060708 82.91224761 -12.2090812 82.92480281 -9.4375 82.9375 C-7.5631522 82.94251292 -5.68880315 82.94707619 -3.81445312 82.95117188 C0.79039544 82.96222228 5.39518421 82.9794977 10 83 C10 85.97 10 88.94 10 92 C10.64995297 90.58521865 11.29478722 89.16808513 11.9375 87.75 C12.29714844 86.96109375 12.65679688 86.1721875 13.02734375 85.359375 C14.15875123 82.77731888 14.15875123 82.77731888 15 79 C2.79 79 -9.42 79 -22 79 C-21.01 75.37 -20.02 71.74 -19 68 C-21.475 68.99 -21.475 68.99 -24 70 C-27 66.25 -27 66.25 -27 64 C-27.66 64 -28.32 64 -29 64 C-29.08636719 64.62261719 -29.17273438 65.24523437 -29.26171875 65.88671875 C-30.34014191 72.98056654 -31.76461859 79.99509911 -33.3125 87 C-33.50094482 87.91998779 -33.68938965 88.83997559 -33.88354492 89.7878418 C-34.85362597 94.0382615 -35.4266694 96.42052344 -38.55078125 99.578125 C-43.0953232 102.21642368 -46.75999461 102.10076933 -52 102 C-52.495 95.565 -52.495 95.565 -53 89 C-50.03 88.01 -50.03 88.01 -47 87 C-45.85142843 85.28947424 -45.85142843 85.28947424 -45.57421875 83.19140625 C-45.41759766 82.44439453 -45.26097656 81.69738281 -45.09960938 80.92773438 C-44.96361328 80.14720703 -44.82761719 79.36667969 -44.6875 78.5625 C-44.37940704 77.02203518 -44.07083216 75.48166663 -43.76171875 73.94140625 C-43.63756592 73.25763916 -43.51341309 72.57387207 -43.38549805 71.86938477 C-43 70 -43 70 -42 67 C-44.31 67 -46.62 67 -49 67 C-49.06316406 67.53625 -49.12632812 68.0725 -49.19140625 68.625 C-51.09296084 80.79494935 -57.35632414 92.18078729 -63 103 C-63.66 103 -64.32 103 -65 103 C-70 97.52380952 -70 97.52380952 -70 95 C-70.66 95 -71.32 95 -72 95 C-71.39934179 90.71635857 -69.83721353 87.6410592 -67.75 83.875 C-59.63986984 68.18621379 -57.39479327 49.83588698 -53.85375977 32.69140625 C-53.68788864 31.88907562 -53.52201752 31.086745 -53.35112 30.26010132 C-53.04321757 28.7674323 -52.73667866 27.27448088 -52.43196106 25.78115845 C-51.06732926 19.15570096 -49.52279166 12.59876388 -48 6 C-37.77 6 -27.54 6 -17 6 C-20.13831459 23.78378268 -23.53174501 41.49591852 -28 59 C-18.64295877 52.4196213 -18.64295877 52.4196213 -11 44 C-14.63 44 -18.26 44 -22 44 C-21.34 40.7 -20.68 37.4 -20 34 C-14.06 34 -8.12 34 -2 34 C-1.67 32.35 -1.34 30.7 -1 29 C-5.95 29 -10.9 29 -16 29 C-15.34 25.7 -14.68 22.4 -14 19 C-11.69 19 -9.38 19 -7 19 C-9.31 15.37 -11.62 11.74 -14 8 C-2.65454545 0 -2.65454545 0 0 0 Z " fill="#0776B8" transform="translate(778,229)"/>
<path d="M0 0 C4.60368377 3.82504804 7.61722056 8.60166169 9.5 14.25 C9.62209024 16.64353663 9.67548085 19.04088173 9.6875 21.4375 C9.70167969 22.70980469 9.71585937 23.98210937 9.73046875 25.29296875 C9.5 29.25 9.5 29.25 7.5 37.25 C-15.6 37.25 -38.7 37.25 -62.5 37.25 C-59.82555337 47.855231 -59.82555337 47.855231 -52.29296875 54.5 C-40.62107672 59.53973749 -28.70836476 57.72831334 -16.78515625 54.78515625 C-11.76026664 53.96659516 -7.34959189 54.87429944 -2.5 56.25 C-4.39696436 61.94089309 -12.11626195 64.5598234 -17.2890625 67.17822266 C-32.36261868 74.48530212 -50.34065988 76.39174154 -66.4375 71.1875 C-74.79384412 67.58319736 -80.87030875 62.66022021 -84.65234375 54.25 C-87.536058 44.04404359 -85.97873124 33.71887471 -81.5 24.25 C-81.19964844 23.53457031 -80.89929688 22.81914062 -80.58984375 22.08203125 C-75.38478873 10.4326224 -64.90715637 2.40218872 -53.4375 -2.625 C-36.94973616 -8.86304568 -15.17489465 -10.28520638 0 0 Z " fill="#0475B8" transform="translate(231.5,258.75)"/>
<path d="M0 0 C0.89396484 -0.00773438 1.78792969 -0.01546875 2.70898438 -0.0234375 C12.66973594 0.00570881 22.55060416 2.18998471 30.30078125 8.8515625 C36.95419341 16.08281443 37.77105176 23.07481835 37.73828125 32.6875 C37.4375 36.25 37.4375 36.25 35.4375 44.25 C12.3375 44.25 -10.7625 44.25 -34.5625 44.25 C-32.28473097 53.36107613 -30.43792306 57.49153932 -22.66015625 62.26953125 C-12.73589366 66.90824617 0.38694902 64.53651225 10.51953125 61.85546875 C15.76717817 60.76659958 20.36605066 61.55951689 25.4375 63.25 C24.01198416 67.52654751 20.88456831 68.62577363 17.125 70.6875 C16.04436279 71.28691406 16.04436279 71.28691406 14.94189453 71.8984375 C-0.61528187 80.30958539 -19.53654805 83.50601339 -36.8125 78.625 C-46.04650496 75.25103665 -52.31469147 69.80279678 -56.671875 61.01171875 C-59.79597818 51.32425845 -57.92319577 40.18445484 -53.5625 31.25 C-53.17707031 30.44949219 -52.79164063 29.64898437 -52.39453125 28.82421875 C-45.43268521 15.41872233 -33.87795933 6.8783064 -19.5625 2.25 C-13.00309811 0.39122238 -6.79706015 -0.05906207 0 0 Z " fill="#0575B8" transform="translate(491.5625,251.75)"/>
<path d="M0 0 C3.87937686 3.23281405 6.31587061 6.3486553 7.16503906 11.39990234 C7.09091008 22.02258575 5.03866699 31.57852066 2.375 41.8125 C1.97372901 43.41628428 1.57398335 45.02045099 1.17578125 46.625 C-1.06720032 55.57558423 -3.57619345 64.39308493 -6.375 73.1875 C-13.635 73.1875 -20.895 73.1875 -28.375 73.1875 C-26.45567105 64.01737278 -24.4105651 54.88072831 -22.3125 45.75 C-22.0551709 44.62480957 -21.7978418 43.49961914 -21.53271484 42.34033203 C-19.44961423 33.3117673 -19.44961423 33.3117673 -18.21484375 29.1953125 C-17.07619001 25.11734329 -16.69381106 21.38005573 -17.375 17.1875 C-19.25120613 14.68589182 -20.61391303 13.56804348 -23.375 12.1875 C-31.78514677 11.4979584 -40.15979382 11.31956977 -47.375 16.1875 C-60.27238865 28.62935174 -62.23952469 56.27617666 -66.375 73.1875 C-73.965 73.1875 -81.555 73.1875 -89.375 73.1875 C-87.39678772 64.0291098 -85.36504768 54.92443247 -82.9375 45.875 C-81.12810064 39.12637286 -79.42277161 32.3614935 -77.8125 25.5625 C-77.60592773 24.69294678 -77.39935547 23.82339355 -77.18652344 22.92749023 C-76.17860595 18.66300893 -75.19365521 14.3946264 -74.2421875 10.1171875 C-74.06373291 9.32650879 -73.88527832 8.53583008 -73.70141602 7.72119141 C-73.36649543 6.23290299 -73.03850816 4.74303205 -72.71850586 3.25146484 C-72.33338921 1.54807233 -71.86235315 -0.1354944 -71.375 -1.8125 C-69.375 -2.8125 -69.375 -2.8125 -67.55908203 -2.359375 C-66.84091309 -2.09640625 -66.12274414 -1.8334375 -65.3828125 -1.5625 C-64.59519531 -1.2840625 -63.80757812 -1.005625 -62.99609375 -0.71875 C-61.33893197 -0.11708876 -59.68267051 0.48705836 -58.02734375 1.09375 C-57.23714844 1.3721875 -56.44695313 1.650625 -55.6328125 1.9375 C-54.9123877 2.20046875 -54.19196289 2.4634375 -53.44970703 2.734375 C-48.80093122 3.74968777 -44.55059557 1.03943779 -40.375 -0.8125 C-27.23848758 -6.63873563 -12.85716579 -6.90477422 0 0 Z " fill="#0575B8" transform="translate(619.375,258.8125)"/>
<path d="M0 0 C4.99384378 5.47711899 5.50995357 10.76044594 5.359375 17.8828125 C4.70900279 26.46525592 2.14685534 34.84113858 -0.0625 43.125 C-0.42420925 44.52056622 -0.78497537 45.91637743 -1.14453125 47.3125 C-3.31699572 55.62152747 -5.68079367 63.87408878 -8.0625 72.125 C-15.3225 72.125 -22.5825 72.125 -30.0625 72.125 C-28.93804142 63.12933138 -28.93804142 63.12933138 -28.03100586 59.671875 C-27.83087387 58.8974707 -27.63074188 58.12306641 -27.42454529 57.32519531 C-27.10418053 56.11234863 -27.10418053 56.11234863 -26.77734375 54.875 C-26.32461443 53.11464899 -25.87214844 51.35423023 -25.41992188 49.59375 C-24.71029778 46.85448802 -23.99766176 44.11608156 -23.2800293 41.37890625 C-22.58320332 38.71303892 -21.89836119 36.04430575 -21.21484375 33.375 C-20.99924301 32.56643555 -20.78364227 31.75787109 -20.56150818 30.92480469 C-19.27025589 25.84838986 -18.70471227 21.36825557 -19.0625 16.125 C-21.39763095 12.87249617 -23.22533469 11.85366031 -27.0625 11.125 C-35.66583807 10.30896522 -43.03824665 10.68940955 -50.0625 16.125 C-52.22201731 18.61234765 -53.69359781 21.13924352 -55.0625 24.125 C-55.52785156 25.0840625 -55.99320312 26.043125 -56.47265625 27.03125 C-58.87694254 32.70860466 -60.11482254 38.77595985 -61.5625 44.75 C-61.85769531 45.94496094 -62.15289062 47.13992188 -62.45703125 48.37109375 C-64.4002263 56.27227892 -66.24827271 64.19328677 -68.0625 72.125 C-75.6525 72.125 -83.2425 72.125 -91.0625 72.125 C-88.8769033 61.61332062 -86.38879381 51.21722317 -83.75 40.8125 C-82.94869447 37.64368778 -82.14929714 34.47440054 -81.3515625 31.3046875 C-81.15520706 30.52464859 -80.95885162 29.74460968 -80.75654602 28.94093323 C-79.53204765 24.05583998 -78.35335955 19.162763 -77.2109375 14.2578125 C-76.93934814 13.09419189 -76.66775879 11.93057129 -76.38793945 10.73168945 C-75.88979343 8.58081448 -75.39843457 6.42835313 -74.91479492 4.27416992 C-74.69670166 3.33420166 -74.4786084 2.3942334 -74.25390625 1.42578125 C-74.07029541 0.61278564 -73.88668457 -0.20020996 -73.69750977 -1.0378418 C-73.0625 -2.875 -73.0625 -2.875 -71.0625 -3.875 C-69.27832031 -3.40600586 -69.27832031 -3.40600586 -67.140625 -2.58984375 C-65.97273438 -2.16541992 -65.97273438 -2.16541992 -64.78125 -1.73242188 C-63.1478362 -1.12376847 -61.51753322 -0.50669423 -59.890625 0.11914062 C-56.124717 1.47251381 -53.8498839 2.28651465 -49.86328125 1.46875 C-48.93902344 1.0253125 -48.01476562 0.581875 -47.0625 0.125 C-46.06089844 -0.28878906 -45.05929687 -0.70257813 -44.02734375 -1.12890625 C-42.00597155 -2.00266068 -39.98513913 -2.87766488 -37.96484375 -3.75390625 C-25.67235724 -8.50214801 -11.14257871 -6.82198696 0 0 Z " fill="#0575B8" transform="translate(335.0625,259.875)"/>
<path d="M0 0 C0.85049423 0.00222061 1.70098846 0.00444122 2.57725525 0.00672913 C4.01863609 0.00684242 4.01863609 0.00684242 5.48913574 0.00695801 C7.05630592 0.01469994 7.05630592 0.01469994 8.65513611 0.02259827 C9.71913132 0.02401321 10.78312653 0.02542816 11.87936401 0.02688599 C15.29293069 0.03250388 18.70643286 0.04505941 22.11997986 0.05775452 C24.42792162 0.06276721 26.73586441 0.06733052 29.04380798 0.07142639 C34.71505412 0.08247912 40.38626238 0.09923465 46.05747986 0.12025452 C44.16985338 10.35326508 42.18340548 20.55852757 40.05747986 30.74525452 C39.80997986 31.93892639 39.56247986 33.13259827 39.30747986 34.36244202 C39.05997986 35.55353577 38.81247986 36.74462952 38.55747986 37.97181702 C38.31296082 39.14953674 38.06844177 40.32725647 37.81651306 41.54066467 C37.30230942 43.96564175 36.77167807 46.38718321 36.22618103 48.80531311 C34.74720012 55.40234055 33.58984871 61.73585787 33.36997986 68.49525452 C33.3358197 69.24291077 33.30165955 69.99056702 33.26646423 70.76087952 C33.18632236 72.54689838 33.12020957 74.33353935 33.05747986 76.12025452 C33.71747986 76.12025452 34.37747986 76.12025452 35.05747986 76.12025452 C35.71747986 73.81025452 36.37747986 71.50025452 37.05747986 69.12025452 C41.81229631 69.69659591 45.02796198 71.67093973 49.05747986 74.12025452 C47.02484708 82.03595451 44.19825072 92.28973305 37.05747986 97.12025452 C33.58852942 97.77477347 31.30899122 97.83764806 28.19029236 96.04994202 C22.67947622 91.72170445 19.3792851 85.99114779 18.05747986 79.12025452 C17.38131539 69.38088553 17.57145697 57.0923003 22.05747986 48.12025452 C17.10747986 48.61525452 17.10747986 48.61525452 12.05747986 49.12025452 C8.75747986 64.63025452 5.45747986 80.14025452 2.05747986 96.12025452 C-2.56252014 96.12025452 -7.18252014 96.12025452 -11.94252014 96.12025452 C-11.39655625 88.62841667 -10.33247362 81.60098304 -8.56752014 74.30775452 C-8.11762121 72.39254959 -7.66840298 70.47718463 -7.21986389 68.56166077 C-7.0018512 67.63885315 -6.7838385 66.71604553 -6.55921936 65.76527405 C-5.2697857 60.23490025 -4.11547821 54.67637166 -2.94252014 49.12025452 C-6.90252014 48.79025452 -10.86252014 48.46025452 -14.94252014 48.12025452 C-14.28252014 44.16025452 -13.62252014 40.20025452 -12.94252014 36.12025452 C-8.32252014 36.12025452 -3.70252014 36.12025452 1.05747986 36.12025452 C0.97497986 35.10962952 0.89247986 34.09900452 0.80747986 33.05775452 C0.75820996 26.24619127 3.16553747 19.60691412 5.05747986 13.12025452 C1.75747986 13.12025452 -1.54252014 13.12025452 -4.94252014 13.12025452 C-4.63492837 11.1403191 -4.32131334 9.16131853 -4.00502014 7.18275452 C-3.8309967 6.08060608 -3.65697327 4.97845764 -3.47767639 3.84291077 C-2.75586029 0.17060551 -2.75586029 0.17060551 0 0 Z " fill="#0776B8" transform="translate(870.9425201416016,234.87974548339844)"/>
<path d="M0 0 C31.02 0 62.04 0 94 0 C92 11 92 11 91 15 C79.12 15 67.24 15 55 15 C54.34 18.63 53.68 22.26 53 26 C52.51379309 28.08812124 52.00231626 30.17077962 51.44921875 32.2421875 C51.16546387 33.31710449 50.88170898 34.39202148 50.58935547 35.49951172 C50.29174316 36.61342285 49.99413086 37.72733398 49.6875 38.875 C47.49897595 47.18957425 45.34904785 55.50670151 43.375 63.875 C43.0797644 65.12531006 43.0797644 65.12531006 42.77856445 66.40087891 C41.96424066 69.86335273 41.15624209 73.32726485 40.3515625 76.79199219 C39.9100136 78.69130178 39.46682533 80.59023102 39.02197266 82.48876953 C38.6064227 84.26230539 38.19433976 86.03665916 37.78662109 87.81201172 C37.59664551 88.6217041 37.40666992 89.43139648 37.2109375 90.265625 C37.04899902 90.96461914 36.88706055 91.66361328 36.72021484 92.38378906 C35.64108815 96.30376249 34.28571794 100.14284619 33 104 C25.41 104 17.82 104 10 104 C11.33909422 97.3045289 12.75348943 90.71029153 14.42578125 84.1015625 C14.65524948 83.18651947 14.88471771 82.27147644 15.12113953 81.32870483 C15.84935772 78.42690283 16.58083948 75.52593574 17.3125 72.625 C17.79123759 70.72010785 18.26975468 68.81516028 18.74804688 66.91015625 C19.69858943 63.12496072 20.65082461 59.34019639 21.60400391 55.55566406 C22.51801488 51.92354591 23.42661426 48.29015054 24.32958984 44.65527344 C24.65216011 43.35836075 24.65216011 43.35836075 24.98124695 42.0352478 C25.37522421 40.44992007 25.76826506 38.86435906 26.1599884 37.2784729 C28.01371319 29.82457585 30.01976227 22.4258915 32 15 C20.12 15 8.24 15 -4 15 C-4 14.34 -4 13.68 -4 13 C-3.34 13 -2.68 13 -2 13 C-1.93941406 12.39671875 -1.87882812 11.7934375 -1.81640625 11.171875 C-1.73261719 10.37265625 -1.64882812 9.5734375 -1.5625 8.75 C-1.48128906 7.96109375 -1.40007812 7.1721875 -1.31640625 6.359375 C-1 4 -1 4 0 0 Z " fill="#0776B8" transform="translate(83,228)"/>
<path d="M0 0 C-2.89066059 15.74487472 -2.89066059 15.74487472 -6 23 C-6.63615234 22.41992188 -6.63615234 22.41992188 -7.28515625 21.828125 C-16.73680253 13.43589401 -24.46870215 11.28285876 -36.9296875 11.82080078 C-41.45359538 12.21237488 -45.09639238 13.77826588 -49 16 C-49.78890625 16.42410156 -50.5778125 16.84820312 -51.390625 17.28515625 C-57.92001353 21.16603453 -61.63698428 26.27396857 -65 33 C-65.47980301 39.13518604 -65.92104205 44.94536774 -63.375 50.625 C-57.15666547 56.84333453 -51.9220086 58.22239004 -43.375 58.25 C-30.61864735 58.20976707 -23.30397953 54.34005987 -13 47 C-11.37074547 50.25850907 -12.92634623 53.43910785 -13.8125 56.8125 C-13.99103516 57.52470703 -14.16957031 58.23691406 -14.35351562 58.97070312 C-14.87109675 60.99057749 -15.42774852 62.99502751 -16 65 C-16.25910156 65.94746094 -16.51820313 66.89492188 -16.78515625 67.87109375 C-18.52250396 70.91564198 -20.3152685 71.26127008 -23.625 72.25 C-24.62789063 72.56453125 -25.63078125 72.8790625 -26.6640625 73.203125 C-39.33617047 76.23018592 -55.90944555 77.40216263 -68 72 C-68.67675781 71.73316406 -69.35351562 71.46632813 -70.05078125 71.19140625 C-78.03239253 67.70429452 -84.77592998 61.85393467 -88.34375 53.859375 C-91.2709172 45.56573459 -90.57940204 37.83967129 -87.328125 29.734375 C-79.13231473 12.86064797 -64.52492912 3.46330416 -47.4140625 -2.97265625 C-32.97728319 -7.41951521 -13.47496875 -7.14111247 0 0 Z " fill="#0676B9" transform="translate(434,257)"/>
<path d="M0 0 C8.58 0 17.16 0 26 0 C25.40083248 4.79334019 24.82400199 9.22655653 23.80859375 13.890625 C23.47504883 15.44910156 23.47504883 15.44910156 23.13476562 17.0390625 C22.66650573 19.19541899 22.19774861 21.35166755 21.72851562 23.5078125 C21.50744141 24.54164063 21.28636719 25.57546875 21.05859375 26.640625 C20.85548584 27.57422852 20.65237793 28.50783203 20.44311523 29.46972656 C19.88499986 32.22854285 19.88499986 32.22854285 20 36 C20.93972656 35.02546875 20.93972656 35.02546875 21.8984375 34.03125 C23.12433594 32.77828125 23.12433594 32.77828125 24.375 31.5 C25.18710937 30.6646875 25.99921875 29.829375 26.8359375 28.96875 C29 27 29 27 31 27 C31.73001583 28.3846168 32.43324582 29.78337645 33.125 31.1875 C33.71667969 32.35345703 33.71667969 32.35345703 34.3203125 33.54296875 C35 36 35 36 34.44140625 38.52734375 C32.65232403 41.59641975 30.63177273 43.22068677 27.8125 45.375 C23.8367533 48.50175913 20.19536102 51.67424736 16.6875 55.30859375 C14.18063772 57.82125895 11.48777304 60.10532286 8.80078125 62.421875 C6.7757781 64.19649815 4.86454143 66.05776935 3 68 C-0.61569144 66.79476952 -0.94669545 65.92814436 -2.75 62.6875 C-3.19859375 61.90761719 -3.6471875 61.12773437 -4.109375 60.32421875 C-5 58 -5 58 -4.953125 56.08203125 C-3.78711668 53.53497209 -2.03324835 51.73924694 -0.20751953 49.64257812 C1.7998235 46.91200718 2.3380509 44.02518384 3.0625 40.75 C3.21823486 40.07050293 3.37396973 39.39100586 3.53442383 38.69091797 C4.04046696 36.46412608 4.52107861 34.23277104 5 32 C5.5480955 29.51536601 6.09975948 27.03154508 6.65209961 24.54785156 C7.00419082 22.95453048 7.3514995 21.3601437 7.69360352 19.76464844 C8.89392793 14.21214413 8.89392793 14.21214413 10 12 C6.04 12 2.08 12 -2 12 C-1.125 3.375 -1.125 3.375 0 0 Z " fill="#0775B6" transform="translate(826,262)"/>
<path d="M0 0 C7.59 0 15.18 0 23 0 C21.09014746 9.16729219 18.98298563 18.25331291 16.67578125 27.32910156 C15.35024238 32.56804493 14.04487847 37.81205934 12.73571777 43.05511475 C11.95462433 46.18272754 11.1725809 49.31010275 10.390625 52.4375 C9.93171875 54.273125 9.4728125 56.10875 9 58 C1.41 58 -6.18 58 -14 58 C-13.61328125 56.39253906 -13.2265625 54.78507812 -12.828125 53.12890625 C-9.31977826 38.54074942 -9.31977826 38.54074942 -5.875 23.9375 C-4.00507778 15.93556297 -2.00992722 7.96792577 0 0 Z " fill="#0775B9" transform="translate(648,274)"/>
<path d="M0 0 C6.13205238 3.66994044 11.35997594 8.02172384 16.5534668 12.89526367 C20.12216877 16.23259263 23.79562267 19.28685025 27.6875 22.234375 C30.52110758 24.39787268 33.29386521 26.62901566 36.0625 28.875 C37.00222656 29.63554687 37.94195313 30.39609375 38.91015625 31.1796875 C39.94462891 32.08074219 39.94462891 32.08074219 41 33 C41 33.33 41 33.66 41 34 C18.56 34 -3.88 34 -27 34 C-24 20 -24 20 -23 19 C-21.58429877 18.91348389 -20.164405 18.89295096 -18.74609375 18.90234375 C-17.46508789 18.90717773 -17.46508789 18.90717773 -16.15820312 18.91210938 C-15.26037109 18.92048828 -14.36253906 18.92886719 -13.4375 18.9375 C-12.53580078 18.94201172 -11.63410156 18.94652344 -10.70507812 18.95117188 C-8.46998686 18.96299775 -6.23502563 18.9794778 -4 19 C-3.855625 17.78054687 -3.71125 16.56109375 -3.5625 15.3046875 C-3.17456002 12.20526558 -2.694211 9.17302017 -2 6.125 C-1.835 5.38507813 -1.67 4.64515625 -1.5 3.8828125 C-1 2 -1 2 0 0 Z " fill="#0675BA" transform="translate(658,237)"/>
<path d="M0 0 C10.56 0 21.12 0 32 0 C32 0.99 32 1.98 32 3 C32.99 3.33 33.98 3.66 35 4 C36.60546875 5.99609375 36.60546875 5.99609375 38.1875 8.4375 C38.71730469 9.24058594 39.24710938 10.04367188 39.79296875 10.87109375 C41 13 41 13 41 15 C38.69 15 36.38 15 34 15 C33.34 18.3 32.68 21.6 32 25 C36.95 25 41.9 25 47 25 C46.505 27.475 46.505 27.475 46 30 C40.06 30 34.12 30 28 30 C27.67 32.97 27.34 35.94 27 39 C30.3 39.33 33.6 39.66 37 40 C35.08306932 43.83386136 33.77793433 45.34427256 30.625 48.0625 C29.85414063 48.73410156 29.08328125 49.40570313 28.2890625 50.09765625 C22.39014374 55 22.39014374 55 20 55 C21.76139147 43.0728635 24.12589292 31.29040241 26.625 19.5 C26.78283966 18.75114532 26.94067932 18.00229065 27.103302 17.23074341 C27.55758293 15.08015471 28.01616976 12.93053771 28.4765625 10.78125 C28.74549316 9.52376953 29.01442383 8.26628906 29.29150391 6.97070312 C30 4 30 4 31 2 C20.77 2 10.54 2 0 2 C0 1.34 0 0.68 0 0 Z " fill="#E0EFF6" transform="translate(730,233)"/>
<path d="M0 0 C0.67329346 -0.00612305 1.34658691 -0.01224609 2.0402832 -0.01855469 C7.70020349 0.12415001 11.60436814 1.87627859 16.0625 5.25 C17.75 7.5 17.75 7.5 18.75 14.5 C4.23 14.5 -10.29 14.5 -25.25 14.5 C-23.17627579 9.31568947 -22.65423733 8.43615822 -18.25 5.5 C-17.59386719 5.05140625 -16.93773437 4.6028125 -16.26171875 4.140625 C-10.85872414 0.9079089 -6.18204381 0.03120453 0 0 Z " fill="#EEF2F3" transform="translate(200.25,267.5)"/>
<path d="M0 0 C2.19706684 1.87006154 3.33564762 3.55242297 5 6 C5 7.65 5 9.3 5 11 C-9.52 11 -24.04 11 -39 11 C-36.10626791 3.76566978 -30.76029685 0.66320822 -23.75 -2.4375 C-15.43266079 -3.68510088 -7.40273938 -4.47534031 0 0 Z " fill="#ECF2F3" transform="translate(502,271)"/>
<path d="M0 0 C0.66 0 1.32 0 2 0 C3.625 2.5 3.625 2.5 5 5 C6.98 4.34 8.96 3.68 11 3 C10.01 6.63 9.02 10.26 8 14 C19.88 14.33 31.76 14.66 44 15 C43.19525146 20.63323978 42.75673866 23.36867905 40 28 C39.01 28.495 39.01 28.495 38 29 C38.33 25.7 38.66 22.4 39 19 C26.13 19.33 13.26 19.66 0 20 C-0.66 22.97 -1.32 25.94 -2 29 C8.56 29 19.12 29 30 29 C30 29.33 30 29.66 30 30 C25.35522856 30.02472039 20.71049543 30.04286968 16.06567383 30.05493164 C14.48558892 30.05996014 12.90550866 30.06678378 11.32543945 30.07543945 C9.05418754 30.08756992 6.78299715 30.09324313 4.51171875 30.09765625 C3.45219246 30.10539818 3.45219246 30.10539818 2.3712616 30.11329651 C-0.70254391 30.11364803 -3.0590442 29.9803186 -6 29 C-5.33425862 22.51093459 -3.99578944 16.32918678 -2.4375 10 C-2.20353516 9.03449219 -1.96957031 8.06898438 -1.72851562 7.07421875 C-1.15626866 4.71515983 -0.58002171 2.35715708 0 0 Z " fill="#E7F3F7" transform="translate(749,293)"/>
<path d="M0 0 C0.33 0 0.66 0 1 0 C1.33 1.98 1.66 3.96 2 6 C3.32 5.67 4.64 5.34 6 5 C6.02712066 6.43739513 6.04645067 7.87493863 6.0625 9.3125 C6.07410156 10.11300781 6.08570313 10.91351563 6.09765625 11.73828125 C6 14 6 14 5 17 C9.29 17 13.58 17 18 17 C17.69763428 18.42094971 17.69763428 18.42094971 17.38916016 19.87060547 C16.63187661 23.43020893 15.87539568 26.98998259 15.11914062 30.54980469 C14.79350866 32.08207683 14.46766736 33.6143045 14.14160156 35.14648438 C12.38066449 43.42180829 10.6238935 51.696406 9 60 C8.67 60 8.34 60 8 60 C7.97311849 58.35425434 7.95365877 56.70838587 7.9375 55.0625 C7.92589844 54.14597656 7.91429687 53.22945313 7.90234375 52.28515625 C8 50 8 50 9 49 C9.23192865 47.48530552 9.41215238 45.96245438 9.5625 44.4375 C9.64628906 43.61121094 9.73007812 42.78492188 9.81640625 41.93359375 C9.87699219 41.29550781 9.93757812 40.65742188 10 40 C6.17902761 40.53069061 3.93828597 41.49701566 1 44 C0.34 43.67 -0.32 43.34 -1 43 C-0.04287109 42.31164062 -0.04287109 42.31164062 0.93359375 41.609375 C1.75988281 40.99578125 2.58617187 40.3821875 3.4375 39.75 C4.26121094 39.14671875 5.08492187 38.5434375 5.93359375 37.921875 C8.17495979 35.83727747 8.81700224 35.01946306 9 32 C8.48304561 29.60681238 8.48304561 29.60681238 7.5625 27.25 C7.27503906 26.45078125 6.98757813 25.6515625 6.69140625 24.828125 C6.34916016 23.92320312 6.34916016 23.92320312 6 23 C5.20335937 23.70576172 5.20335937 23.70576172 4.390625 24.42578125 C3.68421875 25.04839844 2.9778125 25.67101562 2.25 26.3125 C1.20585938 27.23482422 1.20585938 27.23482422 0.140625 28.17578125 C-1.85114506 29.87314734 -3.88898915 31.45477809 -6 33 C-5.36398771 26.46099864 -4.32962538 20.11884017 -3 13.6875 C-2.82210937 12.80771484 -2.64421875 11.92792969 -2.4609375 11.02148438 C-1.70909904 7.32681552 -0.93640068 3.65289491 0 0 Z " fill="#E5F1F4" transform="translate(851,266)"/>
<path d="M0 0 C0.83752161 2.95716407 1.66930031 5.915913 2.5 8.875 C2.73847656 9.71675781 2.97695313 10.55851563 3.22265625 11.42578125 C3.44824219 12.23144531 3.67382812 13.03710938 3.90625 13.8671875 C4.11572266 14.61081543 4.32519531 15.35444336 4.54101562 16.12060547 C5 18 5 18 5 20 C2.73192796 21.0067004 0.46092246 22.00551766 -1.8125 23 C-2.45509766 23.28617188 -3.09769531 23.57234375 -3.75976562 23.8671875 C-6.67756469 25.13711041 -8.78265714 26 -12 26 C-12.86458312 23.06520402 -13.71697187 20.12778481 -14.5625 17.1875 C-14.80935547 16.35412109 -15.05621094 15.52074219 -15.31054688 14.66210938 C-15.53935547 13.85966797 -15.76816406 13.05722656 -16.00390625 12.23046875 C-16.21861572 11.49207764 -16.4333252 10.75368652 -16.65454102 9.99291992 C-17 8 -17 8 -16 5 C-13.41796875 3.61328125 -13.41796875 3.61328125 -10.1875 2.3125 C-9.12917969 1.87550781 -8.07085938 1.43851563 -6.98046875 0.98828125 C-4 0 -4 0 0 0 Z " fill="#0576B9" transform="translate(857,230)"/>
<path d="M0 0 C0.66 0 1.32 0 2 0 C2.20140476 3.62528568 1.85776765 5.86501708 0 9 C0.33 9.33 0.66 9.66 1 10 C1.28362108 14.8215583 0.75417412 18.50492881 -1 23 C2.36551123 24.12183708 5.09060232 24.20800968 8.63671875 24.31640625 C9.93544922 24.35830078 11.23417969 24.40019531 12.57226562 24.44335938 C13.94400761 24.48316987 15.31575244 24.52288216 16.6875 24.5625 C18.07097645 24.60570835 19.45444027 24.64932339 20.83789062 24.69335938 C24.22515719 24.79958028 27.61249799 24.90162358 31 25 C31 25.33 31 25.66 31 26 C22.42 26 13.84 26 5 26 C4.34 29.96 3.68 33.92 3 38 C6.96 38 10.92 38 15 38 C14.01 43.28 13.02 48.56 12 54 C11.67 54 11.34 54 11 54 C11.33 49.38 11.66 44.76 12 40 C8.7 39.67 5.4 39.34 2 39 C1.855625 38.2575 1.71125 37.515 1.5625 36.75 C1.05802414 34.08713438 1.05802414 34.08713438 0.375 31.875 C0 30 0 30 1 27 C-9.56 27 -20.12 27 -31 27 C-30.34 25.35 -29.68 23.7 -29 22 C-20.09 22 -11.18 22 -2 22 C-1.67 19.03 -1.34 16.06 -1 13 C-3.64 12.67 -6.28 12.34 -9 12 C-7.4114658 7.71095765 -4.56872632 5.67654474 -1 3 C-0.34 3 0.32 3 1 3 C0.67 2.01 0.34 1.02 0 0 Z " fill="#D5ECF7" transform="translate(821,236)"/>
<path d="M0 0 C0.66 0 1.32 0 2 0 C1.67 2.64 1.34 5.28 1 8 C-5.27 8.33 -11.54 8.66 -18 9 C-18.474375 10.93875 -18.94875 12.8775 -19.4375 14.875 C-20.875 20.75 -20.875 20.75 -22 23 C0.44 23 22.88 23 46 23 C46 23.33 46 23.66 46 24 C36.76 24.33 27.52 24.66 18 25 C18 25.33 18 25.66 18 26 C10.74 26 3.48 26 -4 26 C-4 25.67 -4 25.34 -4 25 C-10.27 24.67 -16.54 24.34 -23 24 C-23.50363481 26.51817406 -24.00625531 29.03741814 -24.4296875 31.5703125 C-24.57664062 32.41335938 -24.72359375 33.25640625 -24.875 34.125 C-25.01679687 34.97320312 -25.15859375 35.82140625 -25.3046875 36.6953125 C-26.07378281 39.24456101 -26.98126469 40.3122049 -29 42 C-28.7525 40.4840625 -28.7525 40.4840625 -28.5 38.9375 C-27.99863354 34.75445748 -27.79951487 30.58592922 -27.6875 26.375 C-27.65011719 25.12460937 -27.61273437 23.87421875 -27.57421875 22.5859375 C-28.21346378 17.20220417 -31.03196074 13.57123533 -35 10 C-31.75728494 10.5590888 -30.06942576 11.4132178 -28 14 C-28 14.66 -28 15.32 -28 16 C-27.34 16 -26.68 16 -26 16 C-26 17.65 -26 19.3 -26 21 C-25.01 21 -24.02 21 -23 21 C-22.87882813 20.24074219 -22.75765625 19.48148437 -22.6328125 18.69921875 C-22.46523438 17.70535156 -22.29765625 16.71148437 -22.125 15.6875 C-21.96257813 14.70136719 -21.80015625 13.71523438 -21.6328125 12.69921875 C-21 10 -21 10 -19 7 C-17.12060547 6.65942383 -17.12060547 6.65942383 -14.8671875 6.70703125 C-14.06152344 6.71669922 -13.25585938 6.72636719 -12.42578125 6.73632812 C-11.58402344 6.76146484 -10.74226562 6.78660156 -9.875 6.8125 C-9.02550781 6.82603516 -8.17601562 6.83957031 -7.30078125 6.85351562 C-5.20025163 6.88891781 -3.10004707 6.94272599 -1 7 C-0.67 4.69 -0.34 2.38 0 0 Z " fill="#CFEFF8" transform="translate(653,248)"/>
<path d="M0 0 C3.3 0 6.6 0 10 0 C9.47498022 7.98030063 8.13742551 15.2972024 6 23 C2.37 23 -1.26 23 -5 23 C-4.35777752 19.54095985 -3.71139668 16.08278852 -3.0625 12.625 C-2.88009766 11.64015625 -2.69769531 10.6553125 -2.50976562 9.640625 C-2.33251953 8.69960938 -2.15527344 7.75859375 -1.97265625 6.7890625 C-1.72914429 5.48509521 -1.72914429 5.48509521 -1.48071289 4.15478516 C-1 2 -1 2 0 0 Z " fill="#EFF0F3" transform="translate(890,248)"/>
<path d="M0 0 C2.31 0 4.62 0 7 0 C4.58195241 16.81254263 4.58195241 16.81254263 2 21 C0.35 21.66 -1.3 22.32 -3 23 C-3 26.96 -3 30.92 -3 35 C1.95 34.505 1.95 34.505 7 34 C7 34.66 7 35.32 7 36 C3.0186217 37.3271261 -0.85045227 37.06915913 -5 37 C-5.16788373 35.37512529 -5.33426787 33.75009558 -5.5 32.125 C-5.5928125 31.22007812 -5.685625 30.31515625 -5.78125 29.3828125 C-6 27 -6 27 -6 25 C-6.66 25 -7.32 25 -8 25 C-8 26.32 -8 27.64 -8 29 C-8.99 29.33 -9.98 29.66 -11 30 C-9.61030751 25.6114974 -7.93189824 21.45495687 -6.0625 17.25 C-3.59031152 11.60980343 -1.56491696 5.95766632 0 0 Z " fill="#E2F3F7" transform="translate(729,296)"/>
<path d="M0 0 C0.33 0 0.66 0 1 0 C1.09765625 6.15234375 1.09765625 6.15234375 1 8 C-1.17947652 10.17947652 -6.55891199 9.45337729 -9.62890625 9.60546875 C-13.10944277 9.4970552 -13.10944277 9.4970552 -16 11 C-17.62674778 11.09340434 -19.25754051 11.11745171 -20.88696289 11.11352539 C-21.92796646 11.11344986 -22.96897003 11.11337433 -24.04151917 11.11329651 C-25.1737944 11.10813522 -26.30606964 11.10297394 -27.47265625 11.09765625 C-28.62543564 11.0962413 -29.77821503 11.09482635 -30.96592712 11.09336853 C-34.66481064 11.08775005 -38.36363464 11.07519442 -42.0625 11.0625 C-44.56315017 11.05748738 -47.06380129 11.05292406 -49.56445312 11.04882812 C-55.70965588 11.03777462 -61.85482369 11.02101852 -68 11 C-67.67 13.64 -67.34 16.28 -67 19 C-66.01 19 -65.02 19 -64 19 C-64.33 20.32 -64.66 21.64 -65 23 C-69.61629012 17.46045186 -71 15.42636689 -71 8 C-47.9 8 -24.8 8 -1 8 C-0.67 5.36 -0.34 2.72 0 0 Z " fill="#DBEDF9" transform="translate(528,288)"/>
<path d="M0 0 C0.99 0.33 1.98 0.66 3 1 C3.042721 2.66611905 3.04063832 4.33382885 3 6 C2.67 6.33 2.34 6.66 2 7 C1.71898054 9.31952569 1.55217375 11.63885514 1.37890625 13.96875 C1.25386719 14.6390625 1.12882812 15.309375 1 16 C0.34 16.33 -0.32 16.66 -1 17 C-0.85915204 15.20793453 -0.71216299 13.41635083 -0.5625 11.625 C-0.44068359 10.12839844 -0.44068359 10.12839844 -0.31640625 8.6015625 C0 6 0 6 1 4 C-29.69 4 -60.38 4 -92 4 C-92 3.34 -92 2.68 -92 2 C-90.86216568 1.98969254 -89.72433136 1.97938507 -88.55201721 1.96876526 C-77.85363589 1.87120863 -67.15531505 1.76849186 -56.4570322 1.66066074 C-50.95632032 1.60538501 -45.45560318 1.55195771 -39.95483398 1.50268555 C-34.65098717 1.45511042 -29.34720724 1.40277037 -24.04343987 1.34705925 C-22.01516309 1.32660454 -19.98686795 1.30789674 -17.95855904 1.29092598 C-15.12798516 1.26695068 -12.29753895 1.23688713 -9.46704102 1.20532227 C-8.61971909 1.1995668 -7.77239716 1.19381134 -6.8993988 1.18788147 C-3.14330256 1.49942903 -3.14330256 1.49942903 0 0 Z " fill="#B6D6EC" transform="translate(176,224)"/>
<path d="M0 0 C0 0.33 0 0.66 0 1 C-0.78246094 1.06058594 -1.56492188 1.12117188 -2.37109375 1.18359375 C-3.88896484 1.30927734 -3.88896484 1.30927734 -5.4375 1.4375 C-6.44683594 1.51871094 -7.45617187 1.59992188 -8.49609375 1.68359375 C-10.93640779 1.73211468 -10.93640779 1.73211468 -12 3 C-13.03125 3.103125 -14.0625 3.20625 -15.125 3.3125 C-19.637757 4.11315044 -22.118322 5.64054866 -26 8 C-26.66 8 -27.32 8 -28 8 C-28 8.66 -28 9.32 -28 10 C-24.17254277 11.24006181 -20.36654408 11.12692202 -16.390625 11.09765625 C-15.66381531 11.0962413 -14.93700562 11.09482635 -14.18817139 11.09336853 C-11.87540506 11.08778792 -9.56273688 11.07523904 -7.25 11.0625 C-5.67838682 11.05748249 -4.10677211 11.05292002 -2.53515625 11.04882812 C1.30993343 11.03782485 5.1549501 11.02057361 9 11 C9.33 9.68 9.66 8.36 10 7 C10.495 10.465 10.495 10.465 11 14 C-3.52 14 -18.04 14 -33 14 C-30.92627579 8.81568947 -30.40423733 7.93615822 -26 5 C-25.34386719 4.55140625 -24.68773437 4.1028125 -24.01171875 3.640625 C-16.23818912 -1.01042802 -8.74543888 -0.48826892 0 0 Z " fill="#C4E4F0" transform="translate(208,268)"/>
<path d="M0 0 C12.21 0 24.42 0 37 0 C36.19525146 5.63323978 35.75673866 8.36867905 33 13 C32.34 13.33 31.68 13.66 31 14 C31.33 10.7 31.66 7.4 32 4 C18.8 4.33 5.6 4.66 -8 5 C-8 4.34 -8 3.68 -8 3 C1.9 2.505 1.9 2.505 12 2 C8.04 1.67 4.08 1.34 0 1 C0 0.67 0 0.34 0 0 Z " fill="#C2E2F1" transform="translate(756,308)"/>
<path d="M0 0 C0.93423645 3.01031744 1.04449911 3.86650268 0 7 C4.29 7 8.58 7 13 7 C12.69763428 8.42094971 12.69763428 8.42094971 12.38916016 9.87060547 C11.63187661 13.43020893 10.87539568 16.98998259 10.11914062 20.54980469 C9.79350866 22.08207683 9.46766736 23.6143045 9.14160156 25.14648438 C7.38066449 33.42180829 5.6238935 41.696406 4 50 C3.67 50 3.34 50 3 50 C2.97311849 48.35425434 2.95365877 46.70838587 2.9375 45.0625 C2.92589844 44.14597656 2.91429687 43.22945313 2.90234375 42.28515625 C3 40 3 40 4 39 C4.23192865 37.48530552 4.41215238 35.96245438 4.5625 34.4375 C4.64628906 33.61121094 4.73007812 32.78492188 4.81640625 31.93359375 C4.87699219 31.29550781 4.93757812 30.65742188 5 30 C1.17902761 30.53069061 -1.06171403 31.49701566 -4 34 C-4.66 33.67 -5.32 33.34 -6 33 C-5.37351562 32.55269531 -4.74703125 32.10539062 -4.1015625 31.64453125 C-3.28429687 31.03996094 -2.46703125 30.43539063 -1.625 29.8125 C-0.81289063 29.22082031 -0.00078125 28.62914062 0.8359375 28.01953125 C3.22181824 25.79299634 3.89800984 24.02026933 5 21 C7.125 20.1875 7.125 20.1875 9 20 C8.979375 18.741875 8.95875 17.48375 8.9375 16.1875 C8.89113917 13.35948913 9.08307039 11.75078884 10 9 C9.28972656 9.01160156 8.57945312 9.02320313 7.84765625 9.03515625 C6.92855469 9.04417969 6.00945313 9.05320312 5.0625 9.0625 C4.14597656 9.07410156 3.22945312 9.08570313 2.28515625 9.09765625 C0 9 0 9 -1 8 C-1.23529412 2.47058824 -1.23529412 2.47058824 0 0 Z " fill="#D3F1FB" transform="translate(856,276)"/>
<path d="M0 0 C0.33 0.99 0.66 1.98 1 3 C21.13 3 41.26 3 62 3 C62.33 2.34 62.66 1.68 63 1 C64.32 2.32 65.64 3.64 67 5 C44.56 5 22.12 5 -1 5 C-0.67 3.35 -0.34 1.7 0 0 Z " fill="#3584B2" transform="translate(632,266)"/>
<path d="M0 0 C0.66 0 1.32 0 2 0 C1.35737498 2.95906404 0.7110539 5.91723516 0.0625 8.875 C-0.11990234 9.71675781 -0.30230469 10.55851562 -0.49023438 11.42578125 C-0.66748047 12.23144531 -0.84472656 13.03710938 -1.02734375 13.8671875 C-1.18968506 14.61081543 -1.35202637 15.35444336 -1.51928711 16.12060547 C-2 18 -2 18 -3 20 C4.59 20 12.18 20 20 20 C20.33 17.36 20.66 14.72 21 12 C21.42546491 10.17414772 21.89699098 8.35766209 22.4375 6.5625 C22.68371094 5.71816406 22.92992187 4.87382812 23.18359375 4.00390625 C24 2 24 2 26 1 C26 2.32 26 3.64 26 5 C25.34 5 24.68 5 24 5 C24.020625 6.0725 24.04125 7.145 24.0625 8.25 C24.01302021 11.21878717 23.83120352 13.22932159 23 16 C22.87625 16.86625 22.7525 17.7325 22.625 18.625 C22 21 22 21 19 23 C16.88696289 23.24291992 16.88696289 23.24291992 14.47265625 23.23046875 C13.59802734 23.22853516 12.72339844 23.22660156 11.82226562 23.22460938 C10.45618164 23.20624023 10.45618164 23.20624023 9.0625 23.1875 C8.15564453 23.18685547 7.24878906 23.18621094 6.31445312 23.18554688 C2.3613742 23.15936754 -1.17915436 23.09455572 -5 22 C-4.51219859 17.20328611 -3.84804733 13.45705531 -2 9 C-1.25643758 6.01563383 -0.61700837 3.01283874 0 0 Z " fill="#E2F5FC" transform="translate(533,312)"/>
<path d="M0 0 C2.22855574 -0.0814222 4.45797655 -0.13938079 6.6875 -0.1875 C8.54955078 -0.23970703 8.54955078 -0.23970703 10.44921875 -0.29296875 C14.23971395 0.01977838 15.92725164 0.86360578 19 3 C19.99 3.33 20.98 3.66 22 4 C22 3.34 22 2.68 22 2 C23.32 2.33 24.64 2.66 26 3 C25.49210938 3.4125 24.98421875 3.825 24.4609375 4.25 C19.52825486 8.38828057 15.63895212 12.69319483 12 18 C14.475 18.99 14.475 18.99 17 20 C17 20.33 17 20.66 17 21 C14.36 21 11.72 21 9 21 C10.03720649 14.66946386 12.65813442 8.9447357 15 3 C10.05 2.67 5.1 2.34 0 2 C0 1.34 0 0.68 0 0 Z " fill="#DDF0F7" transform="translate(788,227)"/>
<path d="M0 0 C5.61 0 11.22 0 17 0 C16.34 3.3 15.68 6.6 15 10 C11.37 10 7.74 10 4 10 C4.66 7.36 5.32 4.72 6 2 C3.69 2 1.38 2 -1 2 C-0.67 1.34 -0.34 0.68 0 0 Z " fill="#D9EFF8" transform="translate(768,288)"/>
<path d="M0 0 C0.96661363 3.12180401 0.98988909 5.52083795 0.5625 8.75 C0.46066406 9.54921875 0.35882812 10.3484375 0.25390625 11.171875 C0.17011719 11.77515625 0.08632813 12.3784375 0 13 C-6.65657476 11.3525982 -11.73348221 9.46509117 -17 5 C-17 4.34 -17 3.68 -17 3 C-11.39 3 -5.78 3 0 3 C0 2.01 0 1.02 0 0 Z " fill="#D3EBF5" transform="translate(820,270)"/>
<path d="M0 0 C0.85049423 0.00222061 1.70098846 0.00444122 2.57725525 0.00672913 C4.01863609 0.00684242 4.01863609 0.00684242 5.48913574 0.00695801 C7.05630592 0.01469994 7.05630592 0.01469994 8.65513611 0.02259827 C9.71913132 0.02401321 10.78312653 0.02542816 11.87936401 0.02688599 C15.29293069 0.03250388 18.70643286 0.04505941 22.11997986 0.05775452 C24.42792162 0.06276721 26.73586441 0.06733052 29.04380798 0.07142639 C34.71505412 0.08247912 40.38626238 0.09923465 46.05747986 0.12025452 C45.72747986 2.10025452 45.39747986 4.08025452 45.05747986 6.12025452 C44.56247986 4.14025452 44.56247986 4.14025452 44.05747986 2.12025452 C28.87747986 2.12025452 13.69747986 2.12025452 -1.94252014 2.12025452 C-1.94252014 4.76025452 -1.94252014 7.40025452 -1.94252014 10.12025452 C-2.60252014 10.12025452 -3.26252014 10.12025452 -3.94252014 10.12025452 C-3.80202497 8.64057128 -3.65497188 7.16150935 -3.50502014 5.68275452 C-3.4238092 4.85904358 -3.34259827 4.03533264 -3.25892639 3.18666077 C-2.84876152 0.50792968 -2.71706991 0.16820414 0 0 Z " fill="#3985B4" transform="translate(870.9425201416016,234.87974548339844)"/>
<path d="M0 0 C0 3 0 3 -2 7 C10.21 7 22.42 7 35 7 C35 6.01 35 5.02 35 4 C35.66 4 36.32 4 37 4 C37 5.65 37 7.3 37 9 C22.48 9 7.96 9 -7 9 C-5.02253559 4.05633898 -4.11167879 2.92145598 0 0 Z " fill="#C1E3F2" transform="translate(470,273)"/>
<path d="M0 0 C0.87840996 3.09720845 0.99435406 4.90645403 0 8 C1.98 8 3.96 8 6 8 C4 10 4 10 1 11 C1 14.96 1 18.92 1 23 C4.3 22.67 7.6 22.34 11 22 C11 22.66 11 23.32 11 24 C7.0186217 25.3271261 3.14954773 25.06915913 -1 25 C-1.16788373 23.37512529 -1.33426787 21.75009558 -1.5 20.125 C-1.5928125 19.22007812 -1.685625 18.31515625 -1.78125 17.3828125 C-2 15 -2 15 -2 13 C-2.66 13 -3.32 13 -4 13 C-4 14.32 -4 15.64 -4 17 C-4.99 17.33 -5.98 17.66 -7 18 C-5.64474464 13.78224268 -4.09799886 9.70578678 -2.375 5.625 C-1.92898438 4.56539063 -1.48296875 3.50578125 -1.0234375 2.4140625 C-0.68570313 1.61742187 -0.34796875 0.82078125 0 0 Z " fill="#C5E6F4" transform="translate(725,308)"/>
<path d="M0 0 C10.56 0 21.12 0 32 0 C32 0.99 32 1.98 32 3 C32.99 3.33 33.98 3.66 35 4 C35.495 5.485 35.495 5.485 36 7 C34.68 7.33 33.36 7.66 32 8 C31.67 10.31 31.34 12.62 31 15 C30.34 15 29.68 15 29 15 C29.14084796 13.20793453 29.28783701 11.41635083 29.4375 9.625 C29.51871094 8.62726563 29.59992187 7.62953125 29.68359375 6.6015625 C30 4 30 4 31 2 C20.77 2 10.54 2 0 2 C0 1.34 0 0.68 0 0 Z " fill="#CCEEFC" transform="translate(730,233)"/>
<path d="M0 0 C1.4540625 0.0309375 1.4540625 0.0309375 2.9375 0.0625 C2.63007097 2.37567961 2.31642298 4.68803352 2 7 C1.82597656 8.28777344 1.65195312 9.57554687 1.47265625 10.90234375 C0.9375 14.0625 0.9375 14.0625 -0.0625 15.0625 C-2.06208364 15.10330783 -4.06295254 15.10504356 -6.0625 15.0625 C-5.75507097 12.74932039 -5.44142298 10.43696648 -5.125 8.125 C-4.95097656 6.83722656 -4.77695312 5.54945313 -4.59765625 4.22265625 C-3.89603584 0.07951094 -3.89603584 0.07951094 0 0 Z " fill="#E4F3F8" transform="translate(743.0625,245.9375)"/>
<path d="M0 0 C3.3 0 6.6 0 10 0 C9.47498022 7.98030063 8.13742551 15.2972024 6 23 C2.37 23 -1.26 23 -5 23 C-3.25 13.25 -3.25 13.25 -1 11 C-1 12.98 -1 14.96 -1 17 C-1.66 17 -2.32 17 -3 17 C-3 18.32 -3 19.64 -3 21 C-0.36 21 2.28 21 5 21 C4.938125 19.1128125 4.938125 19.1128125 4.875 17.1875 C4.7609626 13.70935927 4.94074319 13.08888522 7 10 C7.66613335 7.72461677 7.66613335 7.72461677 8.125 5.3125 C8.29257812 4.50425781 8.46015625 3.69601563 8.6328125 2.86328125 C8.75398437 2.24839844 8.87515625 1.63351563 9 1 C6.36 1 3.72 1 1 1 C1 3.31 1 5.62 1 8 C0.34 8 -0.32 8 -1 8 C-1.125 2.25 -1.125 2.25 0 0 Z " fill="#CBEEFA" transform="translate(890,248)"/>
<path d="M0 0 C10.89 0 21.78 0 33 0 C33.495 0.99 33.495 0.99 34 2 C34.66 1.67 35.32 1.34 36 1 C35.34 4.63 34.68 8.26 34 12 C37.96 12 41.92 12 46 12 C45.01 17.28 44.02 22.56 43 28 C42.67 28 42.34 28 42 28 C42.33 23.38 42.66 18.76 43 14 C39.7 13.67 36.4 13.34 33 13 C32.855625 12.2575 32.71125 11.515 32.5625 10.75 C32.05802414 8.08713438 32.05802414 8.08713438 31.375 5.875 C31 4 31 4 32 1 C21.44 1 10.88 1 0 1 C0 0.67 0 0.34 0 0 Z " fill="#AADBF3" transform="translate(790,262)"/>
<path d="M0 0 C0.66 0.33 1.32 0.66 2 1 C1.59007812 1.78503906 1.18015625 2.57007813 0.7578125 3.37890625 C-0.05042969 4.95478516 -0.05042969 4.95478516 -0.875 6.5625 C-1.40867188 7.59503906 -1.94234375 8.62757813 -2.4921875 9.69140625 C-6.59696168 18.69851435 -8.13011264 29.60174346 -4.94921875 39.15625 C-3.75304855 41.55564745 -2.49435871 43.77657537 -1 46 C-0.34 46.99 0.32 47.98 1 49 C-0.9375 48.1875 -0.9375 48.1875 -3 47 C-3.495 45.515 -3.495 45.515 -4 44 C-4.66 44 -5.32 44 -6 44 C-6 42.68 -6 41.36 -6 40 C-6.66 40 -7.32 40 -8 40 C-8.33 31.09 -8.66 22.18 -9 13 C-8.01 13.33 -7.02 13.66 -6 14 C-5.855625 13.4225 -5.71125 12.845 -5.5625 12.25 C-5.04166667 10.16666667 -4.52083333 8.08333333 -4 6 C-3.34 6 -2.68 6 -2 6 C-1.855625 5.195625 -1.71125 4.39125 -1.5625 3.5625 C-1 1 -1 1 0 0 Z " fill="#CCECF9" transform="translate(153,274)"/>
<path d="M0 0 C2.31 0 4.62 0 7 0 C6.01 4.29 5.02 8.58 4 13 C2.02 13 0.04 13 -2 13 C-1.85851011 11.3954444 -1.71164314 9.79136233 -1.5625 8.1875 C-1.48128906 7.29417969 -1.40007813 6.40085937 -1.31640625 5.48046875 C-1 3 -1 3 0 0 Z " fill="#CFF0FB" transform="translate(734,272)"/>
<path d="M0 0 C0.33 0 0.66 0 1 0 C1 2.64 1 5.28 1 8 C0.34 8 -0.32 8 -1 8 C-0.979375 9.299375 -0.95875 10.59875 -0.9375 11.9375 C-0.91600546 13.29165633 -0.92851801 14.64756083 -1 16 C-2 17 -2 17 -4.1796875 17.1328125 C-5.06914063 17.13023437 -5.95859375 17.12765625 -6.875 17.125 C-7.75929688 17.12757813 -8.64359375 17.13015625 -9.5546875 17.1328125 C-12 17 -12 17 -15 16 C-15 18.64 -15 21.28 -15 24 C-12.03 24.33 -9.06 24.66 -6 25 C-6 25.66 -6 26.32 -6 27 C-9.96 27 -13.92 27 -18 27 C-17.34 23.04 -16.68 19.08 -16 15 C-11.38 15 -6.76 15 -2 15 C-2.04125 13.824375 -2.0825 12.64875 -2.125 11.4375 C-2.13983635 7.27590326 -1.31170778 3.93512333 0 0 Z " fill="#1C77AB" transform="translate(874,256)"/>
<path d="M0 0 C2.62748631 0.05985162 5.24916995 0.14676224 7.875 0.25 C8.62136719 0.26417969 9.36773438 0.27835937 10.13671875 0.29296875 C12.3046875 0.390625 12.3046875 0.390625 16 1 C17.5078125 3.046875 17.5078125 3.046875 18 5 C16.39441516 6.92536938 15.52230522 7.91074167 13.00708008 8.34057617 C12.26868896 8.32486572 11.53029785 8.30915527 10.76953125 8.29296875 C9.96708984 8.28330078 9.16464844 8.27363281 8.33789062 8.26367188 C7.50451172 8.23853516 6.67113281 8.21339844 5.8125 8.1875 C4.96751953 8.17396484 4.12253906 8.16042969 3.25195312 8.14648438 C1.16769616 8.11115799 -0.91623277 8.05735139 -3 8 C-3 10.31 -3 12.62 -3 15 C-0.03 15.33 2.94 15.66 6 16 C6 16.33 6 16.66 6 17 C2.04 17 -1.92 17 -6 17 C-5.34 13.7 -4.68 10.4 -4 7 C1.94 7 7.88 7 14 7 C14.33 5.35 14.66 3.7 15 2 C10.05 2 5.1 2 0 2 C0 1.34 0 0.68 0 0 Z " fill="#1574AB" transform="translate(762,256)"/>
<path d="M0 0 C0.33 0.66 0.66 1.32 1 2 C1.70898438 1.66613281 2.41796875 1.33226562 3.1484375 0.98828125 C6.28750296 -0.09964144 8.33685347 -0.12500979 11.625 0.1875 C12.56601562 0.26355469 13.50703125 0.33960938 14.4765625 0.41796875 C17 1 17 1 20 4 C14.06 4 8.12 4 2 4 C1.67 6.97 1.34 9.94 1 13 C0.67 11.68 0.34 10.36 0 9 C-0.66 9 -1.32 9 -2 9 C-1.125 1.125 -1.125 1.125 0 0 Z " fill="#C5E4F5" transform="translate(756,259)"/>
<path d="M0 0 C0.92232422 0.66708984 0.92232422 0.66708984 1.86328125 1.34765625 C3.07564453 2.19650391 3.07564453 2.19650391 4.3125 3.0625 C5.11300781 3.63097656 5.91351562 4.19945312 6.73828125 4.78515625 C7.85783203 5.38650391 7.85783203 5.38650391 9 6 C12.69418201 4.768606 14.35109746 2.79208646 17 0 C15.125 4.875 15.125 4.875 14 6 C13.60851239 7.51165654 13.26027543 9.03469632 12.9375 10.5625 C12.76089844 11.38878906 12.58429687 12.21507812 12.40234375 13.06640625 C12.26957031 13.70449219 12.13679687 14.34257812 12 15 C11.67 15 11.34 15 11 15 C11.33 12.69 11.66 10.38 12 8 C7.71 8 3.42 8 -1 8 C-0.67 5.36 -0.34 2.72 0 0 Z " fill="#C7F1FB" transform="translate(798,289)"/>
<path d="M0 0 C0.33 0 0.66 0 1 0 C1.36340286 1.76896102 1.71540883 3.54026626 2.0625 5.3125 C2.25972656 6.29863281 2.45695313 7.28476562 2.66015625 8.30078125 C3 11 3 11 2 14 C12.56 14 23.12 14 34 14 C34 14.33 34 14.66 34 15 C29.35522856 15.02472039 24.71049543 15.04286968 20.06567383 15.05493164 C18.48558892 15.05996014 16.90550866 15.06678378 15.32543945 15.07543945 C13.05418754 15.08756992 10.78299715 15.09324313 8.51171875 15.09765625 C7.45219246 15.10539818 7.45219246 15.10539818 6.3712616 15.11329651 C3.29745609 15.11364803 0.9409558 14.9803186 -2 14 C-1.43393721 9.30976546 -0.81462495 4.65499974 0 0 Z " fill="#B8DFF3" transform="translate(745,308)"/>
<path d="M0 0 C9.9 0 19.8 0 30 0 C29.34 3.3 28.68 6.6 28 10 C22.06 10 16.12 10 10 10 C10 9.34 10 8.68 10 8 C15.61 8.33 21.22 8.66 27 9 C27 6.69 27 4.38 27 2 C18.09 1.67 9.18 1.34 0 1 C0 0.67 0 0.34 0 0 Z " fill="#1171A9" transform="translate(792,263)"/>
<path d="M0 0 C0.66 0.33 1.32 0.66 2 1 C1.78085938 1.86496094 1.56171875 2.72992188 1.3359375 3.62109375 C-1.87899804 16.389354 -4.94232318 29.19329748 -8 42 C-8.33 42 -8.66 42 -9 42 C-8.67 37.38 -8.34 32.76 -8 28 C-7.34 28 -6.68 28 -6 28 C-6.061875 27.21625 -6.12375 26.4325 -6.1875 25.625 C-5.97798037 21.57428708 -4.96000319 18.29958936 -3.7265625 14.4609375 C-2.80654145 11.34473718 -2.44118045 8.2143147 -2 5 C-0.9375 2.0625 -0.9375 2.0625 0 0 Z " fill="#CCEFFA" transform="translate(111,252)"/>
<path d="M0 0 C0.89525391 0.32484375 0.89525391 0.32484375 1.80859375 0.65625 C12.16097969 3.97885827 23.348015 4.07354182 34 2 C34 2.66 34 3.32 34 4 C29.34838792 5.81579258 25.13667138 6.35196144 20.1875 6.3125 C19.13236206 6.30730347 19.13236206 6.30730347 18.0559082 6.30200195 C11.99554179 6.17558426 5.87410116 5.66649114 1.26953125 1.39453125 C0.85058594 0.93433594 0.43164062 0.47414063 0 0 Z " fill="#BEE4F5" transform="translate(464,311)"/>
<path d="M0 0 C0.66 0 1.32 0 2 0 C0.07289294 11.52164009 0.07289294 11.52164009 -2 17 C-4.64 17 -7.28 17 -10 17 C-10 16.34 -10 15.68 -10 15 C-8.25 13.7109375 -8.25 13.7109375 -6 12.375 C-4.88625 11.70597656 -4.88625 11.70597656 -3.75 11.0234375 C-3.1725 10.68570313 -2.595 10.34796875 -2 10 C-2.99 7.36 -3.98 4.72 -5 2 C-4.01 2.33 -3.02 2.66 -2 3 C-2 3.66 -2 4.32 -2 5 C-1.34 5 -0.68 5 0 5 C0 3.35 0 1.7 0 0 Z " fill="#B1E1F8" transform="translate(785,231)"/>
<path d="M0 0 C0.33 1.32 0.66 2.64 1 4 C0.34 4 -0.32 4 -1 4 C-0.979375 5.0725 -0.95875 6.145 -0.9375 7.25 C-0.98697979 10.21878717 -1.16879648 12.22932159 -2 15 C-2.33 16.65 -2.66 18.3 -3 20 C-11.25 20 -19.5 20 -28 20 C-28 19.67 -28 19.34 -28 19 C-20.41 19 -12.82 19 -5 19 C-4.67 16.36 -4.34 13.72 -4 11 C-3.55257168 9.17381158 -3.06001974 7.35736327 -2.5 5.5625 C-2.2421875 4.71816406 -1.984375 3.87382812 -1.71875 3.00390625 C-1 1 -1 1 0 0 Z " fill="#BAE0F2" transform="translate(558,313)"/>
<path d="M0 0 C10.23 0 20.46 0 31 0 C30.67 1.98 30.34 3.96 30 6 C29.67 6 29.34 6 29 6 C29 4.35 29 2.7 29 1 C19.76 1 10.52 1 1 1 C1 3.31 1 5.62 1 8 C0.67 8.33 0.34 8.66 0 9 C-0.36760731 11.32817964 -0.70241581 13.6618385 -1 16 C-1.66 15.67 -2.32 15.34 -3 15 C-2.69052329 13.06201479 -2.37731166 11.12462574 -2.0625 9.1875 C-1.88847656 8.10855469 -1.71445312 7.02960938 -1.53515625 5.91796875 C-1 3 -1 3 0 0 Z " fill="#1A6FA1" transform="translate(730,235)"/>
<path d="M0 0 C3.3 0 6.6 0 10 0 C9.01 5.61 8.02 11.22 7 17 C6.67 17 6.34 17 6 17 C6 13.04 6 9.08 6 5 C6.66 5 7.32 5 8 5 C8 4.01 8 3.02 8 2 C5.36 2.66 2.72 3.32 0 4 C-0.33 6.31 -0.66 8.62 -1 11 C-2.60080151 6.99799622 -1.29279692 3.95443764 0 0 Z " fill="#D1F0FA" transform="translate(883,283)"/>
<path d="M0 0 C0.66 0.66 1.32 1.32 2 2 C1.56986575 5.51276301 0.51363601 8.86445572 -0.5 12.25 C-0.7578125 13.12140625 -1.015625 13.9928125 -1.28125 14.890625 C-2 17 -2 17 -3 18 C-4.70772358 18.08713831 -6.41898649 18.10700007 -8.12890625 18.09765625 C-9.68061523 18.09282227 -9.68061523 18.09282227 -11.26367188 18.08789062 C-12.35228516 18.07951172 -13.44089844 18.07113281 -14.5625 18.0625 C-16.2012207 18.05573242 -16.2012207 18.05573242 -17.87304688 18.04882812 C-20.58208495 18.03699826 -23.29101599 18.02051543 -26 18 C-26 17.67 -26 17.34 -26 17 C-18.74 17 -11.48 17 -4 17 C-2.68 11.39 -1.36 5.78 0 0 Z " fill="#B9DFF0" transform="translate(617,315)"/>
<path d="M0 0 C0 0.33 0 0.66 0 1 C-0.78246094 1.06058594 -1.56492188 1.12117188 -2.37109375 1.18359375 C-3.88896484 1.30927734 -3.88896484 1.30927734 -5.4375 1.4375 C-6.44683594 1.51871094 -7.45617187 1.59992188 -8.49609375 1.68359375 C-10.93640779 1.73211468 -10.93640779 1.73211468 -12 3 C-12.969375 3.061875 -13.93875 3.12375 -14.9375 3.1875 C-19.60717436 3.7397229 -23.0171391 6.26407101 -26.86328125 8.8203125 C-27.56839844 9.20960938 -28.27351562 9.59890625 -29 10 C-29.66 9.67 -30.32 9.34 -31 9 C-21.24843281 0.22358953 -12.52051058 -0.69903595 0 0 Z " fill="#CAEBF9" transform="translate(208,268)"/>
<path d="M0 0 C0.33 0 0.66 0 1 0 C1 1.65 1 3.3 1 5 C1.66 5 2.32 5 3 5 C1.62845496 7.95409701 0.01136276 10.44008376 -2 13 C0.475 13.99 0.475 13.99 3 15 C3 15.33 3 15.66 3 16 C0.36 16 -2.28 16 -5 16 C-4.34309381 12.21760329 -3.279869 8.78158474 -1.9375 5.1875 C-1.57527344 4.21167969 -1.21304688 3.23585937 -0.83984375 2.23046875 C-0.42412109 1.12638672 -0.42412109 1.12638672 0 0 Z " fill="#C7EAFA" transform="translate(802,232)"/>
<path d="M0 0 C0.33 0.66 0.66 1.32 1 2 C0.34 2 -0.32 2 -1 2 C-1 2.66 -1 3.32 -1 4 C-1.66 4 -2.32 4 -3 4 C-3.33 4.99 -3.66 5.98 -4 7 C-5.65 7 -7.3 7 -9 7 C-9 7.66 -9 8.32 -9 9 C-9.99 8.67 -10.98 8.34 -12 8 C-12.845625 8.165 -13.69125 8.33 -14.5625 8.5 C-19.15856152 9.16851804 -23.41641175 8.58880086 -28 8 C-28 7.67 -28 7.34 -28 7 C-27.09378906 6.96261719 -26.18757813 6.92523438 -25.25390625 6.88671875 C-15.84589547 6.37898483 -7.92245361 5.36682341 0 0 Z " fill="#2482BA" transform="translate(414,309)"/>
<path d="M0 0 C2 4 2 4 2 6 C1.34 6 0.68 6 0 6 C0 6.66 0 7.32 0 8 C0.99 8 1.98 8 3 8 C3.25 11.3125 3.25 11.3125 3 15 C1.125 16.9375 1.125 16.9375 -1 18 C-1.66 18 -2.32 18 -3 18 C-2.01 12.06 -1.02 6.12 0 0 Z " fill="#CBE9F3" transform="translate(753,270)"/>
<path d="M0 0 C7.59 0 15.18 0 23 0 C22.34 1.32 21.68 2.64 21 4 C20.01 3.67 19.02 3.34 18 3 C16.66636297 2.85596652 15.32781954 2.75409577 13.98828125 2.68359375 C12.85229492 2.62075195 12.85229492 2.62075195 11.69335938 2.55664062 C10.51483398 2.49766602 10.51483398 2.49766602 9.3125 2.4375 C8.51521484 2.39431641 7.71792969 2.35113281 6.89648438 2.30664062 C4.93118553 2.20072632 2.96561504 2.09987449 1 2 C0.67 1.34 0.34 0.68 0 0 Z " fill="#CCE7F4" transform="translate(93,332)"/>
<path d="M0 0 C0.66 0 1.32 0 2 0 C-0.16677807 9.38203908 -2.35919936 18.7371917 -5 28 C-5.33 28 -5.66 28 -6 28 C-6.09765625 21.84765625 -6.09765625 21.84765625 -6 20 C-5.67 19.67 -5.34 19.34 -5 19 C-4.855625 17.96875 -4.71125 16.9375 -4.5625 15.875 C-4.0082083 12.05654608 -3.12585988 8.67780895 -2 5 C-1.34 5 -0.68 5 0 5 C0 3.35 0 1.7 0 0 Z " fill="#CFEEFA" transform="translate(249,304)"/>
<path d="M0 0 C-1 3 -1 3 -3.0625 4.1875 C-3.701875 4.455625 -4.34125 4.72375 -5 5 C-5 3.68 -5 2.36 -5 1 C-10.28 1 -15.56 1 -21 1 C-21 0.67 -21 0.34 -21 0 C-13.63673974 -2.10627539 -7.32418831 -2.4413961 0 0 Z " fill="#2D84B3" transform="translate(517,315)"/>
<path d="M0 0 C1.82991164 5.48973491 -0.2975514 9.82263049 -2.3125 14.9375 C-3.15955388 17.25840562 -3.15955388 17.25840562 -3.5 20.875 C-3.665 21.90625 -3.83 22.9375 -4 24 C-4.99 24.66 -5.98 25.32 -7 26 C-6.27257092 21.21546644 -5.23288364 16.5652363 -4.0625 11.875 C-3.89298828 11.17246094 -3.72347656 10.46992188 -3.54882812 9.74609375 C-2.68776735 6.28220668 -1.79197992 3.10181278 0 0 Z " fill="#D0EFFA" transform="translate(279,284)"/>
<path d="M0 0 C0.33 0 0.66 0 1 0 C1.04254356 1.99954746 1.04080783 4.00041636 1 6 C0.67 6.33 0.34 6.66 0 7 C-0.78145949 14.05875701 0.14908153 19.53142836 3.22265625 25.90625 C4 28 4 28 3 31 C-1.0300611 25.01248065 -2.47659727 19.79668615 -2.4375 12.6875 C-2.43492187 12.00623047 -2.43234375 11.32496094 -2.4296875 10.62304688 C-2.31352934 6.68528529 -1.70979439 3.55005502 0 0 Z " fill="#1F79AD" transform="translate(148,289)"/>
<path d="M0 0 C3.22500389 2.94456877 3.9508504 4.99529065 4.16796875 9.43359375 C4.17989664 10.76819174 4.18622037 12.10284932 4.1875 13.4375 C4.20167969 14.75621094 4.21585938 16.07492187 4.23046875 17.43359375 C4 21 4 21 2 25 C2 18.4 2 11.8 2 5 C1.01 5 0.02 5 -1 5 C-0.67 3.35 -0.34 1.7 0 0 Z " fill="#2179AF" transform="translate(237,267)"/>
<path d="M0 0 C2.97 0 5.94 0 9 0 C9 0.66 9 1.32 9 2 C10.32 1.67 11.64 1.34 13 1 C13 1.99 13 2.98 13 4 C14.65 4 16.3 4 18 4 C18 3.34 18 2.68 18 2 C21.465 1.505 21.465 1.505 25 1 C21.82990689 3.68238648 19.06273953 5.08873132 15 6 C12.1859731 5.34623617 9.78907319 4.64726064 7.125 3.625 C6.43664062 3.3775 5.74828125 3.13 5.0390625 2.875 C3.35340331 2.26628974 1.67579857 1.63535365 0 1 C0 0.67 0 0.34 0 0 Z " fill="#BEE8F8" transform="translate(267,257)"/>
<path d="M0 0 C1.10085938 0.00322266 2.20171875 0.00644531 3.3359375 0.00976562 C4.42132812 -0.00634766 5.50671875 -0.02246094 6.625 -0.0390625 C12.43205112 -0.04261204 16.68528874 0.07515744 21.5859375 3.32226562 C21.5859375 3.98226563 21.5859375 4.64226562 21.5859375 5.32226562 C20.95171875 5.10570312 20.3175 4.88914062 19.6640625 4.66601562 C9.66636891 1.68327831 -0.07022742 2.04629374 -10.4140625 2.32226562 C-7.340417 -0.75137988 -4.20040217 0.0283811 0 0 Z " fill="#DCF5FF" transform="translate(596.4140625,252.677734375)"/>
<path d="M0 0 C-0.33 1.32 -0.66 2.64 -1 4 C-2.32 3.67 -3.64 3.34 -5 3 C-5.20625 3.61875 -5.4125 4.2375 -5.625 4.875 C-7.54205402 7.83771985 -9.70717385 7.97099183 -13 9 C-13.99 10.485 -13.99 10.485 -15 12 C-15.66 11.34 -16.32 10.68 -17 10 C-6.33333333 0 -6.33333333 0 0 0 Z " fill="#1A7AB0" transform="translate(180,256)"/>
<path d="M0 0 C0.33 0.66 0.66 1.32 1 2 C-1.12726723 7.10544134 -5.38439092 10.2005135 -10 13 C-12.25390625 13.671875 -12.25390625 13.671875 -14 14 C-11.03750349 9.92656729 -7.61640648 6.79433834 -3.8046875 3.55078125 C-1.92288746 1.97318991 -1.92288746 1.97318991 0 0 Z " fill="#D4EDF9" transform="translate(849,310)"/>
<path d="M0 0 C0.33 0 0.66 0 1 0 C0.67818056 7.90122209 0.29001019 14.76197759 -3 22 C-3.391875 22.99 -3.78375 23.98 -4.1875 25 C-4.455625 25.66 -4.72375 26.32 -5 27 C-6.57715009 23.02196539 -5.33980833 19.66794546 -4.1875 15.75 C-3.8107875 14.41027159 -3.434482 13.07042866 -3.05859375 11.73046875 C-2.70925781 10.49941406 -2.35992187 9.26835937 -2 8 C-1.31099555 5.33810847 -0.65405214 2.67071291 0 0 Z " fill="#C2E8F8" transform="translate(123,302)"/>
<path d="M0 0 C0.66 0 1.32 0 2 0 C2.04241723 2.33294775 2.04092937 4.66702567 2 7 C1.67 7.33 1.34 7.66 1 8 C0.34526794 11.20257508 -0.24822806 14.40843169 -0.80664062 17.62890625 C-1.14190267 19.43202543 -1.56498575 21.21831484 -2 23 C-2.66 23.33 -3.32 23.66 -4 24 C-3.4533512 15.81911794 -1.82876132 7.98214061 0 0 Z " fill="#C3E6F7" transform="translate(911,260)"/>
<path d="M0 0 C2.375 0.3125 2.375 0.3125 5 1 C5.66 1.99 6.32 2.98 7 4 C10.06556598 4.73343428 10.06556598 4.73343428 13 5 C13 5.66 13 6.32 13 7 C18.28 7 23.56 7 29 7 C29 7.33 29 7.66 29 8 C26.16560863 8.10901505 23.33549797 8.18777904 20.5 8.25 C19.31277344 8.30027344 19.31277344 8.30027344 18.1015625 8.3515625 C12.23390427 8.44775362 7.89887155 7.30154252 3 4 C1 1.75 1 1.75 0 0 Z " fill="#D1EEFA" transform="translate(371,308)"/>
<path d="M0 0 C6.27 1.98 12.54 3.96 19 6 C19 6.33 19 6.66 19 7 C14.65535464 6.39174965 10.32448133 5.73832608 6 5 C6 4.34 6 3.68 6 3 C4.02 3 2.04 3 0 3 C-0.33 4.98 -0.66 6.96 -1 9 C-2 6 -2 6 0 0 Z M10 6 C12 7 12 7 12 7 Z " fill="#1F7AA9" transform="translate(263,256)"/>
<path d="M0 0 C0.33 0.99 0.66 1.98 1 3 C0.01 3.99 -0.98 4.98 -2 6 C-2.99 5.67 -3.98 5.34 -5 5 C-3.68 3.68 -2.36 2.36 -1 1 C-7.51244208 0.30491177 -13.5510809 -0.31909709 -20 1 C-20 0.34 -20 -0.32 -20 -1 C-13.12382335 -2.37523533 -6.51702854 -3.02008639 0 0 Z " fill="#D4F0F8" transform="translate(518,314)"/>
<path d="M0 0 C0.66 0.99 1.32 1.98 2 3 C1.57421875 4.97265625 1.57421875 4.97265625 0.6875 7.0625 C0.40261719 7.75472656 0.11773438 8.44695312 -0.17578125 9.16015625 C-0.75511692 10.45336525 -1.36627777 11.73255553 -2 13 C-2.66 13 -3.32 13 -4 13 C-4 14.32 -4 15.64 -4 17 C-5.375 18.625 -5.375 18.625 -7 20 C-7.66 20.66 -8.32 21.32 -9 22 C-8.38469905 17.5048847 -6.58130034 13.84535205 -4.5 9.875 C-1.98916002 5.05413393 -1.98916002 5.05413393 0 0 Z " fill="#1E79B0" transform="translate(715,302)"/>
<path d="M0 0 C1.40305736 2.80611472 0.66161338 4.39740142 0.00390625 7.4453125 C-0.22490234 8.52167969 -0.45371094 9.59804688 -0.68945312 10.70703125 C-0.93630859 11.83496094 -1.18316406 12.96289062 -1.4375 14.125 C-1.80198242 15.82849609 -1.80198242 15.82849609 -2.17382812 17.56640625 C-2.77651846 20.37896117 -3.38549188 23.19000762 -4 26 C-4.33 26 -4.66 26 -5 26 C-5.02689216 24.52093108 -5.04634621 23.04172517 -5.0625 21.5625 C-5.07410156 20.73878906 -5.08570313 19.91507812 -5.09765625 19.06640625 C-5 17 -5 17 -4 16 C-3.4605275 12.70876442 -3.0338661 9.40795985 -2.59765625 6.1015625 C-2 3 -2 3 0 0 Z " fill="#C9E9F9" transform="translate(724,260)"/>
<path d="M0 0 C1.32 0 2.64 0 4 0 C4.28571429 7.42857143 4.28571429 7.42857143 2 11 C0.68 11 -0.64 11 -2 11 C-2 10.34 -2 9.68 -2 9 C-1.01 9 -0.02 9 1 9 C0.67 8.34 0.34 7.68 0 7 C-0.04022391 4.6670134 -0.04320247 2.33293334 0 0 Z " fill="#EDF4F5" transform="translate(735,273)"/>
<path d="M0 0 C0.33 0 0.66 0 1 0 C1 1.98 1 3.96 1 6 C0.34 6 -0.32 6 -1 6 C-1 7.32 -1 8.64 -1 10 C1.64 10 4.28 10 7 10 C7.33 9.01 7.66 8.02 8 7 C8 8.65 8 10.3 8 12 C4.37 12 0.74 12 -3 12 C-1.125 2.25 -1.125 2.25 0 0 Z " fill="#B7E2F6" transform="translate(888,259)"/>
<path d="M0 0 C0.66 0.33 1.32 0.66 2 1 C2.59355614 3.64860427 2.74209269 6.29197322 3 9 C2.34 9 1.68 9 1 9 C1 9.66 1 10.32 1 11 C-3.29385993 14.4887612 -6.71870895 14.26854022 -12 14 C-9.03653214 11.52813545 -6.45958311 10.33751639 -2.75 9.3125 C-1.41195312 8.93544922 -1.41195312 8.93544922 -0.046875 8.55078125 C0.62859375 8.36902344 1.3040625 8.18726563 2 8 C1.34 5.36 0.68 2.72 0 0 Z " fill="#D1EFF9" transform="translate(860,242)"/>
<path d="M0 0 C2.97 0.33 5.94 0.66 9 1 C9 1.33 9 1.66 9 2 C6.69 2 4.38 2 2 2 C2.33 4.64 2.66 7.28 3 10 C3.99 10 4.98 10 6 10 C5.67 11.32 5.34 12.64 5 14 C0.79289518 8.84290377 -0.12440607 6.71792803 0 0 Z " fill="#DCEFFA" transform="translate(458,297)"/>
<path d="M0 0 C1 3 1 3 0.5703125 4.6875 C-0.27166201 8.10153364 -0.14398811 11.50618829 -0.125 15 C-0.12886719 15.7115625 -0.13273437 16.423125 -0.13671875 17.15625 C-0.13033978 20.57538017 -0.07200732 23.73293006 1 27 C0.01 26.67 -0.98 26.34 -2 26 C-2.05785647 22.04172765 -2.09354717 18.0835633 -2.125 14.125 C-2.14175781 12.99707031 -2.15851563 11.86914062 -2.17578125 10.70703125 C-2.18222656 9.63066406 -2.18867188 8.55429687 -2.1953125 7.4453125 C-2.20578613 6.45031738 -2.21625977 5.45532227 -2.22705078 4.43017578 C-2 2 -2 2 0 0 Z " fill="#D9F4FD" transform="translate(435,287)"/>
<path d="M0 0 C1.44801722 2.89603444 2.33959894 4.8703423 3.0703125 7.890625 C3.33134766 8.95410156 3.33134766 8.95410156 3.59765625 10.0390625 C3.77167969 10.76867187 3.94570313 11.49828125 4.125 12.25 C4.30675781 12.99507812 4.48851562 13.74015625 4.67578125 14.5078125 C5.12147499 16.3375026 5.56131959 18.16861575 6 20 C5.34 20 4.68 20 4 20 C3.67 18.02 3.34 16.04 3 14 C2.34 14 1.68 14 1 14 C0.67 9.38 0.34 4.76 0 0 Z " fill="#247EB0" transform="translate(856,230)"/>
<path d="M0 0 C0 0.66 0 1.32 0 2 C-2.41605225 2.81436587 -4.83279998 3.62655397 -7.25 4.4375 C-7.93191406 4.66759766 -8.61382813 4.89769531 -9.31640625 5.13476562 C-12.52066613 6.20803714 -15.70046619 7.26015608 -19 8 C-16.45503136 4.99711313 -13.66909427 3.79704375 -10.0625 2.3125 C-9.02222656 1.87550781 -7.98195313 1.43851562 -6.91015625 0.98828125 C-4 0 -4 0 0 0 Z " fill="#1D79B0" transform="translate(590,255)"/>
<path d="M0 0 C0.66 0 1.32 0 2 0 C2.3679222 13.59268112 2.3679222 13.59268112 0 20 C-0.33 20.99 -0.66 21.98 -1 23 C-1.66 23 -2.32 23 -3 23 C-2.7834375 22.17757813 -2.566875 21.35515625 -2.34375 20.5078125 C-0.60217588 13.52539033 0.43849861 7.19462542 0 0 Z " fill="#237CAF" transform="translate(602,275)"/>
<path d="M0 0 C6.6 0.33 13.2 0.66 20 1 C20 1.66 20 2.32 20 3 C20.66 3 21.32 3 22 3 C21.67 3.66 21.34 4.32 21 5 C20.14664062 4.67386719 19.29328125 4.34773438 18.4140625 4.01171875 C14.87112909 2.96181057 12.05693761 2.76507457 8.375 2.8125 C7.26898438 2.81894531 6.16296875 2.82539063 5.0234375 2.83203125 C2.50442978 2.97197612 0.39985987 3.26833541 -2 4 C-1.34 2.68 -0.68 1.36 0 0 Z " fill="#1F79B2" transform="translate(293,268)"/>
<path d="M0 0 C7.26 0 14.52 0 22 0 C21.01 1.485 21.01 1.485 20 3 C18.9275 2.855625 17.855 2.71125 16.75 2.5625 C11.18282682 1.8615969 5.5929036 1.43811078 0 1 C0 0.67 0 0.34 0 0 Z " fill="#E9F4FB" transform="translate(592,333)"/>
<path d="M0 0 C0 2.64 0 5.28 0 8 C-0.99 8.495 -0.99 8.495 -2 9 C-2 6.69 -2 4.38 -2 2 C-6.455 4.97 -6.455 4.97 -11 8 C-11.33 7.34 -11.66 6.68 -12 6 C-11.34 6 -10.68 6 -10 6 C-10 5.34 -10 4.68 -10 4 C-6.32547562 1.1605948 -4.73113419 0 0 0 Z " fill="#C7E8F7" transform="translate(423,303)"/>
<path d="M0 0 C0.66 0 1.32 0 2 0 C1.54537897 2.35493692 1.086405 4.70889085 0.625 7.0625 C0.49867187 7.71927734 0.37234375 8.37605469 0.2421875 9.05273438 C-0.62384507 13.44784965 -1.71626553 17.70786171 -3 22 C-3.33 22 -3.66 22 -4 22 C-3.67 17.38 -3.34 12.76 -3 8 C-2.34 8 -1.68 8 -1 8 C-0.67 5.36 -0.34 2.72 0 0 Z " fill="#CBEAF8" transform="translate(100,296)"/>
<path d="M0 0 C2.29160319 -0.02692484 4.58329546 -0.04636124 6.875 -0.0625 C8.15117188 -0.07410156 9.42734375 -0.08570313 10.7421875 -0.09765625 C14 0 14 0 16 1 C15.67 2.32 15.34 3.64 15 5 C15 4.34 15 3.68 15 3 C10.05 2.67 5.1 2.34 0 2 C0 1.34 0 0.68 0 0 Z " fill="#CBEBFA" transform="translate(788,227)"/>
<path d="M0 0 C1.67542976 0.28604898 3.34385343 0.61781233 5 1 C5.33 2.32 5.66 3.64 6 5 C3.03 5 0.06 5 -3 5 C-1 1 -1 1 0 0 Z " fill="#B1DFF2" transform="translate(783,273)"/>
<path d="M0 0 C2.29403245 6.94717627 -0.89622662 15.23787129 -3 22 C-3.66 22 -4.32 22 -5 22 C-4.38955672 14.36945905 -2.20378179 7.29810526 0 0 Z " fill="#CBEEFA" transform="translate(564,286)"/>
<path d="M0 0 C0.33 0 0.66 0 1 0 C1.14285714 8.57142857 1.14285714 8.57142857 0 12 C1.32 12 2.64 12 4 12 C4 10.35 4 8.7 4 7 C4.33 7 4.66 7 5 7 C5.04254356 8.99954746 5.04080783 11.00041636 5 13 C4.67 13.33 4.34 13.66 4 14 C2.02 14 0.04 14 -2 14 C-1.34 9.38 -0.68 4.76 0 0 Z " fill="#B6E6F8" transform="translate(739,247)"/>
<path d="M0 0 C-6.60986942 3.45380564 -13.77464952 5.29218989 -21 7 C-21 6.34 -21 5.68 -21 5 C-19.865625 4.525625 -18.73125 4.05125 -17.5625 3.5625 C-14.24259834 2.36377917 -14.24259834 2.36377917 -13 1 C-8.62311835 0.22760912 -4.44088235 -0.1083142 0 0 Z " fill="#C3E5F7" transform="translate(481,252)"/>
<path d="M0 0 C1.81273037 5.96003772 0.86771668 11.98689729 -1.5625 17.625 C-2.036875 18.40875 -2.51125 19.1925 -3 20 C-4.37344385 15.60155678 -3.24307502 12.07495445 -2.0625 7.75 C-1.86720703 7.00492187 -1.67191406 6.25984375 -1.47070312 5.4921875 C-0.98895802 3.65920614 -0.49560775 1.82928182 0 0 Z " fill="#CCEAF9" transform="translate(271,312)"/>
<path d="M0 0 C1.32 0.33 2.64 0.66 4 1 C3.34 1 2.68 1 2 1 C2.33 3.97 2.66 6.94 3 10 C5.97 10.33 8.94 10.66 12 11 C7.78370866 13.10814567 5.60209225 13.17700355 1 13 C0.67 8.71 0.34 4.42 0 0 Z " fill="#1971A7" transform="translate(725,318)"/>
<path d="M0 0 C0.99 0.33 1.98 0.66 3 1 C2.52449439 2.48034764 2.04448784 3.95925021 1.5625 5.4375 C1.29566406 6.26121094 1.02882813 7.08492188 0.75390625 7.93359375 C0 10 0 10 -1 11 C-3.01964199 11.07244053 -5.04167124 11.08377188 -7.0625 11.0625 C-8.16722656 11.05347656 -9.27195312 11.04445313 -10.41015625 11.03515625 C-11.69212891 11.01775391 -11.69212891 11.01775391 -13 11 C-13 10.67 -13 10.34 -13 10 C-9.37 10 -5.74 10 -2 10 C-1.34 6.7 -0.68 3.4 0 0 Z " fill="#1A77AC" transform="translate(785,288)"/>
<path d="M0 0 C0.66 0 1.32 0 2 0 C1.52794881 4.24846075 -0.88877522 6.26819288 -4 9 C-4.66 9 -5.32 9 -6 9 C-6 9.66 -6 10.32 -6 11 C-6.66 10.67 -7.32 10.34 -8 10 C-6.71580959 8.32756598 -5.42242815 6.66218553 -4.125 5 C-3.04605469 3.6078125 -3.04605469 3.6078125 -1.9453125 2.1875 C-1.30335938 1.465625 -0.66140625 0.74375 0 0 Z " fill="#197CB0" transform="translate(161,267)"/>
<path d="M0 0 C0.66 0 1.32 0 2 0 C2.66 1.98 3.32 3.96 4 6 C1.03 6 -1.94 6 -5 6 C-3.38405168 3.95880212 -1.7143618 1.95927063 0 0 Z " fill="#237CB4" transform="translate(855,289)"/>
<path d="M0 0 C5.31632789 -0.43576458 5.31632789 -0.43576458 8 0 C9.875 2.3125 9.875 2.3125 11 5 C11.99 6.485 11.99 6.485 13 8 C12.625 10.1875 12.625 10.1875 12 12 C11.505 10.9275 11.01 9.855 10.5 8.75 C8.02605229 4.33095571 4.59011153 2.79370863 0 1 C0 0.67 0 0.34 0 0 Z " fill="#CFEEFA" transform="translate(327,256)"/>
<path d="M0 0 C0.66 0.33 1.32 0.66 2 1 C1 3 1 3 -2.0625 4.125 C-3.5165625 4.558125 -3.5165625 4.558125 -5 5 C-5 7.31 -5 9.62 -5 12 C-6.9451 9.08235 -7.45276317 7.37462715 -8 4 C-6.71349294 3.30289269 -5.42059335 2.61757124 -4.125 1.9375 C-3.40570312 1.55464844 -2.68640625 1.17179688 -1.9453125 0.77734375 C-1.30335938 0.52082031 -0.66140625 0.26429688 0 0 Z " fill="#1978B0" transform="translate(848,232)"/>
<path d="M0 0 C0.66 0.33 1.32 0.66 2 1 C1.34 5.62 0.68 10.24 0 15 C-0.99 15.33 -1.98 15.66 -3 16 C-2.40984815 10.49191603 -1.43336231 5.35121931 0 0 Z " fill="#217DB1" transform="translate(316,284)"/>
<path d="M0 0 C0.33 0 0.66 0 1 0 C1.22162329 1.62324086 1.42689803 3.248721 1.625 4.875 C1.74101563 5.77992188 1.85703125 6.68484375 1.9765625 7.6171875 C1.98429688 8.40351563 1.99203125 9.18984375 2 10 C1.34 10.66 0.68 11.32 0 12 C-0.64767793 14.57061311 -0.64767793 14.57061311 -1 17 C-1.66 17 -2.32 17 -3 17 C-2.36934845 11.2190275 -1.34844868 5.6556294 0 0 Z " fill="#3083B5" transform="translate(834,281)"/>
<path d="M0 0 C1 2 1 2 0.29296875 4.12890625 C-0.07183594 4.93199219 -0.43664062 5.73507812 -0.8125 6.5625 C-1.16957031 7.36816406 -1.52664063 8.17382812 -1.89453125 9.00390625 C-3 11 -3 11 -5 12 C-4.67 8.7 -4.34 5.4 -4 2 C-3.67 2.66 -3.34 3.32 -3 4 C-2.34 4 -1.68 4 -1 4 C-0.67 2.68 -0.34 1.36 0 0 Z " fill="#C1E9F9" transform="translate(792,310)"/>
<path d="M0 0 C0.33 0 0.66 0 1 0 C0.88630789 2.45933991 0.75957349 4.9167909 0.625 7.375 C0.5940625 8.07367188 0.563125 8.77234375 0.53125 9.4921875 C0.2265625 14.7734375 0.2265625 14.7734375 -2 17 C-3.18594057 12.76674194 -2.71869389 9.89604576 -1.5625 5.6875 C-1.27503906 4.61886719 -0.98757813 3.55023438 -0.69140625 2.44921875 C-0.46324219 1.64097656 -0.23507812 0.83273437 0 0 Z " fill="#C3E6F6" transform="translate(623,290)"/>
<path d="M0 0 C4.39075018 0.35989756 6.38486502 1.6372727 9.8125 4.3125 C6.99435434 5.72157283 5.63972796 4.82122691 2.6875 3.875 C1.77742187 3.58753906 0.86734375 3.30007813 -0.0703125 3.00390625 C-0.76898437 2.77574219 -1.46765625 2.54757812 -2.1875 2.3125 C-2.5175 3.9625 -2.8475 5.6125 -3.1875 7.3125 C-3.5175 7.3125 -3.8475 7.3125 -4.1875 7.3125 C-4.23004356 5.31295254 -4.22830783 3.31208364 -4.1875 1.3125 C-3.1875 0.3125 -3.1875 0.3125 0 0 Z " fill="#D3EFFB" transform="translate(551.1875,254.6875)"/>
<path d="M0 0 C3.3 0 6.6 0 10 0 C9.34 3.96 8.68 7.92 8 12 C7.67 12 7.34 12 7 12 C7 8.37 7 4.74 7 1 C4.69 1 2.38 1 0 1 C0 0.67 0 0.34 0 0 Z " fill="#C5EAF7" transform="translate(866,248)"/>
<path d="M0 0 C0.33 0 0.66 0 1 0 C0.67 4.95 0.34 9.9 0 15 C0.99 15 1.98 15 3 15 C2.67 16.65 2.34 18.3 2 20 C-1.38811921 16.45139093 -1.35003669 13.66675766 -1.25 8.875 C-1.23453125 7.63492187 -1.2190625 6.39484375 -1.203125 5.1171875 C-1 2 -1 2 0 0 Z " fill="#CBECF7" transform="translate(369,288)"/>
<path d="M0 0 C0.66 0.33 1.32 0.66 2 1 C1.67 1.66 1.34 2.32 1 3 C0.01 3 -0.98 3 -2 3 C-2 3.66 -2 4.32 -2 5 C-2.66 5 -3.32 5 -4 5 C-4.66 6.32 -5.32 7.64 -6 9 C-6.99 9 -7.98 9 -9 9 C-7.48328036 4.44984107 -3.83108947 2.49942736 0 0 Z " fill="#D0ECF7" transform="translate(383,273)"/>
<path d="M0 0 C0.99 0.495 0.99 0.495 2 1 C2.73075648 3.3140622 3.40138258 5.64828869 4 8 C5.65 8.33 7.3 8.66 9 9 C5.375 12 5.375 12 2 12 C0.86235649 7.73383684 0 4.43513689 0 0 Z " fill="#227CAE" transform="translate(843,244)"/>
<path d="M0 0 C3.63 0 7.26 0 11 0 C9 4 9 4 7 5 C7 4.01 7 3.02 7 2 C4.69 2 2.38 2 0 2 C0 1.34 0 0.68 0 0 Z " fill="#B8E6FB" transform="translate(756,273)"/>
<path d="M0 0 C0.33 0 0.66 0 1 0 C1.33 3.96 1.66 7.92 2 12 C2.66 11.34 3.32 10.68 4 10 C3.125 14.75 3.125 14.75 2 17 C1.34 17 0.68 17 0 17 C0 11.39 0 5.78 0 0 Z " fill="#C4E8F6" transform="translate(904,294)"/>
<path d="M0 0 C2.31 0 4.62 0 7 0 C6.67 0.99 6.34 1.98 6 3 C6 2.34 6 1.68 6 1 C4.68 1.33 3.36 1.66 2 2 C2 2.66 2 3.32 2 4 C1.34 4 0.68 4 0 4 C-0.33 6.64 -0.66 9.28 -1 12 C-1.66 12 -2.32 12 -3 12 C-2.01 8.04 -1.02 4.08 0 0 Z " fill="#ABD9EF" transform="translate(729,296)"/>
<path d="M0 0 C0.33 0 0.66 0 1 0 C1 5.94 1 11.88 1 18 C0.01 18 -0.98 18 -2 18 C-1.34 12.06 -0.68 6.12 0 0 Z " fill="#BFE5F3" transform="translate(340,270)"/>
<path d="M0 0 C-0.99 0.33 -1.98 0.66 -3 1 C-3.33 1.99 -3.66 2.98 -4 4 C-6.31 4.33 -8.62 4.66 -11 5 C-7.17906575 1.05170128 -5.52310605 -0.1453449 0 0 Z " fill="#DEF2FA" transform="translate(295,272)"/>
<path d="M0 0 C0.66 0.33 1.32 0.66 2 1 C0.02 3.31 -1.96 5.62 -4 8 C-5.32 7.67 -6.64 7.34 -8 7 C-5.36 4.69 -2.72 2.38 0 0 Z " fill="#1777B0" transform="translate(365,265)"/>
<path d="M0 0 C0.33 0 0.66 0 1 0 C1.05437607 1.58294782 1.09296271 3.16644256 1.125 4.75 C1.14820313 5.63171875 1.17140625 6.5134375 1.1953125 7.421875 C0.99139502 10.1135858 0.36551721 11.69904974 -1 14 C-1.66 14 -2.32 14 -3 14 C-2.01 9.38 -1.02 4.76 0 0 Z " fill="#C1E6F7" transform="translate(330,318)"/>
<path d="M0 0 C0.33 0 0.66 0 1 0 C1.19491452 1.45736087 1.38069358 2.91594593 1.5625 4.375 C1.66691406 5.18710937 1.77132812 5.99921875 1.87890625 6.8359375 C2 9 2 9 1 11 C0.01 11 -0.98 11 -2 11 C-1 3.57142857 -1 3.57142857 0 0 Z " fill="#1979B5" transform="translate(594,318)"/>
<path d="M0 0 C0.99 1.32 1.98 2.64 3 4 C-1.625 8.875 -1.625 8.875 -5 10 C-5.66 9.34 -6.32 8.68 -7 8 C-5.68 8 -4.36 8 -3 8 C-3 7.34 -3 6.68 -3 6 C-2.34 6 -1.68 6 -1 6 C-0.67 4.02 -0.34 2.04 0 0 Z " fill="#1577AC" transform="translate(781,236)"/>
<path d="M0 0 C0.96661363 3.12180401 0.98988909 5.52083795 0.5625 8.75 C0.40974609 9.94882812 0.40974609 9.94882812 0.25390625 11.171875 C0.12822266 12.07679688 0.12822266 12.07679688 0 13 C-0.66 13 -1.32 13 -2 13 C-2.33 13.66 -2.66 14.32 -3 15 C-2.44854729 9.76119922 -1.57077907 5.02649303 0 0 Z " fill="#C2E5F7" transform="translate(669,281)"/>
<path d="M0 0 C2.64 0 5.28 0 8 0 C5.66785852 1.20628008 3.50357861 2.1654738 1 3 C0.67 5.31 0.34 7.62 0 10 C-1.2380014 6.42355152 -0.74926071 3.66305234 0 0 Z " fill="#D4EFF7" transform="translate(882,284)"/>
<path d="M0 0 C0.33 0 0.66 0 1 0 C0.91284983 1.93833996 0.80467036 3.8757429 0.6875 5.8125 C0.62949219 6.89144531 0.57148438 7.97039062 0.51171875 9.08203125 C-0.03068507 12.17497517 -0.55289624 13.13022903 -3 15 C-2.44854729 9.76119922 -1.57077907 5.02649303 0 0 Z " fill="#BCE3F5" transform="translate(131,270)"/>
<path d="M0 0 C0.33 0.99 0.66 1.98 1 3 C-0.45381897 3.69699552 -1.91322953 4.38233866 -3.375 5.0625 C-4.18710937 5.44535156 -4.99921875 5.82820313 -5.8359375 6.22265625 C-6.55007813 6.47917969 -7.26421875 6.73570312 -8 7 C-8.66 6.67 -9.32 6.34 -10 6 C-8.70903219 5.18639005 -7.41720125 4.37414954 -6.125 3.5625 C-5.04605469 2.88380859 -5.04605469 2.88380859 -3.9453125 2.19140625 C-2 1 -2 1 0 0 Z " fill="#1B7BB1" transform="translate(377,258)"/>
<path d="M0 0 C2.31 0 4.62 0 7 0 C7 0.66 7 1.32 7 2 C8.65 2 10.3 2 12 2 C12 2.66 12 3.32 12 4 C12.66 4.33 13.32 4.66 14 5 C13.01 5.495 13.01 5.495 12 6 C10.1953125 5.29296875 10.1953125 5.29296875 8.125 4.1875 C7.10792969 3.65189453 7.10792969 3.65189453 6.0703125 3.10546875 C5.38710937 2.74066406 4.70390625 2.37585938 4 2 C2.66851465 1.32965011 1.33572063 0.66187054 0 0 Z " fill="#C3E4F3" transform="translate(218,253)"/>
<path d="M0 0 C1.48285242 0.95262034 2.96118201 1.91228405 4.4375 2.875 C5.67306641 3.67550781 5.67306641 3.67550781 6.93359375 4.4921875 C9 6 9 6 10 8 C7.03 7.505 7.03 7.505 4 7 C4 6.34 4 5.68 4 5 C2.35 4.67 0.7 4.34 -1 4 C-0.67 2.68 -0.34 1.36 0 0 Z " fill="#207BAC" transform="translate(658,237)"/>
<path d="M0 0 C0.66 0 1.32 0 2 0 C1.67 2.31 1.34 4.62 1 7 C-0.32 7 -1.64 7 -3 7 C-3.66 5.35 -4.32 3.7 -5 2 C-4.01 2.33 -3.02 2.66 -2 3 C-2 3.66 -2 4.32 -2 5 C-1.34 5 -0.68 5 0 5 C0 3.35 0 1.7 0 0 Z " fill="#C8ECFA" transform="translate(785,231)"/>
<path d="M0 0 C0.66 0 1.32 0 2 0 C0.375 6.75 0.375 6.75 -3 9 C-3.25532751 5.93606987 -3.21861333 4.36766788 -1.625 1.6875 C-0.820625 0.8521875 -0.820625 0.8521875 0 0 Z " fill="#0D76AB" transform="translate(741,320)"/>
<path d="M0 0 C1.98 0.99 3.96 1.98 6 3 C5.34 5.31 4.68 7.62 4 10 C3.67 10 3.34 10 3 10 C2.690625 8.906875 2.38125 7.81375 2.0625 6.6875 C1.41662103 4.44592006 0.7376883 2.2130649 0 0 Z " fill="#1778AB" transform="translate(914,306)"/>
<path d="M0 0 C2.27057377 -0.05398987 4.54151288 -0.09278742 6.8125 -0.125 C8.07707031 -0.14820313 9.34164063 -0.17140625 10.64453125 -0.1953125 C14 0 14 0 17 2 C14.6739143 2.38063221 12.33944736 2.71269945 10 3 C9.67 2.67 9.34 2.34 9 2 C7.48530552 1.76807135 5.96245438 1.58784762 4.4375 1.4375 C3.61121094 1.35371094 2.78492188 1.26992188 1.93359375 1.18359375 C1.29550781 1.12300781 0.65742188 1.06242187 0 1 C0 0.67 0 0.34 0 0 Z " fill="#CEEFF8" transform="translate(482,268)"/>
<path d="M0 0 C3.96 0 7.92 0 12 0 C11.67 0.99 11.34 1.98 11 3 C5.04296875 3.29296875 5.04296875 3.29296875 3 3 C2.01 2.01 1.02 1.02 0 0 Z " fill="#E5F7FC" transform="translate(765,259)"/>
<path d="M0 0 C0 0.66 0 1.32 0 2 C-4.17737474 3.59138085 -7.53160785 4.21278058 -12 4 C-8.54145481 0.54145481 -4.78095787 0 0 0 Z " fill="#207CB1" transform="translate(304,255)"/>
<path d="M0 0 C2.97 0 5.94 0 9 0 C9 0.66 9 1.32 9 2 C10.32 1.67 11.64 1.34 13 1 C13 1.66 13 2.32 13 3 C8.17639811 3.19294408 4.50353262 2.75747614 0 1 C0 0.67 0 0.34 0 0 Z " fill="#D0EEF7" transform="translate(267,257)"/>
<path d="M0 0 C0.33 0 0.66 0 1 0 C1.04254356 1.99954746 1.04080783 4.00041636 1 6 C0.67 6.33 0.34 6.66 0 7 C-0.36760731 9.32817964 -0.70241581 11.6618385 -1 14 C-1.66 13.67 -2.32 13.34 -3 13 C-2.69240822 11.02006459 -2.3787932 9.04106401 -2.0625 7.0625 C-1.88847656 5.96035156 -1.71445312 4.85820312 -1.53515625 3.72265625 C-1 1 -1 1 0 0 Z " fill="#267FB1" transform="translate(730,237)"/>
<path d="M0 0 C-4.95 2.97 -4.95 2.97 -10 6 C-10.33 5.01 -10.66 4.02 -11 3 C-9.68 3 -8.36 3 -7 3 C-7 2.01 -7 1.02 -7 0 C-3.98968256 -0.93423645 -3.13349732 -1.04449911 0 0 Z " fill="#D3F0F9" transform="translate(776,230)"/>
<path d="M0 0 C4.875 1.75 4.875 1.75 6 4 C3.69 4.33 1.38 4.66 -1 5 C-0.67 3.35 -0.34 1.7 0 0 Z " fill="#DBF9F7" transform="translate(798,292)"/>
<path d="M0 0 C1.32 0.66 2.64 1.32 4 2 C0.535 4.97 0.535 4.97 -3 8 C-3.33 7.01 -3.66 6.02 -4 5 C-3.01 5 -2.02 5 -1 5 C-0.67 3.35 -0.34 1.7 0 0 Z " fill="#267EB0" transform="translate(816,282)"/>
<path d="M0 0 C0.598125 0.226875 1.19625 0.45375 1.8125 0.6875 C0.6678125 1.5846875 0.6678125 1.5846875 -0.5 2.5 C-2.5358575 4.15709332 -4.3853279 5.79047674 -6.1875 7.6875 C-5.82037028 4.97074005 -5.46005401 3.07686287 -3.875 0.8125 C-2.1875 -0.3125 -2.1875 -0.3125 0 0 Z " fill="#D0EEF4" transform="translate(162.1875,265.3125)"/>
<path d="M0 0 C1.32 0 2.64 0 4 0 C3.36644741 1.26710519 2.7028635 2.51998888 2 3.75 C0.79150519 6.46911333 0.40054766 9.06265048 0 12 C-0.33 12 -0.66 12 -1 12 C-1.02698189 10.37509046 -1.04638757 8.75005367 -1.0625 7.125 C-1.07410156 6.22007812 -1.08570313 5.31515625 -1.09765625 4.3828125 C-1 2 -1 2 0 0 Z " fill="#CDECF7" transform="translate(656,236)"/>
<path d="M0 0 C0.66 0 1.32 0 2 0 C1.8125 2.875 1.8125 2.875 1 6 C-1.5625 7.375 -1.5625 7.375 -4 8 C-2.68 5.36 -1.36 2.72 0 0 Z " fill="#D0EBF7" transform="translate(915,321)"/>
<path d="M0 0 C0.33 0 0.66 0 1 0 C1.390625 5.859375 1.390625 5.859375 1 8 C-0.32 9.32 -1.64 10.64 -3 12 C-2.01 8.04 -1.02 4.08 0 0 Z " fill="#C2E7F7" transform="translate(420,312)"/>
<path d="M0 0 C0.66 0.99 1.32 1.98 2 3 C2.99 3.33 3.98 3.66 5 4 C2.03 6.475 2.03 6.475 -1 9 C-0.67 6.03 -0.34 3.06 0 0 Z " fill="#BAE8FA" transform="translate(846,290)"/>
<path d="M0 0 C2.64 0.66 5.28 1.32 8 2 C8 2.33 8 2.66 8 3 C5.03 3.66 2.06 4.32 -1 5 C-0.67 3.35 -0.34 1.7 0 0 Z " fill="#2D84B5" transform="translate(549,256)"/>
<path d="M0 0 C1.6461999 0.67995213 3.28193778 1.39096889 4.875 2.1875 C4.875 2.8475 4.875 3.5075 4.875 4.1875 C-1.065 2.7025 -1.065 2.7025 -7.125 1.1875 C-3.125 -0.8125 -3.125 -0.8125 0 0 Z " fill="#C6E9FA" transform="translate(613.125,253.8125)"/>
<path d="M0 0 C1.98 0 3.96 0 6 0 C6.33 0.99 6.66 1.98 7 3 C7.66 3 8.32 3 9 3 C9 3.66 9 4.32 9 5 C5.54074837 3.7508258 2.85306797 2.32472205 0 0 Z " fill="#1D7DB0" transform="translate(444,324)"/>
<path d="M0 0 C0.33 1.32 0.66 2.64 1 4 C-0.98 4 -2.96 4 -5 4 C-5 3.01 -5 2.02 -5 1 C-3 0 -3 0 0 0 Z " fill="#F2F0F7" transform="translate(730,312)"/>
<path d="M0 0 C1 2 1 2 0.44140625 4.1640625 C0.15136719 4.97617187 -0.13867188 5.78828125 -0.4375 6.625 C-0.72496094 7.44226563 -1.01242187 8.25953125 -1.30859375 9.1015625 C-1.53675781 9.72804688 -1.76492188 10.35453125 -2 11 C-2.93423645 7.98968256 -3.04449911 7.13349732 -2 4 C-2.99 3.67 -3.98 3.34 -5 3 C-3.35 2.01 -1.7 1.02 0 0 Z " fill="#C0EAF8" transform="translate(759,296)"/>
<path d="M0 0 C0.95904856 3.83619425 0.91892116 5.32431536 0 9 C-0.99 9 -1.98 9 -3 9 C-2.01 6.03 -1.02 3.06 0 0 Z " fill="#C9E9F5" transform="translate(279,284)"/>
<path d="M0 0 C4.29 0 8.58 0 13 0 C12.67 0.66 12.34 1.32 12 2 C9.4375 2.625 9.4375 2.625 7 3 C7 2.34 7 1.68 7 1 C4.69 1 2.38 1 0 1 C0 0.67 0 0.34 0 0 Z " fill="#1A77B3" transform="translate(405,252)"/>
<path d="M0 0 C0.33 0.99 0.66 1.98 1 3 C0 4 0 4 -2.50390625 4.09765625 C-4.01791016 4.08025391 -4.01791016 4.08025391 -5.5625 4.0625 C-6.57441406 4.05347656 -7.58632813 4.04445313 -8.62890625 4.03515625 C-9.41136719 4.02355469 -10.19382812 4.01195312 -11 4 C-11 3.34 -11 2.68 -11 2 C-10.06027344 2.03480469 -10.06027344 2.03480469 -9.1015625 2.0703125 C-7.87566406 2.09738281 -7.87566406 2.09738281 -6.625 2.125 C-5.40683594 2.15980469 -5.40683594 2.15980469 -4.1640625 2.1953125 C-1.78657757 2.21370051 -1.78657757 2.21370051 0 0 Z " fill="#D4F2FC" transform="translate(910,329)"/>
<path d="M0 0 C0.33 0.66 0.66 1.32 1 2 C-4.75 6 -4.75 6 -7 6 C-7 5.34 -7 4.68 -7 4 C-7.66 3.67 -8.32 3.34 -9 3 C-6.03 2.01 -3.06 1.02 0 0 Z " fill="#C1E5F8" transform="translate(416,326)"/>
<path d="M0 0 C4.455 2.97 4.455 2.97 9 6 C7.68 6.33 6.36 6.66 5 7 C5 6.34 5 5.68 5 5 C3.35 4.67 1.7 4.34 0 4 C0 2.68 0 1.36 0 0 Z " fill="#1976AE" transform="translate(370,308)"/>
<path d="M0 0 C0.33 0 0.66 0 1 0 C1.06058594 0.67546875 1.12117188 1.3509375 1.18359375 2.046875 C1.26738281 2.93890625 1.35117187 3.8309375 1.4375 4.75 C1.51871094 5.63171875 1.59992188 6.5134375 1.68359375 7.421875 C1.96238465 9.69350452 2.38790577 11.79851823 3 14 C2.01 13.67 1.02 13.34 0 13 C0 8.71 0 4.42 0 0 Z " fill="#C5E8F6" transform="translate(433,300)"/>
<path d="M0 0 C1.45606519 4.52092968 0.27032841 7.51648796 -1 12 C-1.33 12 -1.66 12 -2 12 C-2.05422947 10.5629191 -2.09289723 9.12524538 -2.125 7.6875 C-2.14820313 6.88699219 -2.17140625 6.08648437 -2.1953125 5.26171875 C-2 3 -2 3 0 0 Z " fill="#D5F1FC" transform="translate(313,292)"/>
<path d="M0 0 C2.31 0 4.62 0 7 0 C6.25 5.75 6.25 5.75 4 8 C4.33 6.02 4.66 4.04 5 2 C3.35 1.67 1.7 1.34 0 1 C0 0.67 0 0.34 0 0 Z " fill="#2580B6" transform="translate(767,290)"/>
<path d="M0 0 C0.99 0.33 1.98 0.66 3 1 C2.25 5.75 2.25 5.75 0 8 C-0.38063221 5.6739143 -0.71269945 3.33944736 -1 1 C-0.67 0.67 -0.34 0.34 0 0 Z " fill="#1074AC" transform="translate(277,280)"/>
<path d="M0 0 C0.66 0 1.32 0 2 0 C2 0.66 2 1.32 2 2 C5.63 2 9.26 2 13 2 C13 2.33 13 2.66 13 3 C8.38 3 3.76 3 -1 3 C-0.67 2.01 -0.34 1.02 0 0 Z " fill="#0C73AE" transform="translate(883,269)"/>
<path d="M0 0 C1.32 0 2.64 0 4 0 C3.34 3.3 2.68 6.6 2 10 C1.67 10 1.34 10 1 10 C0.67 6.7 0.34 3.4 0 0 Z " fill="#1F7EB6" transform="translate(848,264)"/>
<path d="M0 0 C0.33 0 0.66 0 1 0 C1 1.65 1 3.3 1 5 C1.66 5 2.32 5 3 5 C2.67 7.31 2.34 9.62 2 12 C1.67 10.68 1.34 9.36 1 8 C0.34 8 -0.32 8 -1 8 C-0.67 5.36 -0.34 2.72 0 0 Z " fill="#AADCF1" transform="translate(755,260)"/>
<path d="M0 0 C0.33 0 0.66 0 1 0 C1.08131463 1.43655854 1.13933559 2.8744483 1.1875 4.3125 C1.23970703 5.51326172 1.23970703 5.51326172 1.29296875 6.73828125 C0.93801608 9.47851584 0.10633718 10.29171079 -2 12 C-1 3.42857143 -1 3.42857143 0 0 Z " fill="#C5E7F6" transform="translate(134,258)"/>
<path d="M0 0 C3.48624056 0.6456001 6.12498789 1.92360237 9 4 C9 4.99 9 5.98 9 7 C5.18315774 5.44499019 2.80804268 2.96404505 0 0 Z " fill="#BFE5F2" transform="translate(672,248)"/>
<path d="M0 0 C1.43088528 2.86177057 0.59991697 4.93375773 0 8 C-0.66 7.01 -1.32 6.02 -2 5 C-4.05925139 4.27617533 -4.05925139 4.27617533 -6 4 C-4.02 2.68 -2.04 1.36 0 0 Z " fill="#2B7AB0" transform="translate(421,304)"/>
<path d="M0 0 C3.3 0 6.6 0 10 0 C9.67 2.31 9.34 4.62 9 7 C8.67 7 8.34 7 8 7 C7.67 5.35 7.34 3.7 7 2 C4.69 1.67 2.38 1.34 0 1 C0 0.67 0 0.34 0 0 Z " fill="#BDF0FA" transform="translate(883,283)"/>
<path d="M0 0 C0.66 0 1.32 0 2 0 C3.0326802 2.78823655 3.04509293 3.8677274 2.0625 6.75 C1.711875 7.4925 1.36125 8.235 1 9 C0.67 9 0.34 9 0 9 C0 6.03 0 3.06 0 0 Z " fill="#0871B1" transform="translate(317,276)"/>
<path d="M0 0 C1.5 1.375 1.5 1.375 3 3 C3 3.66 3 4.32 3 5 C0.69 5 -1.62 5 -4 5 C-4 4.34 -4 3.68 -4 3 C-2.68 3 -1.36 3 0 3 C0 2.01 0 1.02 0 0 Z " fill="#B3DEF0" transform="translate(768,243)"/>
<path d="M0 0 C0.66 0 1.32 0 2 0 C2.33 2.64 2.66 5.28 3 8 C1.35 6.35 -0.3 4.7 -2 3 C-1.34 2.01 -0.68 1.02 0 0 Z " fill="#207AAA" transform="translate(766,235)"/>
<path d="M0 0 C0.66 0.66 1.32 1.32 2 2 C1.625 4.625 1.625 4.625 1 7 C0.01 6.67 -0.98 6.34 -2 6 C-1.34 4.02 -0.68 2.04 0 0 Z " fill="#D9EFF9" transform="translate(554,326)"/>
</svg>
